/* XPM */
static char * cdrom_xpm[] = {
"75 26 13 1",
" 	c None",
".	c #000000000000",
"X	c #79E77DF779E7",
"o	c #FFFFFFFF0000",
"O	c #FFFF00000000",
"+	c #FFFF0000FFFF",
"@	c #BEFBBEFBBEFB",
"#	c #FFFFFFFFFFFF",
"$	c #0000FFFFFFFF",
"%	c #0000FFFF0000",
"&	c #0000000079E7",
"*	c #00000000FFFF",
"=	c #00007DF779E7",
"                                                                           ",
"              ...  ... .  . ...  .   ... ...              XXXXXXXX         ",
"        ...   .   .  . .... . .. ..  .    .             XXoOO+@@#@XX       ",
"        ...   .   .  . .  . ...  ... .    .           XX$%oOO+@@@#@#XX@    ",
"        ...   ... .... .  . .   .  . ...  .          X&&*$%oO+@@#@#@##X@   ",
"        ...                                         X==&&*%oO+@@@#@#@##X@  ",
"        ...                                         X===&&$%O+@@#@#@###X@  ",
"        ...                                        X@@===&*$%O@#@#@###@@X@ ",
"  .........   ...    .........    ........         X@@@@==&*$O@@#@##@@@@X@ ",
" ..........   ...   ..........   ..........       X@@@@@@==&*O@#@##@@@@X@X@",
" ...    ...   ...   ...          ...    ...       X@@@@@@@==XXXX#@@@X@X@XX@",
" ...    ...   ...   ...          ...    ...       XX@@@@@@@XX##XX@@X@X@X@X@",
" ...    ...   ...   ...          ...    ...       X@X@X@X@@X####X@X@X@X@XX@",
" ...    ...   ...   ...          ...              XX@X@X@X@X####XX@X@X@X@X@",
" ...    ...   ...   .........    ...              X@X@X@X@@XX##XX@@@@@@@@X@",
" ...    ...   ...    .........   ...              XX@X@X@@@#XXXX&=@@@@@@@X@",
" ...    ...   ...          ...   ...              X@X@X@@@##@@+o*&==@@@@@X@",
" ...    ...   ...          ...   ...    ...        X@X@@@##@#@+o$*&==@@@X@ ",
" ...    ...   ...          ...   ...    ...        XX@@###@#@@+Oo$*===@@X@ ",
" ...    ...   ...          ...   ...    ...         X@###@#@#@+Oo$*&===X@  ",
" ..........   ...   ..........   ..........         X###@#@#@#++Oo$*&==X@  ",
"  .........   ...   .........     ........           X#@#@#@#@++Oo%$**X@   ",
"                                                      XX@#@#@@++OOo%XX@    ",
"                                                       @XX#@#@++OOXX@@     ",
"                                                         @XXXXXXXX@@       ",
"                                                           @@@@@@@         "};
