/* XPM */
static char * eject_xpm[] = {
"24 24 10 1",
" 	c None",
".	c #0000000079E7",
"X	c #0000000071C6",
"o	c #000000008617",
"O	c #0000000069A6",
"+	c #000000006185",
"@	c #000000005965",
"#	c #30C230C230C2",
"$	c #000000004924",
"%	c #000000005144",
"                        ",
"                        ",
"                        ",
"                        ",
"                        ",
"           ..           ",
"          X..o          ",
"         OXXX.o         ",
"        +OOXX..o        ",
"       @@++OOXX..       ",
"      ############      ",
"                        ",
"                        ",
"       $$$$%%%@@#       ",
"       $$$$$$$%%#       ",
"       $$$$$$$$$#       ",
"       $$$$$$$$$#       ",
"       $$$$$$$$$#       ",
"       $$$$$$$$$#       ",
"       $$$$$$$$$#       ",
"       ##########       ",
"                        ",
"                        ",
"                        "};
