/* XPM */
static char * ff_xpm[] = {
"26 12 13 1",
" 	c None",
".	c #0000000079E7",
"X	c #79E77DF779E7",
"o	c #0000000071C6",
"O	c #000000008617",
"+	c #0000000069A6",
"@	c #000000008E38",
"#	c #000000006185",
"$	c #000000009658",
"%	c #000000005965",
"&	c #38E33CF338E3",
"*	c #000000009E79",
"=	c #000000005144",
"..X           ..X         ",
"....X         ....X       ",
"ooooooX       OOOO..X     ",
"ooooooooX     OOOOOOOOX   ",
"+++++++oooX   OO@@@@@@@@X ",
"##+++++ooo.+  O@@@$$$$$@@.",
"%#####++ooo&  O@@$$$$$**$&",
"%%%%###++&&   OO@@$$$**&& ",
"==%%%%#&&     .OO@@$*&&   ",
"=====&&       o..O@&&     ",
"===&&         +o.&&       ",
"&&&           &&&         "};
