/* XPM */
static char * next_t_xpm[] = {
"19 24 14 1",
" 	c None",
".	c #208120812081",
"X	c #38E33CF338E3",
"o	c #000000008E38",
"O	c #000000006185",
"+	c #79E77DF779E7",
"@	c #000000005965",
"#	c #000000009658",
"$	c #000000005144",
"%	c #000000008617",
"&	c #0000000079E7",
"*	c #0000000071C6",
"=	c #000000004924",
"-	c #0000000069A6",
"                   ",
"                   ",
"                   ",
"               ...X",
"               .ooX",
"OO+            .ooX",
"@OOO+          .o#X",
"@@@@OO+        .ooX",
"$$@@@@OO+      .%oX",
"$$$$$$@@@O+    .&%X",
"$$$$$$$$@@O@   .&&X",
"$$$$$$$$$$@X   .**X",
"=======$$XX    .-*X",
"$$=====XX      .O-X",
"$$$==XX        .@@X",
"$$$XX          .$$X",
"XXX            .==X",
"               .==X",
"               ...X",
"                   ",
"                   ",
"                   ",
"                   ",
"                   "};
