/* XPM */
static char * pause_xpm[] = {
"24 24 12 1",
" 	c None",
".	c #0000000071C6",
"X	c #0000000079E7",
"o	c #30C230C230C2",
"O	c #000000008617",
"+	c #0000000069A6",
"@	c #000000008E38",
"#	c #000000009658",
"$	c #000000006185",
"%	c #000000005965",
"&	c #000000005144",
"*	c #000000004924",
"                        ",
"                        ",
"    ...Xo       OOXXo   ",
"    ....o       OOOOo   ",
"    +++.o       @@@@o   ",
"    +++.o       @@##o   ",
"    $$++o       @###o   ",
"    $$$+o       @@##o   ",
"    %%$$o       O@@#o   ",
"    &&%%o       XO@@o   ",
"    &&&&o       XXOOo   ",
"    &&&&o       ..XOo   ",
"    ***&o       +..Xo   ",
"    ****o       $++.o   ",
"    ****o       %%$+o   ",
"    ****o       &&%$o   ",
"    ****o       **&&o   ",
"    ****o       ****o   ",
"    ****o       ****o   ",
"    ****o       ****o   ",
"    &***o       ****o   ",
"    &&**o       ****o   ",
"                        ",
"                        "};
