/* XPM */
static char * play_xpm[] = {
"24 24 11 1",
" 	c None",
".	c #0000000071C6",
"X	c #618565956185",
"o	c #0000000069A6",
"O	c #000000006185",
"+	c #0000000079E7",
"@	c #000000005965",
"#	c #000000008617",
"$	c #000000005144",
"%	c #000000008E38",
"&	c #000000004924",
"                        ",
"                        ",
"  ..X                   ",
"  ....X                 ",
"  ooooo.X               ",
"  ooooo...X             ",
"  OOOOoo...+X           ",
"  @@OOOooo...+X         ",
"  @@@@OOOoo..++#X       ",
"  $$$$@@@OOoo..++#X     ",
"  $$$$$$@@OOooo.++##X   ",
"  $$$$$$$$@@OOOo..+##%  ",
"  &&&&&$$&$$@@@Oo..++#  ",
"  &&&&&&&&&$$$@@Ooo.X   ",
"  $&&&&&&&&&&&$$@@X     ",
"  $&&&&&&&&&&&&&X       ",
"  $&&&&&&&&&&&X         ",
"  $&&&&&&&&&X           ",
"  $&&&&&&&X             ",
"  $&&&&&X               ",
"  $$$&X                 ",
"  $$X                   ",
"                        ",
"                        "};
