/* XPM */
static char * power_xpm[] = {
"24 24 11 1",
" 	c None",
".	c #0000000069A6",
"X	c #0000000071C6",
"o	c #0000000079E7",
"O	c #000000008617",
"+	c #000000008E38",
"@	c #30C230C230C2",
"#	c #000000006185",
"$	c #000000005965",
"%	c #000000005144",
"&	c #000000004924",
"                        ",
"                        ",
"                        ",
"                        ",
"      .XXXoooOOO++      ",
"      .XXXoooOO+++      ",
"      ..        +@      ",
"      #.        +@      ",
"      ##        O@      ",
"      $$        o@      ",
"      %%        o@      ",
"      %%        X@      ",
"      &%        .@      ",
"      && &&%%%$ #@      ",
"      && &&&&&% $@      ",
"      && &&&&&& %@      ",
"      && &&&&&& &@      ",
"      && &&&&&& &@      ",
"      &&        &@      ",
"      &&&&&&&&&&&@      ",
"      &@@@@@@@@@@@      ",
"                        ",
"                        ",
"                        "};
