/* XPM */
static char * prev_t_xpm[] = {
"19 24 14 1",
" 	c None",
".	c #618561856185",
"X	c #38E33CF338E3",
"o	c #0000000069A6",
"O	c #000000006185",
"+	c #79E77DF779E7",
"@	c #000000008E38",
"#	c #000000009658",
"$	c #000000005965",
"%	c #0000000079E7",
"&	c #000000008617",
"*	c #000000005144",
"=	c #0000000071C6",
"-	c #000000004924",
"                   ",
"                   ",
"                   ",
"...X               ",
".ooX               ",
".OoX            +@#",
".OOX          +@@##",
".$$X        +%&&@@#",
".*$X      +==%%&&@@",
".**X    +OOoo==%%&@",
".**X   -$$OOooo=%%&",
".**X   X**$$OOOo==%",
".--X    XX**$$$Oo==",
".*-X      XX**$$Ooo",
".**X        XX**$$O",
".**X          XX**$",
".**X            XX*",
".**X               ",
"...X               ",
"                   ",
"                   ",
"                   ",
"                   ",
"                   "};
