/* XPM */
static char * rw_xpm[] = {
"26 12 12 1",
" 	c None",
".	c #79E77DF779E7",
"X	c #0000000079E7",
"o	c #000000008617",
"O	c #000000006185",
"+	c #0000000069A6",
"@	c #0000000071C6",
"#	c #000000008E38",
"$	c #000000005965",
"%	c #000000009658",
"&	c #38E33CF338E3",
"*	c #000000009E79",
"         .Xo           .OO",
"       .XXXX         .+++O",
"     .@XXXXX       .XXX@@+",
"   .@@@@@XXX     .ooooooXX",
" .+++++@@@XX   .########oo",
"$O+++++@@@XX  @###%%%%%###",
"&OOOOO++@@@X  &##%%%%%**%%",
" &&$OOO+++@@   &&#%%%*****",
"   &&$OOO++@     &&%******",
"     &&$$OO+       &&*****",
"       &&$OO         &&***",
"         &&$           &&%"};
