/* XPM */
static char * stop_xpm[] = {
"24 24 12 1",
" 	c None",
".	c #30C230C230C2",
"X	c #0000000069A6",
"o	c #0000000071C6",
"O	c #0000000079E7",
"+	c #000000008617",
"@	c #000000008E38",
"#	c #000000006185",
"$	c #000000009658",
"%	c #000000005965",
"&	c #000000005144",
"*	c #000000004924",
"                        ",
"                        ",
"                        ",
"                        ",
"                        ",
"     .XoooOOO++@@@.     ",
"     #XXoooOO++@@$.     ",
"     ##XXXoooO++@@.     ",
"     %###XXooOO++@.     ",
"     &%%%##XXooOO+.     ",
"     &&&%%##XXXoOO.     ",
"     &&&&&%%###Xoo.     ",
"     **&&*&&%%%#Xo.     ",
"     ******&&&%%#X.     ",
"     *********&&%%.     ",
"     ***********&&.     ",
"     *************.     ",
"     *************.     ",
"     .************.     ",
"     ..............     ",
"                        ",
"                        ",
"                        ",
"                        "};
