/* XPM */
static char * cdrom_xpm[] = {
"25 25 7 1",
" 	c None",
".	c #7B7B7B",
"+	c #7F7F7F",
"@	c #BEBEBE",
"#	c #FFFFFF",
"$	c #3C3C3C",
"%	c #3E3E3E",
"        ........         ",
"      ..++++@@#@..       ",
"    ..++++++@@@#@#..@    ",
"   .$$++++++@@#@#@##.@   ",
"  .%%$$+++++@@@#@#@##.@  ",
"  .%%%$$++++@@#@#@###.@  ",
" .@@%%%$++++@#@#@###@@.@ ",
" .@@@@%%$+++@@#@##@@@@.@ ",
".@@@@@@%%$++@#@##@@@@.@.@",
".@@@@@@@%%....#@@@.@.@..@",
"..@@@@@@@..##..@@.@.@.@.@",
".@.@.@.@@.####.@.@.@.@..@",
"..@.@.@.@.####..@.@.@.@.@",
".@.@.@.@@..##..@@@@@@@@.@",
"..@.@.@@@#....$%@@@@@@@.@",
".@.@.@@@##@@+++$%%@@@@@.@",
" .@.@@@##@#@++++$%%@@@.@ ",
" ..@@###@#@@+++++%%%@@.@ ",
"  .@###@#@#@+++++$%%%.@  ",
"  .###@#@#@#++++++$%%.@  ",
"   .#@#@#@#@++++++++.@   ",
"    ..@#@#@@++++++..@    ",
"     @..#@#@++++..@@     ",
"       @........@@       ",
"         @@@@@@@         "};
