/* XPM */
static char * goto_xpm[] = {
"14 7 4 1",
" 	c None",
".	c #949594",
"+	c #000000",
"@	c #8E8E8E",
".+@@@@@@@@@@@+",
" .+++++++++++.",
"  .+++++++++. ",
"   .+++++++.  ",
"    .+++++.   ",
"     .+++.    ",
"      .+.     "};
