/* XPM */
static char * menu_xpm[] = {
"11 6 6 1",
" 	c None",
".	c #949594",
"+	c #000000",
"@	c #D5D6D5",
"#	c #FFFFFF",
"$	c #8E8E8E",
"...........",
" .++++++@# ",
"  .++++$#  ",
"   .++$#   ",
"    .+#    ",
"     #     "};
