/* XPM */
static char * power_xpm[] = {
"13 16 6 1",
" 	c None",
".	c #949594",
"+	c #000000",
"@	c #8E8E8E",
"#	c #FFFFFF",
"$	c #D5D6D5",
".............",
".++++++++++@#",
".+########+@#",
".+#$$$$$$$+@#",
".+#$$$$$$.+@#",
".+#$$$$$$.+@#",
".+#$$$$$$.+@#",
".+#$......+@#",
".++++++++++@#",
".++++++++++@#",
".++++++++++@#",
".++++++++++@#",
".++++++++++@#",
".++++++++++@#",
".+@@@@@@@@@@#",
".############"};
