/* XPM */
static char * repeat_random_xpm[] = {
"24 24 3 1",
" 	g None",
".	g #000000",
"+	g #DFDFDF",
"........................",
"........................",
"........................",
"........................",
"........................",
".....++++++++++++++.....",
".....+............+.....",
".....+............+.....",
".....+.....++.....+.....",
".....+....+..+....+.....",
".....+.......+....+.....",
".....+.....++.....+.....",
".....+.....+......+.....",
".....+............+.....",
".....+.....+......+.....",
".....+............+.....",
".....+............+.....",
".....+............+.....",
".....++++++++++++++.....",
"........................",
"........................",
"........................",
"........................",
"........................"};
