/* XPM */
static char *audio_xpm[] = {
/* width height num_colors chars_per_pixel */
"    48    48      231            2",
/* colors */
".. c #0e0e0c",
".# c #7e8684",
".a c #424a44",
".b c #bec2bc",
".c c #626a64",
".d c #9ea6a4",
".e c #8e9694",
".f c #2a2e2c",
".g c #727a74",
".h c #525a54",
".i c #96865c",
".j c #dadedc",
".k c #524a34",
".l c #766a4c",
".m c #3a3e3c",
".n c #aeb6b4",
".o c #868e8c",
".p c #ced2cc",
".q c #1a1e1c",
".r c #323634",
".s c #52524c",
".t c #727274",
".u c #7a827c",
".v c #4a524c",
".w c #c6cac4",
".x c #6a726c",
".y c #969e9c",
".z c #8a8674",
".A c #9a8e7c",
".B c #4e422c",
".C c #eeeeec",
".D c #7e7a6c",
".E c #626664",
".F c #4a4a44",
".G c #a6aeac",
".H c #5a625c",
".I c #726a5c",
".J c #8e8e8c",
".K c #222624",
".L c #6a6a64",
".M c #3a362c",
".N c #5a5244",
".O c #967e54",
".P c #121614",
".Q c #cec2ac",
".R c #e6e6e4",
".S c #424644",
".T c #d6dad4",
".U c #868684",
".V c #a6a6a4",
".W c #5a4e3c",
".X c #babebc",
".Y c #626264",
".Z c #c6c2c4",
".0 c #5a5a5c",
".1 c #424244",
".2 c #b6b6b4",
".3 c #a2a2a4",
".4 c #b6ae9c",
".5 c #7e7664",
".6 c #8a8684",
".7 c #a68e5c",
".8 c #7a7e7c",
".9 c #4a4e4c",
"#. c #8e928c",
"## c #666e6c",
"#a c #927a54",
"#b c #625a4c",
"#c c #969694",
"#d c #767e7c",
"#e c #968a74",
"#f c #e2e2e4",
"#g c #3e423c",
"#h c #d6d6d4",
"#i c #525654",
"#j c #6e7674",
"#k c #9e9e9c",
"#l c #4e4634",
"#m c #bebebc",
"#n c #3a3a34",
"#o c #9e8254",
"#p c #0e120c",
"#q c #828a86",
"#r c #464e4c",
"#s c #c2c6c4",
"#t c #666a6b",
"#u c #2e3233",
"#v c #767a7b",
"#w c #9e8654",
"#x c #8a928f",
"#y c #d2d6d4",
"#z c #222224",
"#A c #6e624c",
"#B c #363a3b",
"#C c #727674",
"#D c #7e8283",
"#E c #4e5654",
"#F c #cacecc",
"#G c #6e7272",
"#H c #827e7c",
"#I c #6a6654",
"#J c #5e6664",
"#K c #726e68",
"#L c #262a2a",
"#M c #6a6e6c",
"#N c #9a9694",
"#O c #968258",
"#P c #1a1a1c",
"#Q c #363224",
"#R c #a6aaac",
"#S c #ae9e84",
"#T c #cabea4",
"#U c #aeaeac",
"#V c #8a764c",
"#W c #caba9c",
"#X c #96928c",
"#Y c #eaeaec",
"#Z c #a2926c",
"#0 c #ae9664",
"#1 c #6a6254",
"#2 c #aaa294",
"#3 c #b2aa9c",
"#4 c #7e6e54",
"#5 c #2a2a2c",
"#6 c #827654",
"#7 c #1e2224",
"#8 c #8e8a7c",
"#9 c #161a1c",
"a. c #b6babc",
"a# c #9a9a9c",
"aa c #aeb2b4",
"ab c #a2aaa4",
"ac c #929a94",
"ad c #b2bab4",
"ae c #9aa29c",
"af c #aab2ac",
"ag c #d2c6ac",
"ah c #5a5e5c",
"ai c #62563c",
"aj c #868a8b",
"ak c #cececc",
"al c #8a8a8b",
"am c #969a9c",
"an c #9ea2a4",
"ao c #9e8a5c",
"ap c #828282",
"aq c #c6c6c4",
"ar c #525254",
"as c #7a7a7c",
"at c #4a4a4c",
"au c #524e44",
"av c #7a7674",
"aw c #323234",
"ax c #5e564c",
"ay c #464a4c",
"az c #c2c2c4",
"aA c #565a5a",
"aB c #564a37",
"aC c #3e3e3b",
"aD c #d2d2d4",
"aE c #6e5e40",
"aF c #565244",
"aG c #76726c",
"aH c #4e5251",
"aI c #cacacc",
"aJ c #666664",
"aK c #4e4a3c",
"aL c #5e6263",
"aM c #3e3624",
"aN c #5e523c",
"aO c #eae6dc",
"aP c #dadadc",
"aQ c #66625c",
"aR c #7e7e7b",
"aS c #4e4e4c",
"aT c #929294",
"aU c #665a44",
"aV c #e6e2dc",
"aW c #524634",
"aX c #3e3a34",
"aY c #121214",
"aZ c #766e64",
"a0 c #9a8254",
"a1 c #aaaaac",
"a2 c #b29e7c",
"a3 c #9a9284",
"a4 c #9e9a94",
"a5 c #828684",
"a6 c #a2a6a4",
"a7 c #929694",
"a8 c #2e2e2c",
"a9 c #dededc",
"b. c #b2b6b4",
"b# c #8a8e8c",
"ba c #1e1e1c",
"bb c #363634",
"bc c #9a9e9c",
"bd c #7a6644",
"be c #aaaeac",
"bf c #928e8c",
"bg c #262624",
"bh c #161614",
"bi c #362e24",
"bj c #464644",
"bk c #565654",
"bl c #767674",
"bm c #6e6e6c",
"bn c #f2f2f4",
"bo c #bababc",
"bp c #b2b2b4",
"bq c #5e5e5c",
"br c #bec2c4",
"bs c #626a6c",
"bt c #62523c",
"bu c #727a7c",
"bv c #968664",
"bw c #ced2d4",
"bx c #7a8284",
"by c #c6cacc",
"bz c #6a7274",
"bA c #4e4234",
"bB c #c2b69c",
"bC c #6a6a6c",
"bD c #d6dadc",
"bE c #a68a5c",
"bF c #564e3c",
"bG c #7e6a4c",
"bH c #8e9294",
"bI c #3e4244",
"bJ c #4e463c",
"bK c #3a3a3c",
/* pixels */
".wby.X.X.X.X.X.Xboboa.a..X.X.X.Xbr#m.X.X#m.X.X.X.Xbrbrazbr.Xa.b.adb.b.b.a..Xbrbr#s#s#s.Xb.bobebe",
"bobn#YaDbwbwaD#F.p#y#y#yaDaD#y#h#ybD#h#hbD#h#ya9#fa9a9.ja9aP#hbD#hbDbDbDaPaPa9a9a9#fa9bDbDa.buaH",
"a.a9#sbea1.Gbeaba6.3.3.dab#R.Gbe#R.G.G.Gaf#UbeaebcbcacbH.e.oa5.#a5.o#x.eambc.da6aeamb#.o.eamaA.9",
"b.bDa6bH.ea7a7.e.e#x#xbHbHa7amamama7ambcbc.ya5a7am.eaT.e#x.obx#ibx#.a7a7bcae#ka5bH.o.o#.an.o#gay",
"b..T.G#..ea7#ca7acaca7a7acamacacacamamamac.e.0a5#c.ebHbH#x.o#t.r.xa7a7am#kanaj.1aL#C#DbHae#q.m.S",
"b.#yaa.e#xacacambcamaca7#cama7a7amaca7a7a7bH#t#d#xa7.e.e.e.obIay.9a7amae.d.d.e.caA#x.ebHa7bx.may",
"ad#yaaambHamacac.y.yac.eacbcama7amama7bH.ebH#Ga7#Da7#x#..e.u.faHaha5amananam.o#q.E#tamambca5aC.9",
"b.bDafbca7a7am#ca#a#a7a7amambcbcam.e.e#x.eac.tbcbcacbHa7bH.Hahar.E.8aeanan#x#q#xa7.Y.gacbc.obI.9",
"aa#hbeaeam#xa7acamama7a7#D#L.f#i#CbH#xbHa7.y#Cbcbcac#x.ebH.S.##Gar.Yan.damaj.oa7aca5bq.o.d#xbIay",
"b.bD.Gana7.o.ea7.yama7am.y#GaSap#C.E#xbH.oaj#G.yama7.e#.#tay.ea7.HaLahana7#q#xamb#aJahaJbeb##BbI",
".n#h.Gaeac.oa7am.yamaca#bc.y.h.0amala5.UaAaL#Mam.8bq##.##B.8#xbH#DaH#iae#xaja7acaL.0#taT.Ga5#B.S",
"b.bD#Rbc#c#xacambc.ya7.yamambH.v#Da7.oa5bm#GamamaH#Law.E.1#q.o#x.e#5.eamaj#q.ea7#v#Gbc.Gan.u#B.9",
"b.bD#Rambca7am.yamama7.ya7bHbHbx.Ka5bH.ea7a7aca7aH#L.r.raL#qb#a7#ibqbH.oa5b#a7acambca6an.e#vbbay",
"b.#h#R.ea7bcacamacbHa7#c.ebHbHbHbCaSap#8apblaG.tbqaSbqapal#XbfapaC#xa5.##q#xbHa7aea6.damaT#C.rbj",
"adbDab#xa7bcambH#x#xbHaT.e#.#.#XbmbgbKbq.Y.EaJbm.tblas#D.Ybj.0aSbC#N.DaNai#IaRa7.da6ae.y.e#j.rbj",
".2#ya6acamanam.o.o.o#x#e#O.AaQ#ibabaa8.0bq.YbCaJbmaGblas.1bg.fatal.3a1a1apbFbF#Kbca#a7.e#xbz.r.a",
"a.bD.Vamae.dam#qaj#8#w#S.t#ibkarbgaYar.0bqbqaJ#t#MbmblasaH#5aw.0a##k.V#Ubp.V#1aB#xa5a5a5.####B.9",
".2#h.damana6a7a5#qao.Var#iaraSbk#ibkbk.0bqbqbqaJaJbm.tblaG#K.0apa##ka1#U.2bo.Xasbm#dbxbxa5bubbaH",
"b.#ya6ambc.d.e#D.z.4aFaSararaSaSarararbk.0bqbqaJbCbm.tbl.8apal.Ja##k.Va1bp.2#mbraG.L.8.##.bx.m.9",
"b.aD.d.yanbc#.aR#WaQarararaSararararbkbkbk.0bq.Y.YbCbmblasapalaT#c#k.V#Ubpbobo#m.2aF#G#Db##d#Bay",
"afak.3bcanam#q.7beararaSaSaSaSaSaSararbk.0.0bq.YaJbCbm.tas#HalaT#c#k.3a1bpbo#maz.Z.JaF.8a5#C.r.S",
"bebwa6.yaebH#HagbmaHaSararaSaSaSararbkbkbk.0bq.YaJbCbmaGas#D.Ual#c#k.Va1bp.2boaz#sb.aKaJaR#M#ubI",
"aabwa6ama7aj.iaObkaraSaSaraSaSaSaSararbkbkas#k.2bo#Uamapblap.6al#Na4.Va1bpbo#maz.ZaqaS.s#v#t#uaC",
".nbwaeaT#x#D.7bnararararaSaraSaSarararaJ.3#mak#hak.Xa1#XasaJ#C.J#c#ka6#3bp.2#mazaqaqaS#l#j.ca8bI",
"bobwacbHaj.8#0bn#KararaSaSaraSarararbq#Na1az#h#Y#hazbe#caRaJar.t#c#k.V#Ubpa.#m#saI.2aSbA#MaL#5.m",
".baDa7b#.8asbEaV#RbkaraSararaSaSarar.ta7a1#mak#haIboa1aTasaJaSat#c#k#Ra1bpbo#m.ZaqalatbJ.Eah#LbK",
".Xbwa7aj#d.ga0.Q.CaQbkarararararbkbk.tal#k#Ubo.Z#m#U.3al.tbqatbba##k.V#Ubpbo#m.Z.2aS.FaK.HaA#L#B",
".X.pbHaj#v.t.5#0#YaqbkarararbkbkarbkaJaRaT.3a1bea1#k.JaRbmbk.1.1a#.3#Ubp.2#mazaqbmat#l.F.0#ibg#B",
".X#F.o#D#v#G.Y#ObB.Rbobkbkbkbk.0bk.0.0bmasalaT#N#calaRbmbq.9bK.t#k.Va1bpbo#maz.taSaKbJay.h#Ebg#B",
"#makaj#D#v#G.E#VbE#T#fak.tbkbkbk.0.0bqbqbCavas.8asblbCbqaS.1bma#.3.V#Ubp.2a1.EaraKaBaWay#iaS#L.r",
".X#Faj#D#v.t.E.7bEbEbBaP#h.VbCbqbqbqbq.Y.EaJaJaJaJbq.0bqbCbH#c#k.Va1bp#UapbkarauaB.kbAbj#E.9bg#B",
"braka5.8#v#GaLbE#V.N.Oa2aIakaI.VaR.Y.YaJaJbCbm.tblasap.6al#Xa#.3.V#Nasbq.0bk.W.k.MaBaC.SaraH#5#B",
".X#Fa5.8#v#GaL#6.lbKaw#V#w#2aqaq#mbo.VaT.UasasblaRap.U.J.JbfalapbmbCaQbqaxaNaBaw#laXbKatbk#i.f.m",
".bbwaj#D#d#G#t#i#4#1aU#a#o#w#o#Z#3bobp#U.V.3#ka##caTb#apapasblbmbCaQ#baibt.WbA#Q#5aw#g.9ah#i#5bb",
"az.pb##D.8#GbCaAayaF#4.O#o.O#VbdbG#abva3#N#N#N#cbfalalaRasaZ.I#AaUaBbi.P#pbhba#z.fawbIay#i.9.Kbb",
".baDb#a5.8#v#MaL.s.S#n#u#5#z#Pbh..bhbi.BbtaEbdbG#4bG#AaEaN#laM#zaY#paYaY#P.q#z#L#u.m.1.9#i.9#L#B",
".b#ybH.o#D#v#GaJ.0.9.1#B#u#5#zbabhaYaYaYbhaY......aY....aYaYaYbhaY#9#P.q#z.K.faw#nbIay#E.HaA.f.m",
"#maDa7al#D#d.t#MbqaAaH.1bKaw.fbg#zbababa#P.q#P#Pbhbh#P#P#P#P#P#Pbaba#zbg#5a8bb.m.SaS#iah#taLa8bI",
"br#y.eb#a5.u#v#j#tbqaA.9bjaC.r.f.f#5#5#5bgbg#z#zbaba#z#z#z.K#zbg#L.fa8#u#BbK.1bjaHaAaLaJ#G#J#ubI",
"#m#ya7b#.U#D.8as.t.caLahaHaybIbKbb.r.rawaw#u#ua8a8a8a8a8a8a8a8#uawbb.m#g.SayaSbkah.Y#t#G#v#Maw.S",
"br#ybH#xb##q.u.8as.t#M#tah#iaHaybj.1.SbIaC.m.m.m#B#B.m.mbK#B.m#g.1.SataSar#iahaL.EbC#C#v.##j.r.a",
"az#ha7bH#xala5#D#D.uas#C#t.YahaA#E#EaH.9aH.9ayaybjayat.Fayayay.9.varaA.0.H.E.E#M#G#C#v#Da5#Cbbbj",
"#s.Ta7aT.eb##q#qb#.oap.8#C#M.E.YaLbqaLbqbqbqaAaA.0#i.haAaA.haA.0ahaL.EaJ#t#G.t#v#d.8a5.obH#d#Bay",
"#sbD.ya7bHb#b#bHa7bH#xa5#v#jbz###t###M#t#Mbz#M#t.EaJaLaL#taJ.E###M#M#j#C#v#v.u#Da5.ob#aT.e.8#Bay",
"#saP.y.e#x#xaTbcbcambHajaRbu#j#G#G#C#v#vblas.8#C.xbm.xbm#vbl.t#C#vas.8bx#Da5ajal.J.ea7#cacbx.m#r",
"aI#Fa7b#b#bH.yanana7bH#q.#.8#d#d#d.8#D#D#Da5a5aR#Cbu#v.g#M##.cbs#M.x#Gbm#G#G#j.g#d.8#d#d#v#M#Bbj",
"brbcaA.r#u.rbK.mbK.rbg.K.K#z#7.K.K.K.Kbg.Kbg.K.K.K#z.K.Kawaw#u#u#u#u#u#u.r.r.r.r.r.r.r.r.r.f#5ay",
"a5.h.vbIayay.v.9#ray#E.9ay.9ayayayay.9.v.v.9aH.v.9.9.9aH#E#ibkaH#i#E#E#EaH#i#i#iaA#i.haA#iaH.Sah"
};
