/* XPM */
static char *capturer_xpm[] = {
/* width height num_colors chars_per_pixel */
"    48    48      249            2",
/* colors */
".. c #2a0204",
".# c #787e7c",
".a c #404444",
".b c #904224",
".c c #946248",
".d c #b5baba",
".e c #b97e65",
".f c #262624",
".g c #b66249",
".h c #5f220c",
".i c #cf9e89",
".j c #616564",
".k c #be8e6c",
".l c #653524",
".m c #915234",
".n c #a87258",
".o c #6a423c",
".p c #ac583f",
".q c #a3623d",
".r c #7c3624",
".s c #d27e63",
".t c #b67250",
".u c #765244",
".v c #a25435",
".w c #a56a52",
".x c #6f3221",
".y c #999e9c",
".z c #7f4329",
".A c #343634",
".B c #d8dad9",
".C c #471306",
".D c #cc765a",
".E c #b68868",
".F c #d8a092",
".G c #d2907e",
".H c #b27e5c",
".I c #dac6bc",
".J c #51221b",
".K c #613a34",
".L c #b16247",
".M c #814b36",
".N c #4e5253",
".O c #602b1a",
".P c #935a42",
".Q c #d18674",
".R c #e3aa90",
".S c #4e1a09",
".T c #c47257",
".U c #c9cccb",
".V c #89908e",
".W c #b96a4b",
".X c #6d7273",
".Y c #a05c3a",
".Z c #5a2a20",
".0 c #b17351",
".1 c #b06c44",
".2 c #904d2a",
".3 c #703b29",
".4 c #6c2e14",
".5 c #613232",
".6 c #905244",
".7 c #a4644d",
".8 c #a9aeac",
".9 c #e89e84",
"#. c #8e4e54",
"## c #c3816f",
"#a c #794b37",
"#b c #ac5e3f",
"#c c #8c3e1e",
"#d c #c3866c",
"#e c #be6a51",
"#f c #9a4a30",
"#g c #976b61",
"#h c #c59687",
"#i c #dc886f",
"#j c #874221",
"#k c #884a37",
"#l c #565a5b",
"#m c #561a0c",
"#n c #9f5b47",
"#o c #818885",
"#p c #52423c",
"#q c #7a6a64",
"#r c #7b3e29",
"#s c #a56d5f",
"#t c #400208",
"#u c #9d6349",
"#v c #c1c5c4",
"#w c #985536",
"#x c #d97e64",
"#y c #b97a5a",
"#z c #593334",
"#A c #521404",
"#B c #582211",
"#C c #602c24",
"#D c #c47a69",
"#E c #b27a5e",
"#F c #904d37",
"#G c #713b37",
"#H c #69342d",
"#I c #484c4c",
"#J c #b88278",
"#K c #8a5d59",
"#L c #a1a7a4",
"#M c #eaeaec",
"#N c #d57a5c",
"#O c #dca68e",
"#P c #d0d3d3",
"#Q c #de9688",
"#R c #686c6b",
"#S c #784336",
"#T c #b2583e",
"#U c #aa6442",
"#V c #bc8878",
"#W c #683a2c",
"#X c #b16648",
"#Y c #d6876f",
"#Z c #efaa91",
"#0 c #a65c3b",
"#1 c #542d2f",
"#2 c #af7560",
"#3 c #be7f69",
"#4 c #cd9179",
"#5 c #a87a70",
"#6 c #383b3b",
"#7 c #e0e2e4",
"#8 c #969a9c",
"#9 c #fed2c4",
"a. c #f0bca8",
"a# c #400b06",
"aa c #919794",
"ab c #8a6254",
"ac c #84564c",
"ad c #757a79",
"ae c #eca68c",
"af c #fac2b4",
"ag c #b2b6b4",
"ah c #b28674",
"ai c #6a2614",
"aj c #6e3634",
"ak c #2c2e2c",
"al c #eef2f4",
"am c #624234",
"an c #6b2e27",
"ao c #9a564c",
"ap c #cc9684",
"aq c #480e08",
"ar c #5f261f",
"as c #babdbc",
"at c #e19f8c",
"au c #535654",
"av c #5a5e5c",
"aw c #efa184",
"ax c #a27668",
"ay c #6c4448",
"az c #b7755f",
"aA c #4e121c",
"aB c #955a4f",
"aC c #521d16",
"aD c #754b47",
"aE c #d29694",
"aF c #521618",
"aG c #c68e72",
"aH c #6a321f",
"aI c #76361c",
"aJ c #722a0c",
"aK c #ca8068",
"aL c #ca8a70",
"aM c #8a524c",
"aN c #cf816d",
"aO c #7f4535",
"aP c #b86d57",
"aQ c #b06c59",
"aR c #87452e",
"aS c #9d6556",
"aT c #5a251d",
"aU c #673b3e",
"aV c #340204",
"aW c #90625c",
"aX c #ac7e70",
"aY c #7e8283",
"aZ c #724337",
"a0 c #7e5648",
"a1 c #a6563c",
"a2 c #9ea2a4",
"a3 c #dededc",
"a4 c #4e1506",
"a5 c #be896a",
"a6 c #da907c",
"a7 c #662a14",
"a8 c #9a5d41",
"a9 c #eaae90",
"b. c #cececc",
"b# c #8e9294",
"ba c #727674",
"bb c #964b2c",
"bc c #be5a3c",
"bd c #aa6450",
"be c #aeb2b3",
"bf c #868a8c",
"bg c #aa6d5c",
"bh c #c6c6c4",
"bi c #662c28",
"bj c #964e3c",
"bk c #763e36",
"bl c #4e4e4c",
"bm c #a6aaac",
"bn c #d6d6d4",
"bo c #5a2d2f",
"bp c #3e3e3c",
"bq c #aa7364",
"br c #724644",
"bs c #be725c",
"bt c #7a4e4c",
"bu c #464644",
"bv c #666664",
"bw c #5a1604",
"bx c #e6e6e4",
"by c #ba8264",
"bz c #5e2614",
"bA c #91563b",
"bB c #a66643",
"bC c #7c3a22",
"bD c #6f362c",
"bE c #cc7a5e",
"bF c #5e3e3c",
"bG c #d08a79",
"bH c #c27660",
"bI c #613634",
"bJ c #8f564e",
"bK c #bf6e52",
"bL c #9e4e38",
"bM c #874e3a",
"bN c #571e0c",
"bO c #d8826c",
"bP c #e09a82",
"bQ c #ce9a8c",
"bR c #aa6a4c",
"bS c #b25e47",
"bT c #823e24",
"bU c #763644",
"bV c #c6927a",
"bW c #722e1c",
"bX c #8a563c",
"bY c #b87a68",
"bZ c #7a8281",
"b0 c #272a2a",
"b1 c #b76648",
"b2 c #d2a28c",
/* pixels */
".U.Uasasasasasas.d.d.d.dasasasas#vasasasasasasasas#vas#v#vas.dag.dagagag.das#vas#v#v#vasag.d.8.8",
".dal#Mbn#P#P#Pb.#Pbnbnbnbn#Pbnbnbnbnbn.B.Bbnbn#7#7a3#7.B.B.Bbn.Bbn.B.B.B.B.Ba3#7a3#7a3.B.B.dad.N",
".da3#v.8bm.8.8bm#La2a2a2bmbm.8.8.8.8bm.8bebe.8a2.y.y#8aaaa.V#obZ#o.Vb#aa#8.ya2#La2#8.V.Vb##8#lbl",
"ag.B#Lb#aaaaaab#aa.V.Vaab#aa#8aa#8aa.y.y.y#8aaaa#8aab#b#.V.V#o#o.Vb#aaaa.y.y#L#8b#.Vbf.Va2.V.a#I",
"agbn.8b#b#aa#8aa#8aaaaaaaa#8#8aa#8aa#8#8aaaaaaaaaaaaaab#b#.V#o#ob#aaaa#8a2a2.y.V#o.Vaa#8a2#obp.a",
"ag.B.8aa.V#8#8.y.y.yaaaaaa#8aaaa#8#8aa#8aab#b#aa#8aa.Vaa.V.V#o.Vaaaaaa.y#La2aa#o.Vaa#8.y#8#o#6#I",
"ag.Bbe.y.V#8.y#L.y#8b#b#aaaaaab#aaaa.V.V.V.Vb##8#8aa.V.Vb#bf#o.Vb#aa#8.ya2aa.V#oaa.y#8#8.y#obp#I",
"agbn.8.yaaa2bma2#8bf.#.#.#bZaYbZ.#.#ad.#.##o#obfbfaY.#bZbZbZbZaY#obf.Vb#b##o.##ob#aa#8aa.ybf.a.N",
"ag.B.8#L#8.ybm#8.#.jauavbv.j.jbv.j.jav.j.jbv#R#R#R#R.j.j.j#R#R#R#R.Xadad.X.j.jad.Vaaaa#8#L.Vbp#I",
"be.B.8a2.y.y.y#o#l.A#6bu#Ibl#I#Ibubu.abu#I#Iblblbl#I#I#I#I#Iblbl.Nau#l#lbl.a#I.jaY.V.y#L.8.V#6.a",
"bebnbm.y.y#8b#babu#p.eawawawaw.9.9bPbP#QaLapbV#d.H#2.w.c#KbX.MbM.m.m.2.2#jbCam#qaa#8#Lbe.8#o.Abu",
".d.Bbm.y#8b#.V#Rbu#dawae#Z#O#O#O#O.Fb2ap#VaX#5.n#gaba0#aaOaO.Mbk.3#rbkaHbNbNa7#aasbm.8bma2.##6#I",
"ag.B.8aa.yb#aY#R#I#Z#Z#Za9.Rat.ib2bQ#h#J#gaWaba0aDaD.ua0#WbkaZbkaHaT.O.O.Sa4bNaH.Uagbma2aaad#6#I",
".d#Pbmaa#8#8.#.jbl#Zae.R#Ob2b2ap#Vax#g#Kbrbrayam.K#zbFam.K#W#G.l.Z.Sa4.O.S.C.C#B.U.d#L.yaa.#akbu",
".d.B#L.Vaa#8aY.j#Iatat.F.ibVahaxaWbtaUaUaUaUbIbI#z#1#1bo.Z.Z#C.Z.JaC.S.Z.J.Ca#.S#Pasa2.yaaad.Abu",
".dbnbmaa#8.ybZavbuap.G#4.E#5#K.obI.5.5bo.5#z#1#1#1#z#z#z.JaC.S.S.Jbo.l.Z.O.Sa#.C#P.d.y#8.V.X.A#I",
".dbn#L#8a2a2aYavbuby#3#JaSacaZaH.Z.5bI.5aT.JaC.J#1bI.K.laTaTaCbNaH.z.z.3.3bza4.C.U.8.V.V#o.X#6.N",
"ag.B#L.ya2a2aYav#IazbgbB#Sbk.3#HbDajaj.5aT.J.ZaHaZ#a#a#abM#kaO#kbA.P.PbM.2.z.4bN#v#L.Vbf.V.##6.N",
"agbn#L.y#L#L#o#l#IbR#uaBaObkbDaHanbiaiaraO.MbMaM.P#u.n.H#yazazazaz#U.q.q.Y.m#caJas#Laaaaaa#obp.N",
"ag#P#La2#L.y.#av#I#X.p.YbTbWbC#raI.z#u.wbY.E#E.H.k.k.Ea5aGaG#d#y.t.0.1.q.q.qa8.2as.8aaaaa2bZ.a#I",
"be#P#La2bma2ad#l#I#U.Y#waR#jaR.maQbY.eby#yaL.k.kbVa5.E#d.e.e#y.0.0.0.0bBbB.q.Y.m#v.8aaaa.ybZ#6#I",
"be#Pbma2bm#8ba#l#I#U.vbbbjbBbBbd#y#yaQ.e#Ea5aGaGaG.Eax#2.n#2.n#sbR#sbRbBbRbB.qbA#vbe.yaa#8.##6#I",
"be#Pbma2a2aa.Xavbl#U#0#w.Y.tazbRbBa8bAa8#s#sbq#s.waSaBaBbJbJbJac.6bA.P.P#u.Y.Y.Y.Uag.yaa#8.##6bu",
".dbn#La2.y.Vbaavbl#X#0a1.1.LbB.Y.2bAaMaO#SaHbkbkanaTaAarbiar#BaraHajaO#k#F.6bA#n.Ube.y#8#8bZ.A#I",
"#v.B.y.y#8.V.#.j.N#X#U#0.q.Y.Y.mbC.MbAaOa4a#.5#GaFaV..aq#HbN.Caq#AaFbzanbCaR#Fao.Ube.y#8.ybZ#6bu",
"#v.Ba2.yaaaabZ#Rau#b.v#0.v.Y.Y#j#r.P#E#JaOaCanajaF#taA#.#sbMai.S#AaqaqbwbW.r#F#0b..d.yaa#8bZ.A#I",
"#v.B.y.y.VaaaY#Rau#0.v.v.p#0#j.x.qbQa.#9#V.Za#aV..#tbUaE.R.H.MaHbzbw#A#maJ.rbj.Lb..da2#8#8bZ#6#I",
"#v.B.y#8aaaa#o#Rau.v.p.1#3#nbT.mbY.Fa.afaSbMan.hai.rbj#0a1bL#f.b#c#c#c#c.p.p#b#Ub.ag.y#8#8.#.A#I",
"#v.B#8aaaab##o#Rau.Y#XbsaQaoaR#.#n.7.w#s.e#2bgbgbdaobjbj.vbb#f#f#fbL.v.v#b#bbS.L#P.da2#8.ybZ#6#I",
"#v.B#8aaaa#8bf#R#l#bb1bsaPbd.7bRbq#s#sbq#J#4#Za9bP#DbdbL.vbLbL.va1.p.L.L#Xb1.L.L.U.d.y.y#8bZ.A#I",
"#v.Baaaa#8#8.V#Rau#TbS.L.QbG.G.GaL#3aK#d#3.Q#Qata6aNbHaPb1.gbSbS.L.gb1b1.W.Wb1b1#Pasa2.y#8bZ#6#I",
".U.Baab#aaaabf.X.N.p.p.p##.Q#Q#QbGbHaQbdbdaQaQaPbHbH#DbE.WbK.W.W#e.WbKbK.T.TbK.W#Pas#L.y.ybZbp.N",
"#v.Baaaa#8aabf.Xau.v#TbSbdaP#D.Q.QbHbsaPbd.Lbd#bbdaPbs.T#e.T.T.T.T.T.DbE.D.D.TbKbn#v#L#La2#obp.N",
".U.Baaaa#8aa.V.X.N#TbS.gaPbKbH##aN.QaN#D.TbsbKaPbsbHbH.T#D.D.s.s#N.s.s.sbHbE.D.Tb.#v.8a2a2#o#6bu",
"bh.Baaaa#8aabf.X.N#T.pbSaQb1aPbHaNbG#iaNbO.QaN.D.DaN.Q#Y#i#i#i#Y.sbEbE.D.DbE.D.D#P.d#Laa.Vba.A.a",
".U.B#8aaaaaabfbaaubc#T#TbKaPaP#ebsbEaN#Y#i#i#i#i#i#ibObO#x#N#N#N#N#N#N#N#N.D.D.D#P.d#8.V#oba.Abu",
"bh.B.y#8aaaab#adau#T#T#T.gb1#ebKbsbE#NaNbO#i#i#ibObO#x#x#x#x#x#N#N#N#N.D#NbE.DaK.B.d.y.V.Vad#6#I",
"#va3.y#8aaaab#bf.X#qaQbcbSbS#e.T.D.DbE.D#x#N#N#N#x#x#x#x#x#x#x#x#x#x#N#x#N#N#d.I#7#va2aab#.##6#I",
"#v.B#8aaaaaaaaaabf#obmbhb.bhbh#v#v#v.Ub.b.b.b..U.U.Ub.b.#Pb..U#P.U#Pb.#P#P.B#7bxa3as#Laaaa.##6#I",
"#v.B.yaab#b#aa.y#8b#a2.8.8.8#La2a2a2#Lbm.8.8.8.8bm.8ag.dbe.8.8beagbeagag.dasbh#vas.8#8aaaabZ#6#I",
"#v.B#8#8aaaab#aa.y#8a2#L#8aaaaaaaab#aaaa#8#8#8#8aa#8.ya2.yb#aaaa#8#8.y.y.ya2#Lbm#L.y#8aa#8bZ#6bl",
"#v.B#8aa#8aaaa#8#8a2#La2.yaaaab#b#aa#8aa#8#8b#aa#8aa#8#8aa.V.Vaa.Vaaaa#8aaaa#8#8aaaaaa#8#8bZ#6#I",
"#v.B#8#8#8aab##8a2a2#La2.yaaaab#aab##8#8.y.y#8aa#8#8aaaa#8aa.Vaab#aaaaaaaaaaaa#8aaaa#8.y.ybZ#6#I",
"bh.B#8aaaab#aa.y#Lbm#L.yaab#.V.V.Vb#aaaa#8a2.y#8#8aaaab##8aaaaaaaaaaaaaaaaaa#8#8#8.y.y.y.y#obpbl",
"bha3.yaaaab##8#Lbm#La2#8b#.Vbf#o.Vb#aa#8.ya2a2#8b#b#aaaa.y#8b#aa#8#8#8#8aa#8aa#8.y.ya2.y.ybZ#6#I",
".Ub.aa.Vb#aa.y#L#La2#8b#.Vbf.Vbf.Vb#aa#8#8.ya2.y.Vaab#.VbZ#o.#.#.#aYaY.#bZ.#bZbZ#obZbZbZbZ.X#6#I",
"#v.y#l.A.A.A#6bp#6#6b0b0.f.fb0.fb0b0b0b0akb0b0b0.fb0b0ak.A#6.A.A.A.A.A.A#6.A#6.A#6.A#6.A.Aakb0#I",
"#oaubl.abubl.Nblbl#Iau.N.N.N.N.N.N#l#l#l#lav#l#l#lauau#lavavavav#l#l#lauau#l#l#l#l#l#l#l#laubuav"
};
