/* XPM */
static char *dummy_xpm[] = {
/* width height num_colors chars_per_pixel */
"    48    48      230            2",
/* colors */
".. c #1e1a1c",
".# c #828a88",
".a c #4a524c",
".b c #bec2bc",
".c c #9ea6a4",
".d c #726e5c",
".e c #9e8a7c",
".f c #323634",
".g c #926e67",
".h c #76524c",
".i c #dadedc",
".j c #563a3c",
".k c #aeb6b4",
".l c #a29a84",
".m c #929a94",
".n c #767e7c",
".o c #424644",
".p c #ced2d0",
".q c #968e74",
".r c #b2a68c",
".s c #8a8674",
".t c #5e6264",
".u c #262a2a",
".v c #726654",
".w c #3a3e3c",
".x c #ae9a84",
".y c #7a6e64",
".z c #cecaac",
".A c #9e967c",
".B c #5e564c",
".C c #8a928c",
".D c #525a54",
".E c #c6cacc",
".F c #6e7674",
".G c #eaeae9",
".H c #beba9c",
".I c #a6aeac",
".J c #9ea297",
".K c #b2ae9c",
".L c #9a7e74",
".M c #3a3234",
".N c #8a625c",
".O c #3e362c",
".P c #96766c",
".Q c #868274",
".R c #8a8a7c",
".S c #c6c2a8",
".T c #a6a698",
".U c #524e48",
".V c #929694",
".W c #2e3234",
".X c #aa927e",
".Y c #22221c",
".Z c #525244",
".0 c #865654",
".1 c #464e4c",
".2 c #dadadb",
".3 c #423e34",
".4 c #babebc",
".5 c #2e2a29",
".6 c #926a64",
".7 c #a68a7c",
".8 c #3a3634",
".9 c #9a726c",
"#. c #7e8684",
"## c #f2f2f0",
"#a c #926664",
"#b c #aaa6a4",
"#c c #6a6e6c",
"#d c #927264",
"#e c #e6e6e4",
"#f c #9aa29c",
"#g c #7e7e7c",
"#h c #4a4a48",
"#i c #d6dadc",
"#j c #b2aaac",
"#k c #6a6a64",
"#l c #bab294",
"#m c #8a6660",
"#n c #664e4c",
"#o c #9a9688",
"#p c #2a2224",
"#q c #868e8c",
"#r c #c2c6c4",
"#s c #e2dedc",
"#t c #9a9e9c",
"#u c #d6d6d4",
"#v c #baa694",
"#w c #2a2e2c",
"#x c #7a7664",
"#y c #9e9691",
"#z c #8e9694",
"#A c #5a5a4f",
"#B c #f2eeec",
"#C c #bebebc",
"#D c #9ea2a4",
"#E c #a27e74",
"#F c #c6c2c4",
"#G c #aa9680",
"#H c #525654",
"#I c #865e5c",
"#J c #424238",
"#K c #b6b6b4",
"#L c #868a8c",
"#M c #4e5654",
"#N c #bec2c4",
"#O c #363a3a",
"#P c #966e66",
"#Q c #825a54",
"#R c #5a423c",
"#S c #969e9c",
"#T c #7a8282",
"#U c #464a4b",
"#V c #d2d6d4",
"#W c #968e8c",
"#X c #2a2a27",
"#Y c #82625c",
"#Z c #3e4244",
"#0 c #ae9e84",
"#1 c #cececc",
"#2 c #6e564c",
"#3 c #92827c",
"#4 c #5e4a4c",
"#5 c #a29a9c",
"#6 c #b2aeac",
"#7 c #82827c",
"#8 c #bab2b4",
"#9 c #463a34",
"a. c #5e3e3c",
"a# c #a6927c",
"aa c #c6be9c",
"ab c #827a64",
"ac c #a6867f",
"ad c #b6a28c",
"ae c #767a78",
"af c #565e5c",
"ag c #727a77",
"ah c #eaeeec",
"ai c #3e3a34",
"aj c #222624",
"ak c #8a5a5c",
"al c #a6aaac",
"am c #6a726c",
"an c #aa9e84",
"ao c #e2e2dc",
"ap c #8a8e8c",
"aq c #c6c6c4",
"ar c #b6babc",
"as c #92928c",
"at c #5a4e44",
"au c #aeb2b4",
"av c #1e1e1c",
"aw c #a2aaa4",
"ax c #9e8e7c",
"ay c #cacecc",
"az c #c2be9c",
"aA c #9e8274",
"aB c #9a7a6c",
"aC c #a88e7c",
"aD c #96867c",
"aE c #9e9e9c",
"aF c #86866c",
"aG c #2e2e2c",
"aH c #3a3a3b",
"aI c #7e8284",
"aJ c #828684",
"aK c #4e4e4c",
"aL c #8e5e5c",
"aM c #d6cecc",
"aN c #a28274",
"aO c #b2a29c",
"aP c #424244",
"aQ c #9a9694",
"aR c #4e5253",
"aS c #c2c2b4",
"aT c #969a9c",
"aU c #d2d2d4",
"aV c #b6a68e",
"aW c #626260",
"aX c #3e3e3b",
"aY c #8e9294",
"aZ c #565a5c",
"a0 c #a2a29c",
"a1 c #8e6262",
"a2 c #8e8a74",
"a3 c #969690",
"a4 c #32322c",
"a5 c #dedadc",
"a6 c #bab69c",
"a7 c #96726c",
"a8 c #aa9a84",
"a9 c #8e6664",
"b. c #ae9684",
"b# c #565651",
"ba c #46423c",
"bb c #b29e8c",
"bc c #aaaaac",
"bd c #6e7272",
"be c #e6e2e4",
"bf c #969284",
"bg c #a2a6a4",
"bh c #a28a7c",
"bi c #363634",
"bj c #dededc",
"bk c #b2b6b4",
"bl c #7a7e7c",
"bm c #464644",
"bn c #b29a84",
"bo c #cacacc",
"bp c #727674",
"bq c #aaaeac",
"br c #9e7e74",
"bs c #9a766c",
"bt c #4a4e4c",
"bu c #a28674",
"bv c #b2a28c",
"bw c #aa8a7c",
"bx c #6a4e4c",
"by c #2e2224",
"bz c #626664",
"bA c #c2bebc",
"bB c #a2a2a4",
"bC c #8a5e5c",
"bD c #c2c2c4",
"bE c #825254",
"bF c #eeeeec",
"bG c #423a34",
"bH c #262624",
"bI c #bababc",
"bJ c #b2b2b4",
/* pixels */
"#r#rbIarararbIararar#K#Karararar.4.4bIbI.4ararbIbI.4.4#C#CbIbk.kbkauau.kbkar.4.4.b#N#Narauaralal",
"#Kah#e.p#1#1ayboboay.p.p.p.p.paUaU.p.p#VaUaUaU.i.ia5a5#i#i#i#VaU.p#V#V#u#u.2.2a5.2bj.2#V#VbkagaR",
"#K.i#Calawalawawbg#f#f#D#Dbgawalalawawawbq.Ial#t#S.m.V.C#q.##.aI#.#L#qaY.VaT#f#D#t.V#q.#ap.V.D#U",
"bk.p.c.CaY#z.VapapapapapaY.VaT.V.V.Va3aT.m.V#z.V#zaY.Capap#L#.#.#L.CaY#z.m#t#t.m.C.##L.C.J#q.w#U",
"bkaUawap.CaY.V#z#z#zaYaY#z.V#z#z#z#z.maT.maY.Cas.VaYaY.C#q#L#.#..C.CaYa3#t#faT#LaJ.#aY.V#taJ.w.o",
"au#Vbq#z#q.V.V.VaT.V#z#zas.m.Vas.V.V.V#zaY.C.C#z.maY.C.C.C.#aJ#qapaY.V#S#faE.C.##q.V.V.m.maIaH.o",
"auaU.I.V.C#z.m.VaTaTas#zaY.m.m.V.V.VaY.Capap.VaTaTaYapaY.C#q.#.C.V.VaT#t#D.V.##.aYaT.V.V#S#.aX.1",
".k#Vbc#taY.V.V.V.m.m#zaYaTaTaTaT.maYapapaY.V.VaT#S.V.C.C.C#L#qaYaY.V#S#f#f.C#..C#z.m.V.VaT.#.w#h",
"au#Val#t#zapaY.Va3.VaYaYaTaTaTa3#zaY#q.C.V.maTaTaT#zapap.Cap.C#z#za3aE#t.V#L.#.V.V.V.V.V#Dap.w.o",
"bq#Vaw#f.V.#aYaY.m.V#z.maT#SaT.m.V.CaYaY.VaT.m.V.maY.C.C.C#qapaYaYaT#D#faY#.#q.VaY#z.m.cal#q#O#Z",
"auaUbgaT#z.#aY.VaT.VaY.maTaTaT.V.m#z#z#z.Vbd#haXbz#L#q.##q#q#q.C#z#S#D#tap.#aY.V.VaTbB.Ial#.biaP",
"au#VawaT.V.C.V.m#S.V.VaTaT.m.V.Va3aYaY.V.F#X#X.Z.da3apaJ#camaJapaT#Dbg.m.##L#z.V.V#t.Ial#tbl#O.1",
"auaUal.V.m#z.VaTaT.V.V.m.VaYaY#z.V#zaYa3aRbH.sazaz.H#S.t#XaHae.V#D.c#t.C#.ap#z.VaT#tbg#t.Cag.fbm",
".k#VbgaYaYaT.V.V.VaYaY.V#z#z#z.VaTaY#z.VaP.3aaaa.HazaEaR#XaFa6arbg#tapaJ.##z.V.V#t.c#f#SaYbp.f.o",
"bk#V.c.CaY#S.maY.C.C.V.V.VaY.VaT#t.V#z.V.t#Aazazaz.S.J.Z.Uaa.zaS.JaY#q#qaY.V.m#Sbg#b#t#t#z.F.f.o",
"bJ.pbgaY.maEaT#q#q.CaY.V.V.maT#D#f.VaY.Vap.R.Haz.S##a0b#.d.zbj#e#z.##q.V#t#SaTbgbg#D.m.V.C#c.f#U",
"#K.pbg.V#D#DaT.##LaYaY.V.VaT#fbB#D.m#zaTaT.V.T.K#uah.C#q.H.Sbe#t.#.##z#Dbg.c#D.caTaY#q.#aJ#c.fbt",
"bk#VbgaT#taw.m.#.C.CaYaTaT#t#D#DaT.V.V#z#zblbd#q.VaY.#apa0bc.JaW#A#LaTbgawaT.m.V#q#..#aJ#q.naH.a",
"au.p.caT#tbgaTaJ#qaY.C.m#SaT#S#S.VaY.VaJ.ZaG.5.3#U#Aae.CaTbpa4baa2.T#fbg#t#q#qaJ#..##q#q.V#.aXbt",
".kaybg#S.cbg.V#..##qaYaTaT#S#f#taT.Vap#H.Yaiab.Aa8.q#x#g.V#cai.A#laqaTaE.VaJ.#.#aJ#qaY.V#S#..w.1",
"bqbobg#tbg#DaY#T.##qaY.maT#t#f#f#S#zaI.MbGaxbvaVbvbvbv.l#oaT#oaV#sbF#f#tapblaI.##L.C#zaY.VblaH#U",
"bqaybg#D.c#S.#aI#L.C#zaT#D#t#D#DaTa3bl.f.v.x#0#0#0an#0bv.ra0aT.VauaT.c#S#q#T#q.CaYaYaY.V.V.n.f.o",
"auaybg#t#D#z#.#.apaY.V.m#t#t#D#DaT.V#7#J.y#G#Ga8#Ga8#0bb#v.raYbdaKb#aY.V#..#aY#z#z.V#z#z.Vbl#O.o",
"bk#V.c#taTaY#..#aY.VaTaT#t#t#t#t.map#q#k.yaCax.X#G#G.xbbbvadaY#h.YataO#z#.ap#z.V.V#z.V.V.m#T#Obm",
"bIaU#S#SaT#z#q#qaY.VaT#S#t#f#f#t#z#q.##..Q.ebhbhaCa#b.bnbn.xasbd.B#v#F#D.#aY.V.V.VaY.V.V.Vbl#Obm",
"#N#V#taTaYaYap.C.V.maTaTaT#t#D#f.V.#aJaJaIa2aD.eaCaC#Gb.b..Xbfa3#oaO#B#b#q#z#z.V.V.V.V.V.Vae#O.o",
"#N#V#t.maY.VaY.C.VaTaT.maT#D#D#SaY#q.#.#.##q.t.vaCaC.XaCbh.7aQaT#faw#t#q.C.V#z#z.V#z.VaT.mag#Obm",
"#C#uaT.V.C.m#zaY.V.maTaT#t#t#taT#q.#aJ#.#LaYaH.OacbwbwbububhaE#t#D.c#taYaYaY.V.V.V.V.V.V.Vbl#O#U",
"#N#V.V.VaY.VaY.C.V.maTaT.m#SaTaTap.#aJ.#.C.V.8.OacaNbr.LaAac#j#f#D#D.V.V#zaYaY#z#z#z#zaTaT.n#O#U",
"#N#i.VaY.VaTaT.V.V.V.V.maTaT#t.V.#.n.FblaIbzav#9#E#EaBaB.L#5auaTa3#z#q.#ap#LaYaYaY.VaY.V.mbl#O.o",
"#C#V#zaY.VaTaTaT.V.maTaT#t#f#t.##h#X.5.8.8.Y#p#2braB#dbsaB#bbJ.maYap.##L.CaY.CaYaY.V.maT.m.n#O#U",
"#N#iaY.C#z.maT.V.VaY.V#S#D#D#zaK..by#Rbx#n#n#Ya7a7.ga7.Pbs#bbc.VaY.CaY#z#z#zaY.C.maT.V.maTblaX.a",
".b#uaYaY.V.V.m#zaYaY.VaT#tbB#L#Xby.h.Na9.6.6.9a7#P.6.6a7.9bAau.V.V.V#z.V.V#z.VaYaT#taT#t#f.#.wbt",
"bD#uaYaY.V.maT.V.C.C.V.m#t.caI.5.j#I.Na1a9.6.6.6.6.6.6.6#6aobc#z.V.V.V.V.VaYaY.VaT#t#D#taE#TaH.o",
"#r#i.V#z.V.V.V.V.Cap.VaT#S#tap.Ma.#QbCaLa1a1#aa9.Na9.6#y#Ba5a3#z.V.V.V.V.V#z#z.V#zaY.VaYapbd.f#Z",
"#N#u.VaY#z.V.maTaY.V.V#S#t#t.VaKa.bE.0#IaLaLbCbCbCa1#8.G.G#SaTaY.V.V#z#z.V.VaY#z.V.C.##.#.am.f.o",
"#N#iaT.V#z.V.VaT.V.maTaT#S#S.V#g#4.h.0#QbCbCbCak#maM#Ba5#SaT.V#z#z#zaY#zaY.V#z#zaYaY#q.#.#bpbibm",
"#N#V#S.VaY.V#zaT.Va3#SaT#taT#zapae.NakakakakaLaQ#sbFbo#SaT#zaYaYaYaYaYaY.V.VaYaY#z#zap.CaY.n#O#U",
"#C#uaT.VaYaY#zaTaT.VaT.Va3.V.C#L.#aJ#3.g#WaQ#ja5.Gbc#SaTaTaY#q.C.CaY.V#z#z.V.V.VaY.VaY#z#z.n#O.o",
"#N#V.VaY.CaYaYaT.m.V#S#S.m.V.C#q#q#q.C.m#S#5bc#N.V#zaT#t.V.C#qapaYaYaY.V.V.V.V.V.V#zaYaY.Vbl#O#U",
"#N#i.maYaY#z.C.VaTaT#t#DaTaYaY.C.CaYaYaY#z#zas.VaYas.m#S#z.##qap.CaYaY.V.V#z.V.VaYaYaYaY.V#T.w#U",
"#C#VaY.V.VaY.C#zaT#t#D#f.m.V#z.CapaY.V#zaTaT.CaY#z#z.Va3aYapap.C.CaY.V.V#zaY#z#z.V.C#z.V.maI#O#U",
"#C#i.V#zaT.Vap#z#t#faE#t.maYap.C.Cap.V#z.m#S#zaYaT.V#zaY#zaY.CaY.CaYaYaYaYaY.V#z.VaY#z.V.m#T.w#U",
"#N#VaT.VaY.C#zaT.cbB.caT.V.C#q.##q.CaYaYa3#t#taT.VaYapaY.m#z#qaYaY#z#z#z.V#z#z.V.VaTaT#SaTaIaH.1",
"bD#uaT#zapap.m#Daw#D#D.V.C.#.#aJ#L.C.V.m.V#t#t.VaY.CaY.CaTaTaYaY.V.V.V.V.V.V.V.maT#t#t#taT#TaH#U",
"#r.E#z#q.CaYaTbg#D#f.V.C#L#L.#.##qap#z#zaT#S#faT#q.CaYapaI#Tag.naeblbl.naeblblblaI#Tbl.n.n#c#O#U",
".4aTb#.W.fbi#O.waH.fbHbHajajajaj.ubH.u.u.u.u.u.uajajaj.u#O#O.f.f#O.f.f.f.f.fbi#Obi.fbi.f.f#w.ubm",
"#.#H.1aP.o.1btbt.1bt#MaRaRaKbt.aaR#H#HaZb#aZaZ#H#HaR#H.Db#aZaZaZ#H#H#H#H#H.DaZ#H.DaZ#HaZ#HaRaPaf"
};
