/* XPM */
static char * picture_xpm[] = {
"24 24 26 1",
" 	c none s mask",
".	c #FFFF00000000",
"X	c #0000FFFF0000",
"o	c #00000000FFFF",
"O	c #000000000000",
"+	c #08200C300820",
"@	c #186118611861",
"#	c #208120812081",
"$	c #208128A22081",
"%	c #28A22CB228A2",
"&	c #38E33CF338E3",
"*	c #410345144103",
"=	c #492449244924",
"-	c #30C230C230C2",
";	c #59655D755965",
":	c #69A669A669A6",
">	c #69A66DB669A6",
",	c #618565956185",
"<	c #79E77DF779E7",
"1	c #8E388E388E38",
"2	c #8E3892488E38",
"3	c #965896589658",
"4	c #AEBAB2CAAEBA",
"5	c #B6DAB6DAB6DA",
"6	c #C71BCB2BC71B",
"7	c #D75CDB6CD75C",
"                        ",
"                        ",
" .......XXXXXXXXooooooo ",
" .......XXXXXXXXooooooo ",
" .......XXXXXXXXooooooo ",
" .......XXOOOOXXooooooo ",
" .......O+@#$#@+ooooooo ",
" ......O@%&*=*&%@oooooo ",
" .....O@-=;:>:;=-@ooooo ",
" ....O+%=,<121<,=%+oooo ",
" ....O@&;<34543<;&@oooo ",
" ....O#*:1467641:*#oooo ",
" ....O$=>257 752>=$oooo ",
" ....O#*:1467641:*#oooo ",
" ....O@&;<34543<;&@oooo ",
" .....+%=,<121<,=%ooooo ",
" ......@-=;:>:;=-oooooo ",
" .......@%&*=*&%ooooooo ",
" .......XX@#$#XXooooooo ",
" .......XXXXXXXXooooooo ",
" .......XXXXXXXXooooooo ",
" .......XXXXXXXXooooooo ",
"                        ",
"                        "};
