/* XPM */
static char *quit_xpm[] = {
/* width height num_colors chars_per_pixel */
"    48    48      248            2",
/* colors */
".. c #060604",
".# c #797e7c",
".a c #404243",
".b c #96ba24",
".c c #7a7273",
".d c #5a625c",
".e c #999e9c",
".f c #425254",
".g c #8a9a3c",
".h c #242624",
".i c #6c7273",
".j c #dedabc",
".k c #353634",
".l c #4a4a82",
".m c #525686",
".n c #a8aeac",
".o c #9a7e6c",
".p c #bebab1",
".q c #6a625c",
".r c #898e8c",
".s c #968e84",
".t c #c7cac9",
".u c #867e7c",
".v c #585652",
".w c #464a4b",
".x c #6a6a9c",
".y c #151614",
".z c #a7a299",
".A c #323674",
".B c #676a61",
".C c #727294",
".D c #919694",
".E c #1a1a64",
".F c #42469c",
".G c #989690",
".H c #2b2e2c",
".I c #eeeadc",
".J c #d6cec4",
".K c #726a69",
".L c #7a7a94",
".M c #b3aea6",
".N c #bec2c2",
".O c #8e8ea4",
".P c #8a8664",
".Q c #5a5a6e",
".R c #4a4a67",
".S c #818684",
".T c #767a7b",
".U c #525272",
".V c #e6e2bc",
".W c #908e88",
".X c #7c7a72",
".Y c #62628c",
".Z c #a0a6a4",
".0 c #5a5a87",
".1 c #595e5c",
".2 c #2a2e64",
".3 c #1e1e1c",
".4 c #6a6a7f",
".5 c #817e7b",
".6 c #74726d",
".7 c #4e4a4c",
".8 c #a7aaaa",
".9 c #9e968c",
"#. c #888682",
"## c #424264",
"#a c #a19e98",
"#b c #e6ded4",
"#c c #3b3e3d",
"#d c #d0d2d3",
"#e c #323694",
"#f c #b3b6b4",
"#g c #8e8680",
"#h c #5f6264",
"#i c #4f5251",
"#j c #22264c",
"#k c #d7dad9",
"#l c #4a4e7e",
"#m c #6e6a6c",
"#n c #4a4ea3",
"#o c #cec6bc",
"#p c #8e8e99",
"#q c #565a5c",
"#r c #a6a2b4",
"#s c #2a2e44",
"#t c #c6c2b9",
"#u c #7a7a7d",
"#v c #5a5aa4",
"#w c #464644",
"#x c #c6beb4",
"#y c #9692b0",
"#z c #4a4e4d",
"#A c #121644",
"#B c #a9a6a3",
"#C c #221e8a",
"#D c #969a9b",
"#E c #d6d6bc",
"#F c #2a2e8c",
"#G c #9e9eb4",
"#H c #626a64",
"#I c #525a54",
"#J c #dedad4",
"#K c #0e0e0c",
"#L c #424645",
"#M c #b5baba",
"#N c #32364c",
"#O c #424694",
"#P c #aeb6b4",
"#Q c #bfbeb8",
"#R c #cecabc",
"#S c #32368c",
"#T c #696e6c",
"#U c #4246b4",
"#V c #323237",
"#W c #b6b2bc",
"#X c #8f928c",
"#Y c #7e8283",
"#Z c #72728c",
"#0 c #868a8b",
"#1 c #9ea2a4",
"#2 c #62667c",
"#3 c #525664",
"#4 c #7a8281",
"#5 c #7b7673",
"#6 c #9a7a6c",
"#7 c #928a88",
"#8 c #86869c",
"#9 c #1a1e4c",
"a. c #a68a84",
"a# c #ae7a6c",
"aa c #22227c",
"ab c #3a3e54",
"ac c #120e2c",
"ad c #5252b4",
"ae c #3a3e99",
"af c #2a2a97",
"ag c #dee2e4",
"ah c #eef2f4",
"ai c #526a64",
"aj c #6a6eb1",
"ak c #8682af",
"al c #2a2e7c",
"am c #8a965c",
"an c #6266ac",
"ao c #aeaea4",
"ap c #2a2a74",
"aq c #4a4654",
"ar c #2a2a55",
"as c #323254",
"at c #32328c",
"au c #e6e2d4",
"av c #5e5e59",
"aw c #d6d6d0",
"ax c #7272a4",
"ay c #5a5a98",
"az c #7a7ab4",
"aA c #2a2a2c",
"aB c #3a3a3c",
"aC c #6e6660",
"aD c #5e5a54",
"aE c #1a1a1c",
"aF c #3a367c",
"aG c #a66e6c",
"aH c #4a4aa1",
"aI c #bab2ac",
"aJ c #323268",
"aK c #bababa",
"aL c #4a468c",
"aM c #3a3a84",
"aN c #4a4ab1",
"aO c #22224c",
"aP c #8a928d",
"aQ c #aeaab4",
"aR c #1a1651",
"aS c #6a6e8c",
"aT c #4a4e6e",
"aU c #525673",
"aV c #626694",
"aW c #6a6e74",
"aX c #8e8a86",
"aY c #c6c6be",
"aZ c #5a5ea8",
"a0 c #12123c",
"a1 c #aeb2b4",
"a2 c #0a0a0c",
"a3 c #262a2a",
"a4 c #6e7674",
"a5 c #363a37",
"a6 c #686660",
"a7 c #97928b",
"a8 c #cacecc",
"a9 c #87827e",
"b. c #5a5a54",
"b# c #161a1c",
"ba c #2e3230",
"bb c #736e69",
"bc c #b2b2ac",
"bd c #c2c6c4",
"be c #828a86",
"bf c #212222",
"bg c #727674",
"bh c #4f4e4a",
"bi c #9f9a91",
"bj c #d2d6d4",
"bk c #626666",
"bl c #525654",
"bm c #dadedc",
"bn c #121214",
"bo c #9aa29c",
"bp c #aab2ac",
"bq c #929a94",
"br c #a2aaa4",
"bs c #4a4e94",
"bt c #3a3e6c",
"bu c #4a524c",
"bv c #827a74",
"bw c #bab6af",
"bx c #827a7c",
"by c #ded6cc",
"bz c #72769c",
"bA c #1a1e6c",
"bB c #d6d2be",
"bC c #5a5e8c",
"bD c #42465c",
"bE c #6e6e6a",
"bF c #8e9294",
"bG c #deded7",
"bH c #cecec4",
"bI c #727684",
"bJ c #5256ac",
"bK c #e6e6dc",
"bL c #7276ac",
"bM c #3a3a79",
"bN c #babebc",
"bO c #4a4a91",
"bP c #7a7e8c",
"bQ c #666a6c",
"bR c #eaeaec",
"bS c #9e9ea4",
"bT c #3a3e4c",
"bU c #dedacc",
"bV c #525694",
"bW c #bebabc",
"bX c #222684",
"bY c #8e8eb4",
"bZ c #5a5a7c",
"b0 c #4a4a74",
"b1 c #62629c",
/* pixels */
".t.tbNbNbNbNbNbNaKaK#M#MbNbNbNbN.N#QbNbN#QbNbNbNbN.N.N.N.NbN#M#f#M#f#f#f#MbN.N.NbdbdbdbN#faK.n.n",
"#MahbR#d#d#d#da8#dbjbj#d#d#dbjbjbj#kbjbj#kbjbjbGagbGbGbG#k#kaw#kbjbj#k#k#k#k#kbGbGagbG#k#k#M.T#i",
"aKbGbd.n.8.n.nbr.Z#1.Z#1.Z.Z.8.8.8.8.8.8.n.n.nbS.e#D.D.DbF.r.S#4bebe.rbF#D.e#1.ZbS#D.r.r.Dbq#q#z",
"#f#k.ZbF.D.D.DbFaPaP.raPbF.D.D.D.D.Dbqbq#D.GbF.D.DbF.r.r.rbe#4.SbeaPaPbF.G.ebo#DaP.r.raPbo.r.a.w",
"#f#k.naPbF.D.D.DbFbFaP.rbFbFaPaPbFaPbF.DbFaP.r.raP.r.r.rbe.S#4#4be.r.r.Dbq#D.D.r.SbeaP#Dbobe#c#L",
"#faw.n.DaPbF.DbF.DbF.r.r.rbF.r#0.r#0#p#0#0.S#8.r.r#0.S.S.S#4.##4#.#0.rbF.Gbq.r.Sbe.D#D#D.e.S#c.w",
"#M#kbp.DaP.D.D#XaP#p#0.S#0#0#0.S#0be.S.S.S.S.S#0.rbe.S#4.S.#.##4#Y.S#0aPbF#0#4#4aP#Dbqbq.e.S#c#z",
"#Pbj.n.ebFaP.r#0#0#0#Y#Y#Y.Sbe.S.S#4.#.T.##4.S#0.SbP.#bP.T.T.TbP#4#Y.S#0#0#4.T.S#p.D.D.D.e.r.a#z",
"#Paw.8.ebF#0#0#..S.#bg.T.#bP.5.Tbga4a4.ibg.T.T.#.#bga4a4.ia4a4bgbg.TbP#YbPa4a4.S.S.rbF#DboaP.a.w",
"#Wbjbr.e#p#4#4#4aw.I.I.I.I.IbKbKauaubGbG#JbU#kawbB.JbH#RbH#oaY#t#x#Q.pbw.M#D.W#u.T#Y.r.e.n.ra5.a",
"#Pbj.Zbq.r#4.5aw.I.I.I.I.IbRbKbKaubGag#Jbyby#kbB#d#d#R#R#oaY#t#x#Q.p.paI.M#B#a#Y#ha4#0#1br.Sa5#L",
"#fbj.Z.D#0#4#4.I.IaK#u#ubxbg#u#5bgbg.4aWbkbk#h.Q.Q.vaU#z.R.R.RbDaq.a#L.a.a#.#a#7.7#h#YbF#D.#a5#z",
"bcaw.ZbF.r.S#4.I.I#uaXaYbi.GaX#ubPbPbI.4#2#2#2aU.U#l.Ub0.R.R.RaqbDaqaq#L.aaBbia7.kbh.i#Ybea4.k.w",
"#f#d#1#0#0.S#u.I.IaX#fau#f#G.C.4#2#2#ZaU.m.mb0bO.l.laLaLaLaLaLb0.R##aqaBaBaBbi.G.h#L#h.T#.a4.k#w",
"#fbjbobe#.be.#.Iah#5#Bbd#p.L.L.C.m.CaQbzaybVbVbVbVae#ObObOaL.l.0.Ra6ababa5.k.G#Xbf#cav.T.S.i.k#L",
"#f#d#1#0.r#0#u.IbK.L#B#faS.Y.xbV.FaLaVaHaLaH#v#vaj#vaH#naNaM#O#O.Y#raUaB#N#V.G#7.3aBblaW#4#H.k.w",
"#f#dbo.rbF.r.#bKbK.T#G#pbz.x.Yay#naHaNaHaN#UaNadbL#rbY#GbYanaNaMaebCbtabasbaa7aXb#.H.w#ha4#H.k#z",
"#f#d.ebFbF#XbPaubKbP#8#paVayaHaHaHaHaNaNaNaNaNaNajak#r.jbd#Bak#naMaM.Aasas#V#XaX.yaA#L.dbg.ia5bu",
"#P#d.eaPbF.r.#au#b#8.O#8akan#n#vaN#UaH.xaNaN#UaNaNaNad#Gbd#d#R#r#v.FaF.2#sar#7#..yaA.a#h#4.##cbu",
"a1a8bobF.D#pbg#bbG.x.L.xay#naH.FaNaNaj#Waj#UaNaN#U#UaN#vbWbBawaQbJ#F#F.Aar#j.W#..ya3#Lbk.#.TbT.7",
".n.t#1.D.D.rbgagbG.4aV#nayaHaHaHaN#UbJajaNaN#UaNaN#UaN#UbW#E.V#W#yaN#Fap.2ar#7#..yaA#L#h.Ta4a5.w",
"aobH#1.D#D#0#T#JbG.C.C#n#v#n#n#UaHaNaN#UaNaZaNaNaNaNaNaNaY.VbK#W#GaebXalaraOaXa9.y.H#w#h.T#T.k#L",
"a1a8#1.D#X#YbQ#Jaw.0aybO#OaLaZaHaHaNaNaNadajadaNaNaNaNaz#EbB.VaY#GaNafbX.A#j#g.5.y.H#w#h.T.i.k#L",
"#f#d.ebF.r#YbQby#kbC.0aH.FaZ#yaZaNaH#UaN#UadaN#U#U#UaN#y.VbB.j.JbYaebXat#8.2a9.5.yaA#L#h.T.ia5#L",
"#Qbj#DbF#0#Ya4bjbB.0.0aL#naH#v.FaNaHaNaNaNadaNaNaN#UbYby.j#E#E.Nakaeaf#nbW.U#.bx.y.H#L#h.T#T.k#w",
".N#d#D#X.S#Y.ibBbB.m.mbOaHaLaHaHaHaHaNaNbLbLbLanajaQ.j.j#R#E#oaQaNafaf#S#8#ja9.#.yaA.w#hbg.ia5#L",
".Nbjbq.r.S#Ybg.J#daU.m.UbVaHbO.FaHaHaNanaQ#y#R.N.J.J#d#R#RaY#razaf#CatbY#R.U.5.Xb#aA#L#h.T#Ta5#L",
".Nbj.DaP#Y.S.T.J#RbZ.UaU.maVaLaLbOaHaLaNakaz#oaY#E.j.VbB#R#raxbJaf#C#Cal.U#A.X#5.y.H#w#hbg.i.k.w",
".NawbF.r.S#Y.T#R#R.Q.Q.UaU.L.maLaL.x.F.FaN.Fb1axazak#ybz.xae#eaf#C#C.E.EaRa0#u.c.y.H#Lbk.T.i.k.w",
"bdbjbF#0.S.S.T#R#R#q#3.U.UaUb0b0.x#W.xaLaeaeaeaMaFaFbMaJapaabAaabA.E.EaRa0ac.c.6bna3#L#hbg.ia5#L",
"bdawbF.r#0.SbP#oaY.v#q#3#3.U#3.Q.UbzbO.lbsbObObO#l.l.Ub0aUaT.U#l#l.l.laTaTac.c.cbna3.a#h.T#Ta5.w",
".N#kaP#0#0#0.##o#t.G#z#z#z#w###zbD##btbtbMaJaJ.2ar#jar#jaO#9#9#9#A#A#Aa0acbk#5.cbn.h.a#h.Ta4a5bu",
".NawbF#0#0.S.Tbc#t#MbwbwaIbcao.M.M#B#B#B.zbS#abSbia7.G.G.WaXaX#pbea9a9.X#5.c.6a6bn.h.aav.#.TaB#z",
".t#kbF.r#0.S.#.B.G.M.M.8.8#B.z#a#aa#a.bi.WaG.o#Xa7aG#6#.#7#Y.ia9am.b.g.cbb.Kav.vbn.h#c#h#ua4a5.w",
"bd#k.D#X.r#0#YbE#qai.Pbi#abibi.9.Da7a7.W.WaX#7#ga9#Ya9a9bxbv#5.X.6.6a6aCb..f.fa2bn.h#c#q.ibQba.a",
"bd#k.DaP.r#0#Y.T#h#iaB.H.3aE.a.abhbb.Kbhb.#5.Xb.aC#5.6.vaDav.7bh....a2a2#Ka2#KbnaEa3#cbl.Bbk#V#L",
"aY#k#D.DaP.r.S.5#T#hbh.a#VaAbh.wav.d#i#iavavblav.B.qblaD#m.Kb..1..#Kbnbn.y.y.yaEbfba#L.1a4.ia5.w",
"bd#k.e.D#p.rbe.S.T#T.d.5.S.s#7.WaXaX#.#.a9#..u.5.5.Xbg#5#5#5.6.Ka6avav.v.3bfbfa3.k#Lbl#T.#.T.k.w",
"bd#k#D.D.r.r.r#0#Y.T#H.r.rbia7.Ga7a7.W.WaX.W#ga9a9.ua9.5.Xbv.T.6.Kbb.vaDa3.H.kaB#wblbkbg#0.#a5.w",
".N#k.e.DbF.W.raPaX.#bg#Hbl#L.ka3.3b#bn.ybnbnbnbnbnbn.ybn.y.y.yaEb#.3.h.H.k#c#L#z.v#Hbg.S.r.#a5.w",
".N#kbq.D.DaP.raP.rbe.5bgav#z.aa5ba.H.h.h.h.hbf.h.h.ha3a3a3.ha3aA.H#VaB.a.w#i#q#h#ma4#Y.r.D#4a5#z",
"bd#k.Dbq.D.DaP.r.D#X.r#Y.i.d.v#z.w#L#w.a.a.a#c#c.a.a.a#w#w.w#w.w.w#z#iblavbk#Ta4.#.S#0aPbq#4aB.w",
"bdbm.D#Dbq.DbF.D.e.e.D.r#Ybg.i.B#H#Hbkbkbk.B#h#h#hbkbkbka6bkbk.Ba6.B#T#Tbg.T#Ybe#0aPbF.D#D.S#c#z",
".N#k.e#D.GbF.D.e#1#1.e.D.r.S.#.T.X.#.#.##Y.S.S.#.5.#.T.T.S.S#4#4.S#Y#Y.S#..r.rbF.D#D.e.e.e.S#c#z",
"bdbm#D.D.DaP.D.Zbr.Z#1.DaPbebe.S.S.r.raP#X#D.GaP#0#0be#0.D.D.r.r.D.D.D.D.Dbq#D#D#D.ebo.e.e#4a5#z",
".ta8bqaPaP.Dbobr.Z#1bq#X.rbebebe.raP.D.Gbq#Dbo#D.raP#XaP#4#Y.#.#.#.#.#.#.#bP.##4.S.S#Y#4.#.i#c.w",
"#Q#G#Iba.k.kaB#c#c.ka3.ha3.h.h.h.h.ha3a3a3a3a3a3a3a3.haAa5.k.k#Na5a5.k.k.ka5a5a5a5.k.k.k.k.Ha3.w",
"be#3#z.a#L#zbu#i#z#zblblbubububu#3#I#I#q#q#q.1#Iblbl#I#I#I.1.1#I#I#I#I#3#I#I#I#q#I#q#I.1#Ibl#w.1"
};
