/* XPM */
static char * tmp_xpm[] = {
"24 24 22 1",
" 	c #FFFFFFFFFFFF",
".	c #000000000000",
"X	c #EFBEF3CEEFBE",
"o	c #E79DE79DE79D",
"O	c #D75CDB6CD75C",
"+	c #CF3CCF3CCF3C",
"@	c #C71BC71BC71B",
"#	c #B6DAB6DAB6DA",
"$	c #AEBAAAAAAEBA",
"%	c #9E799E799E79",
"&	c #8E3892488E38",
"*	c #86178A288617",
"=	c #71C679E771C6",
"-	c #69A66DB669A6",
";	c #618565956185",
":	c #514455555144",
">	c #492449244924",
",	c #38E33CF338E3",
"<	c #30C230C230C2",
"1	c #208128A22081",
"2	c #186118611861",
"3	c #08200C300820",
"                        ",
"                        ",
"         ......         ",
"       XX......XX       ",
"      ooo......ooo      ",
"     OOOO......OOOO     ",
"    +++++......+++++    ",
"   @@@@@@......@@@@@@   ",
"   ######......######   ",
"  $$$$$$$......$$$$$$$  ",
"  %%%%%%%......%%%%%%%  ",
"  &&&&&&&......&&&&&&&  ",
"  *******......*******  ",
"  =======......=======  ",
"  -------......-------  ",
"  ;;;;;;;......;;;;;;;  ",
"   ::::::......::::::   ",
"   >>>>>>......>>>>>>   ",
"    ,,,,,......,,,,,    ",
"     <<<<......<<<<     ",
"      111......111      ",
"       22......22       ",
"         333333         ",
"                        "};
