/* XPM */
static char * logo_xpm[] = {
"182 74 33 1",
" 	c None",
".	c #0D0B48",
"+	c #AB84A8",
"@	c #6F4793",
"#	c #A84AA3",
"$	c #632F8A",
"%	c #E3C1CE",
"&	c #B366A6",
"*	c #C1A2B4",
"=	c #873998",
"-	c #8E689C",
";	c #332375",
">	c #F2E1E2",
",	c #914599",
"'	c #C869B1",
")	c #663A8C",
"!	c #A956A3",
"~	c #D683BA",
"{	c #261B6E",
"]	c #ECD1D6",
"^	c #D8B3C4",
"/	c #493581",
"(	c #B494AF",
"_	c #CA94B0",
":	c #9674A1",
"<	c #88589A",
"[	c #AC78A7",
"}	c #CC75B2",
"|	c #FBECFA",
"1	c #734F93",
"2	c #40257E",
"3	c #BB56AC",
"4	c #D8A8BF",
"                                                 **                                **                                                                                                 ",
"                                              ******                              ****(*                                                                                              ",
"                                             *(***(**                            *(*(*(*(                                                                                             ",
"                                            ((((((((((                          ((((((((((                                                                                            ",
"                                           ((((]|||%^((                        ((^||]^(((((                                                                                           ",
"                                          +(]||||||>-(++                      +(^>|||]|>%*++                                                                                          ",
"                                         ++(^>|||||>/*(++                    ++^>>|||>||^-(++                                                                                         ",
"                                         +++@1>|>>>>*-+++                   +++]>||>>>^1./++                                                                                          ",
"                                         +++:@>>>>>>]/(+++                 :++%]||>>>^(./+++                                                                                          ",
"                                          :::/*]>>>>>-::::                 +:%]|>>>>%(.;:::                                                                                           ",
"                                          :+://]>>>]>^/:+::               ::*%>|>>>%(.{::+                                                                                            ",
"                                          ::::/]]]>>>];(::-              :::%%|>]>*+.{1::                                                                                             ",
"                                           :::/-%>]]]>:<-:-             -:-%%|>>]*+.{1::                                                                                              ",
"                                           --:1/]]>>]>^;----           ---4%|>>]*:.{-:-                                                                                               ",
"                                           ----@%%]]]>^;+---           --+^]|]]*+.{---                                                                                                ",
"                                            -<-/-%]]]]]1--<<          --[^%>>](:.{-<-                                                                                                 ",
"                                            <<-//]]]]]]+;-<-         <<:%%|>^().{-<<                                                                                                  ",
"                                             -<-/(^]]]]*{<<<1       <-:^%|>%+/.;<<<                                                                                                   ",
"                                             1<1/1^%%]%^;:1<1      <1-4%>>^+/./1-1                                                                                                    ",
"                                             1<11/%%%%%]:1<11     1<-4%>]^+/./111                                                                                                     ",
"                                              111;:*%%%%(;1111   11-_%>]_[/./111                                                                                                      ",
"                                              111//*%%%%*;<1@@  11@_4>]_:{.;11                                                                                                        ",
"                                              @111/^^^^^%1@1@@ @@1+_>]_:.{/11                                                                                                         ",
"                                               )@@/1(^^^^(;@@@@@@[~]]+:.{/@@                                                                                                          ",
"                                               )))//*^4^4({@))))-+]%~-{{/))                              )))                                                                          ",
"                                               ))))/4_***(/))))1&^%+-..//@                             /)))/)                                                                         ",
"                                                /))/(____4://)@&[%[<.{/)/                            ))/)/)/))                                                                        ",
"                                                )//;<[____+{)/<[%~1.{//)                            //)/)1<@)//                                                                       ",
"                                                ////;[~[+}+//1!%[1.{///                            ////1!&_&/$//                                                                      ",
"                                                /////_+}[[_-)<%[1.{///                            //),<!^^^+{////                                                                     ",
"                                                2/2/2+&[[&&~)4&@.{/2/                            /2/)&44_'&-./22/                                                                     ",
"                                                 2/2;1<&&:&&[-/.{;/;                            22//)_[&-&1/{/22                                                                      ",
"                                                 ;;;;{!<!-&<,/.{;;2                             ;22/)}<&!-=.{;22                                                                      ",
"                                                 ;22;;!<!<<<@.{/;;                              ;;2/[&<<!<<{;;;;                                                                      ",
"                                                  ;;;;-,,,#,@{;;;                              ;;;;;&,#,,@).;;;                                                                       ",
"                                                  ;;;;1,,,1,1.;;;{                             ;;;/2<,1,,){{;;;                                                                       ",
"                                                  {;{;1,@=@=){;{{{                             {{{2<!)=@,@.{;{{                                                                       ",
"                                                  {{2;!$=)=)=/;{{{                            {{;{;!)=)))).;{{                                                                        ",
"                                                 {{;2,=)$$))=){{{{                            {{{;{=$$=$${.{{{                                                                        ",
"                                                {{;;@=)$=$$$)).{{{.                           {{{;)=$)$$@.{{{{                                                                        ",
"                                               {{{{,$$/)$)$$$){{{{{                           {{{{))$$)$).{{{.                                                                        ",
"                                              {{{;/,$2.{==$$)${{{{{                          {{{{{=$=$$/;.{{{                                                                         ",
"                                             {{{;$,$$..{1$=$==).{{{                         {{{{{;#$)==${{{{{{                                                                        ",
"                                            {{{;;#=/{{{{)$=$$=={{{{.                       {{{;22,==$$),{;2;{{{                                                                       ",
"                .{.{                       .{{;2&=$..{{{;$==$$).{{{{                      {{{2=,!,=$==$#),,,2{{{         {.{.{.{                    .{.{.{              {.{.{         ",
"             {{{{{;{{{{                   {{{22!=).{{{{{{======;{{{{                     {{{{{,/$$===$222/22/{{{{     {{{{{{{{{{{{{{{{{          {{{{{;{{{{{          {{{{{{{{{.      ",
"          {{{{;{{{{;{{;{                  {{22!=${.{{{{{;#$==$=){{{{                      {{{{..{==$=$.......{{{     {{{;;{;{{{{;{;{{{{{       {{{;{{{{;{{{{{      {{{{;;{;{{{{{{     ",
"         {{{{{{;{{{{{{{{{                {{22#,$/.{{{{{{{)$====={{{{{                      {{{{;$=$==${;{{;{{{{    {{{{{{{{{{;{{{{{{{;{{{     {{{{{;{{{{{{;{{{    {{{{{{{{{{{;{{{.    ",
"        {{{{;{22$2$2$2;{;{              {{;2#,$).{{{ {;{{2======.;{;{                      {{;{2!,===$.;{;{;{{    {{{{;;2$2$22$2222$2$;;;{   {{{;;2$2$2$2$22;;{  {{{;{22$2$2$22;;{{   ",
"       {{;{22$=&3###&#$;;{{            {;;2$3=).{{;{ {;{{{======;;{{{                      {;{2;#====={{{;{;{    {;{;22$,'3####32,!!#!={;{{ {;{;2$!!3#####&,;;{;{;{;22$,'###3!#;;{{{  ",
"      {;{2$$!',$)))=,=#2;{{{          {;{2=3=${.{{;  {;;{2!====,={{;{                      {;{2=#====).;{;{;    {{{;2$'3,$)//,$,;3,,,,,{{{;{;{2$='=$)//=$=,=={;{;22$=3'=)))),=,3;;{{{ ",
"     ;{;2$'3#=).....)=,!{2;{{        ;{;223,${.{;;    {;{{====,=,{{;{{                    ;{;;;!#==,${{;{;     {{222$'#=).....2;)#====$.;;;{22$'#=).....{==={.;{22='#,$/.....#=,={;{{ ",
"    {;22$'#==).{{;;;,#=#$;{;{       {{{$$}#$/.;;{     {{;{2==#==={2{;{                    {{;22!=,=#=.{;{2    {{;2$}3#=${.{{;{{;3,,=#$/{{{{22=3#,={.;{{;{.)$.;;2$=3#=$/.{;;;;!,,${;{;;",
"   2{2$=}#==)..;{;{2,,,=){{2{      {;22$'#)=.{;;{     2;{;{##=#,#,{;;{                    2{;2=#=#==,{{;{{   {;22$'#==${.;;;;;2$#=#=#$.{2;;2$'##$/.{;;;{;{.{{{2$!'#==2.{{;{;;3=,$.;2{;",
"  {;2$,'#,==.{;;2;;2##,=$.2;;     {;{2$}#==.{{;{      {{2;;!=#=#=#{{2{;                  {;{223##=#$;.2;;    ;;2$!#,,={.{;{;{;2'##=#=,{{{2$$'#,==.{;;{2;;;;{{2$!3,,=).{{;;{22&=#={{;;;",
" 2;{$$'#,#${.2{2{;223=#={{{;;    ;{;$$}#,={.2{2        {;;{==,,,,,2{;;{                  {2;223=,,#={{{2{   {22$3###=).{2;;;222'=,,#$$.2{2=}#,#).{{;;  2{2{222!##,==.{;;;;;$=3,=={{;;;",
"2;{223#,#=$.;;{2{$$33#==.{2{2   {;2$$}3,=/.{2;         22{;2=##=###{2{2{                 2{2$#3##=#=.2;{2  {22$!3#,=,{{;;{2{2$33#,##=.{;2$'#,,=,{{2;2    2;{$2'#,#${.2{2{2$$}##=;.2{2 ",
";2{2;##,,=.{;2;2$$~3#==.{22{   {2{$$}3,=).{;;          {;2;2######,.2;2{                {2{;23####$).2{2  22{$$'###=2.{2222222'#=#,,,.;2$=3=##=${{2{    {22{$'3=#==.;{222$='3==).{22  ",
"2;2{2###=$.2{2$$$}3=$$..;;{   {2{$$}3#==.{;;2          ;2{2{3#=##=#$2{2;                ;22223=###=.{222 ;{22$'####=.{2{2{;;$,3####=;{{$$'####={.222    ;2{22####=.{;22$$=}#=$).{;{2  ",
"{22{2,##=.{2$$=}}==/..{{22   2{2$$}3#=={{{2{            222{,=#####!{2;2{               {22$'3####,{2{{2 2222=3###=,{;2;22{$$'3####=.{{$&3####,.;{2{    {22$$3###,.22$$,~3=){...22{   ",
"2;222###!2=$='3#)...{;222    22$$33##$;.{22             2{2{2#######;2{2;              {22{23####=).2222 {222!####=;.22{2{$$'!!###=,{22;3####=$.222   ;{22{$'3###,2=$3}##/...{222;    ",
"2{2{2###'#~}3,2..{{2;2{2    2{$$'3##=$.{22              2222;3#####3,{2{2              {22$23####={{{2{22{222'####,.{{2222$,3{=###=2.;$23####,.{{222{222{222&####''~'#={..{22222{     ",
"22222###,=$22..{;2222222   22$$3'3#==.{22{               22{{==#####3{222;             22{$3'#####.;2222222{2#####){222{2$=3$$'###=.;2$33#####{222{2222222{2'####==22;..{2;2222;      ",
"{2222###,{..{{2222$=$$222 2{$$''#3,=.{22;                222;;3######$2{2;            22222'####,,.22$$=22222#####).2222$,},;}3##,,.222&3#####.;22222{$$$222&#####...{{22;$$$=2{2     ",
"22{22#3#3222;;2$$=#}&{{22{2$=''3##={.2;2                 {222{3##3#33!{222;           {2222}##33=2{$=#'${222233##3!{${$$#',.{'#3#={{;$$}##3#!&{222{2$$='#;2{!##3#&{$;222$$=3},{222    ",
"222223#33&===$==3~3,..2222$$'33#3=/.;;2                   222;2##3####{222{           2222;'####32=#~3).{222;3##3#3#$$=#}#.{2}##3#.2==''#3##33'$=$===3',{{2{2,3#33}$$=$==~}3=.{22;    ",
"2222233333'}''}~3#${{2222$=''333==.{222                   ;22;;'#33333=2222           ;222;&#3333}}}#$.{2222{2##3333}'~'#2{;;'#33'2=}}3/,#33#33}'''}3#/..222{##33#3}'''~'#=2.{222     ",
" 222{==,#3333==$$...22222$33333#,.{222                     222{=#3#####{222;           222{{=#333#==2.{22 222{)=#3333#=)..{2{3#333}3==...,=33333#=,);..{2222{{==#3333#=$={..{22;      ",
"  22;{./$$$$$2...{2222 222=/$$$${{222                      222;{$$=2///.222             222{.=$$$$...{22   22;..=$$$$=..{;22;.,$$$=...{2;{2$$$$$${...;222 222{..=$$$$=....;2222       ",
"   222{{......{222222   2{{......222                        222;......{{22               222;.....{;$22     222;......{222222{.....{;2222;{.......222222   2222{{.....{2222222        ",
"    22222222$222$2$2     22$2222222                          222222222222                 22$222222222       22$222222222$ 2$2222222222222222222222$22$     222222222222$22$2         ",
"     222222;2222{2        ;;222222                            2222222222                   2;222;2222         ;2222222222   22222222222 2222222222;222       2222222222{222           ",
"      {{{{{{{{{{           {{{{{{                              {{{{{{{{                     {{{{{{{{           {{{{{{{{{     {{{{{{{{{   {{{{{{{{{{           {{{{{{{{{{{             ",
"        {.{{{                {{{                                {{{                          {.{{{              {{.{{.        {{{{{        .{{{{.               {{{.{{                "};
