/* XPM */
static char * eject_xpm[] = {
"15 16 6 1",
" 	c None",
".	c #949594",
"+	c #000000",
"@	c #FFFFFF",
"#	c #C5C2C5",
"$	c #D5D6D5",
"       .       ",
"      .+@      ",
"     .+#+@     ",
"    .+###+@    ",
"   .+#####+@   ",
"  .+#######+@  ",
" .+#########+@ ",
".+$$$$$$$$$$$$@",
".@@@@@@@@@@@@@@",
"               ",
"...............",
".++++++++++++$@",
".+###########$@",
".+###########$@",
".+$$$$$$$$$$$$@",
".@@@@@@@@@@@@@@"};
