/* XPM */
static char * pause_xpm[] = {
"13 15 6 1",
" 	c None",
".	c #949594",
"+	c #000000",
"@	c #D5D6D5",
"#	c #FFFFFF",
"$	c #C5C2C5",
"...... ......",
".+++@# .+++@#",
".+$$@# .+$$@#",
".+$$@# .+$$@#",
".+$$@# .+$$@#",
".+$$@# .+$$@#",
".+$$@# .+$$@#",
".+$$@# .+$$@#",
".+$$@# .+$$@#",
".+$$@# .+$$@#",
".+$$@# .+$$@#",
".+$$@# .+$$@#",
".+$$@# .+$$@#",
".+@@@# .+@@@#",
".##### .#####"};
