/* XPM */
static char * rw_xpm[] = {
"19 15 6 1",
" 	c None",
".	c #949594",
"+	c #000000",
"@	c #FFFFFF",
"#	c #D5D6D5",
"$	c #C5C2C5",
"       ..        ..",
"      .+@       .+@",
"     .+#@      .+#@",
"    .+$#@     .+$#@",
"   .+$$#@    .+$$#@",
"  .+$$$#@   .+$$$#@",
" .+$$$$#@  .+$$$$#@",
".+$$$$$#@ .+$$$$$#@",
" .+$$$$#@  .+$$$$#@",
"  .+$$$#@   .+$$$#@",
"   .+$$#@    .+$$#@",
"    .+$#@     .+$#@",
"     .+#@      .+#@",
"      .+@       .+@",
"       .@        .@"};
