/* XPM */
static char * eject_xpm[] = {
"32 32 32 1",
" 	c None",
".	c #FFFFFF",
"+	c #080808",
"@	c #101010",
"#	c #181818",
"$	c #212121",
"%	c #292929",
"&	c #393939",
"*	c #424242",
"=	c #4A4A4A",
"-	c #525252",
";	c #5A5A5A",
">	c #636363",
",	c #6B6B6B",
"'	c #737373",
")	c #7B7B7B",
"!	c #848484",
"~	c #8C8C8C",
"{	c #949494",
"]	c #9C9C9C",
"^	c #A5A5A5",
"/	c #ADADAD",
"(	c #B5B5B5",
"_	c #BDBDBD",
":	c #C6C6C6",
"<	c #CECECE",
"[	c #D6D6D6",
"}	c #DEDEDE",
"|	c #E7E7E7",
"1	c #EFEFEF",
"2	c #F7F7F7",
"3	c #000000",
"............2211|}[[<:::___((],-",
".....2222111|||}[<<::_((((///!;=",
"1.2|||}}[[<:__(/^^]{{~~~!!!)!'==",
"111|||}}[[<::_(//^]]]{~~~!!!!)-=",
"|1|||}}}}<<::((~]]^]{]{~~~~!~);-",
"|1||}|}}[<<:_(/$;]]]{{{{{~~~~!;-",
"}||}}}}[[<:__('3#{]{]]]{{{~~~~>;",
"}|}}}}[[<<:_(/$33;]{{]]]]{{{{~>;",
"}|}}[[[<<::((,333#{]]]]^]]]{]{>>",
"[}[[[[<<::_(^$3333>]]]]]^]]]]{,;",
"<[[<<<<::_(/,33333$]]^^]]^]^^{,>",
"<[<<::::_((/#333333,^^^]^^^^^{>;",
":[<::___(((>3333333$^^^^^^^^]~>;",
":<:____(_(^#33333333']^^^^^^]{>;",
":<:_((((((>333333333$^/^//^]^{>;",
"_:_((((((^@3333333333'^^^^^^^~>;",
"_:_(((///-33333333333%/^^^^^]{>;",
"(_(///^^{@333333333333)^^^^]]{>-",
"(_(/^^^]=3333333333333%^^]]]]{>-",
"^(/]]]{)333333333333333'^]]]{~>;",
"^/^{]{{)>>>>>>,,,'')))'{^^]{{~;;",
"]^]{~~~>&&&&**&***======^^]]{!>;",
"]^{~~~!*3333333333333333^^]{{~;-",
"{{~!~!!*333333333333333+^]]]]~;;",
"~{!)!!!*3333333333333333^]]{{~;-",
"~{!))))*+++++++++++++++#]]]{{!>-",
"!~!''))!)!!~~~~~]]////^]]]]{{~>;",
"!~)'))))))!!~~~{]^//^^]]{{{{{!;;",
"!~)'))))!!!~{{{]^//^^^^]{{~{{~;;",
"!'',,''')))!!~~{]^]]]{{~~!!!~)>;",
",;=====----;;>>,,,,,>>>;;;;;;---",
">-****====---;;;>>>;;;--;--==-->"};
