/* XPM */
static char * ff_xpm[] = {
"32 32 31 1",
" 	c None",
".	c #FFFFFF",
"+	c #101010",
"@	c #181818",
"#	c #212121",
"$	c #292929",
"%	c #313131",
"&	c #393939",
"*	c #424242",
"=	c #4A4A4A",
"-	c #525252",
";	c #5A5A5A",
">	c #636363",
",	c #6B6B6B",
"'	c #737373",
")	c #7B7B7B",
"!	c #848484",
"~	c #8C8C8C",
"{	c #949494",
"]	c #9C9C9C",
"^	c #A5A5A5",
"/	c #ADADAD",
"(	c #B5B5B5",
"_	c #BDBDBD",
":	c #C6C6C6",
"<	c #CECECE",
"[	c #D6D6D6",
"}	c #DEDEDE",
"|	c #E7E7E7",
"1	c #EFEFEF",
"2	c #F7F7F7",
"............2211|}[[<:::___((],-",
".....2222111|||}[<<::_((((///!;=",
"1.2|||}}[[<:__(/^^]{{~~~!!!)!'==",
"111|||}}[[<::_(//^]]]{~~~!!!!)-=",
"|1|||}}}}<<::((/^]^]{]{~~~~!~);-",
"|1||}|}}[<<:_(/^^]]]{{{{{~~~~!;-",
"}||}}}}[[<:__//^]]]{]]]{{{~~~~>;",
"}|}}}}[[{{:_(/^]]]{',]]]]{{{{~>;",
"}|}}[[[{##{_(/^]]{'##']^]]]{]{>>",
"[}[[[[{$###!/^]]]'####']^]]]]{,;",
"<[[<<{######)^^]'######']^]^^{,>",
"<[[:</*######']]~&######'^^^^{>;",
":[:::_(*######,]]{&####@#'^]]~>;",
":<:___(/*######)^^]*####@#)^]{>;",
":<:_((((/*#####&^^^]*#@#@@&]^{>;",
"_:_((((((]$#@##$]^//{$#@#@#^^~>;",
"_:_(((//^-@###@*^//^=@##@@&^]{>;",
"(_(///^^=@#@@#$!//^=##@@##!]]{>-",
"(_(/^^]*@@@###)^^]=@@@#@#)]]]{>-",
"^(/]]~*@@#@@#']]{=@@#@@#)^]]{~>;",
"^/^]{-@@@@@$'{{{;@@#@@$!^^]{{~;;",
"]^]{{!%@@@#,~~{{~&@@@#!/^^]]{!>;",
"]^{~~!!%@@>!~~~~{{*@#)^^^^]{{~;-",
"{{~!!~!)&;~!!!!~~]{=)^^/^]]]]~;;",
"~{!)!!!!!!!!!!~~{]^^^^^^^]{]{~;-",
"~{!))))!!!!!~!~~{]^^/^]]]]]{{!>-",
"!~!'')))))!!~~~~{]^//^^]]]]{{~>;",
"!~)')))))!!~~~~{]^/^^^]]{{{{{!;;",
"!~)'))))!)!~{{{]^///^^^]{{~{{~;;",
"!'',,''')))!!~~{]^]]]{{~~!!!~)>;",
",;=====----;;>>,,,,,>>>;;;;;;---",
">-****====---;;;>>>;;;--;--==-->"};
