/* XPM */
static char * next_t_xpm[] = {
"32 32 33 1",
" 	c None",
".	c #FFFFFF",
"+	c #080808",
"@	c #101010",
"#	c #181818",
"$	c #212121",
"%	c #292929",
"&	c #313131",
"*	c #393939",
"=	c #424242",
"-	c #4A4A4A",
";	c #525252",
">	c #5A5A5A",
",	c #636363",
"'	c #6B6B6B",
")	c #737373",
"!	c #7B7B7B",
"~	c #848484",
"{	c #8C8C8C",
"]	c #949494",
"^	c #9C9C9C",
"/	c #A5A5A5",
"(	c #ADADAD",
"_	c #B5B5B5",
":	c #BDBDBD",
"<	c #C6C6C6",
"[	c #CECECE",
"}	c #D6D6D6",
"|	c #DEDEDE",
"1	c #E7E7E7",
"2	c #EFEFEF",
"3	c #F7F7F7",
"4	c #000000",
"............33221|}}[<<<:::__^';",
".....3333222111|}[[<<:____(((~>-",
"2.3111||}}[<::_(//^]]{{{~~~!~)--",
"222111||}}[<<:_((/^^^]{{{~~~~!;-",
"12111||||[[<<__(/^/^]^]{{{{~{!>;",
"1211|1||}[[<:_(//^^^]]]]]{{{{~>;",
"|11||||}}[<::((/^^^]^^^]]]{{{{,>",
"|1||||}}[[<:_(/^^]^]]^^^^]]]]{,>",
"|1||}}}[[<(*{(/^^^'@#@=/^^^]^],,",
"}|}}}}[[<_$4#{/^^^,444&^/^^^^]'>",
"[}}[[[[[(%444$]^]^'444*^^/^//]',",
"[}[[<<<:>44444$]^^'444*^/////],>",
"<}[<<:::(%44444%]^'444*/////^{,>",
"<[<::::_:(%44444%^)444*/////^],>",
"<[<:______/%44444*'444*/((/^/],>",
":<:_______(/%44444&444*//////{,>",
":<:___((((((!44444#+44*/////^],>",
"_:_(((////({#44444&444*////^^],;",
"_:_(///^^^~#44444&)444*(/^^^^],;",
"/_(^^^]]]!#44444$^)444*//^^^]{,>",
"/(/]^]]])#44444#{/'444*///^]]{>>",
"^/^]{{{{>44444#!]^'444*(//^^]~,>",
"^/]{{{~~~;444@!{]^'444&///^]]{>;",
"]]{~{~~~~~-4@)~{]^'444*(/^^^^{>>",
"{]~!~~~~~~~;'~{{]^]~~~{//^^]]{>;",
"{]~!!!!~~~~~~~{{]^//(//^^^^]]~,;",
"~{~))!!!!!~~{{{{]^/((/^^^^^]]{,>",
"~{!)!!!!!~~{{{{]^/(////^]]]]]~>>",
"~{!)!!!!~!~{{]]^/(((//^^]]{]]{>>",
"~))'')))!!!~~{]]^/^^^]]{{~~~{!,>",
"'>-----;;;;>>,,''''',,,>>>>>>;;;",
",;====----;;;>>>,,,>>>>;>;;--;;,"};
