/* XPM */
static char * rw_xpm[] = {
"32 32 30 1",
" 	c None",
".	c #FFFFFF",
"+	c #F7F7F7",
"@	c #EFEFEF",
"#	c #E7E7E7",
"$	c #DEDEDE",
"%	c #D6D6D6",
"&	c #CECECE",
"*	c #C6C6C6",
"=	c #BDBDBD",
"-	c #B5B5B5",
";	c #9C9C9C",
">	c #6B6B6B",
",	c #525252",
"'	c #ADADAD",
")	c #848484",
"!	c #5A5A5A",
"~	c #4A4A4A",
"{	c #A5A5A5",
"]	c #949494",
"^	c #8C8C8C",
"/	c #7B7B7B",
"(	c #737373",
"_	c #636363",
":	c #212121",
"<	c #393939",
"[	c #313131",
"}	c #424242",
"|	c #181818",
"1	c #292929",
"............++@@#$%%&***===--;>,",
".....++++@@@###$%&&**=----''')!~",
"@.+###$$%%&*==-'{{;]]^^^)))/)(~~",
"@@@###$$%%&**=-''{;;;]^^^))))/,~",
"#@###$$$$&&**--'{;{;];]^^^^)^/!,",
"#@##$#$$%&&*=-'{{;;;]]]]]^^^^)!,",
"$##$$$$%%&*==''{;;;];;;]]]^^^^_!",
"$#$$$$%%&&*/{'{;;];];/>;;]]]]^_!",
"$#$$%%%&&*>:<;{;;;];)[:>;;;];]__",
"%$%%%%&&*(:::}];;;;^[:::(;;;;]>!",
"&%%&&&&&/::::|};];]<:::::/;{{]>_",
"&%&&***(|:::::_;;^<:::::[^{{{]_!",
"*%&**=/|:::::>;;]<:::::[]'{;;^_!",
"*&*==)::::::>'{;}|::::[]'{{{;]_!",
"*&*=-<||:|:_'''(:::::[]'{'{;{]_!",
"=*=--:|:|:}--''_::::|){{{'{{{^_!",
"=*=--[||:|1('''(|:|::<;{{{{{;]_!",
"-=-''):||:|:({'{~::|:|<;{{;{;]_,",
"-=-'{{(:||:||>;{{}|:|:|<]{;;;]_,",
"{-';;;;>:||:|:>;;{}|||||<];;]^_!",
"{'{];]]]_|||||:^;{;}|||||!;]]^!!",
";{;]^^^))!||||_^];{{<|||<];;])_!",
";{]^^^))^),||!^^];{{;1|[;{;]]^!,",
"]]^)^))))))~,))^^;{{'^}]{;;;;^!!",
"^])/))))))))))^^];{{{{{{{;;]]^!,",
"^])////)))))^)^^];{{'{;;;;;]])_,",
")^)((/////))^^)]];{''{{;;;;]]^_!",
")^/(/////))^^^^];{'{{{;;]]]]])!!",
")^/(////)/)^]]];{'''{{{;]]^]]^!!",
")((>>(((///))^^];{;;;]]^^)))^/_!",
">!~~~~~,,,,!!__>>>>>___!!!!!!,,,",
"_,}}}}~~~~,,,!!!___!!!,,!,,~~,,_"};
