/* XPM */
static char * pause_xpm[] = {
"11 14 2 1",
" 	c None",
".	c #000000",
"....   ....",
"....   ....",
"....   ....",
"....   ....",
"....   ....",
"....   ....",
"....   ....",
"....   ....",
"....   ....",
"....   ....",
"....   ....",
"....   ....",
"....   ....",
"           "};
