/* XPM */
static char * power_xpm[] = {
"13 22 3 1",
" 	c None",
".	c #000000",
"*      c #AAAAAA",
"             ",
"             ",
"             ",
"             ",
"   *.....*   ",
" *.........* ",
" ...     ... ",
"*..       ..*",
"..         ..",
"..         ..",
".............",
".............",
".............",
"*...........*",
" ........... ",
" *.........* ",
"   *.....*   ",
"             ",
"             ",
"             ",
"             ",
"             "};
