/* XPM */
static char * eject_xpm[] = {
"24 24 47 1",
" 	c None",
".	c #10400000FFFF",
"X	c #30C20000FFFF",
"o	c #00003CF3FFFF",
"O	c #00001451FFFF",
"+	c #08200000FFFF",
"@	c #00008E38FFFF",
"#	c #00006595FFFF",
"$	c #00001861FFFF",
"%	c #0000DB6CFFFF",
"&	c #0000B6DAFFFF",
"*	c #00004103FFFF",
"=	c #0000FFFFD75C",
"-	c #0000FFFFFFFF",
";	c #0000DF7DFFFF",
":	c #000069A6FFFF",
">	c #00001C71FFFF",
",	c #28A20000FFFF",
"<	c #38E33CF338E3",
"1	c #0000FFFF2081",
"2	c #0000FFFF4924",
"3	c #0000FFFF71C6",
"4	c #0000FFFF9E79",
"5	c #0000FFFFCF3C",
"6	c #0000FFFFF7DE",
"7	c #0000E38DFFFF",
"8	c #0000BEFBFFFF",
"9	c #00009658FFFF",
"0	c #0820FFFF0000",
"q	c #0000FFFF1861",
"w	c #0000FFFFC71B",
"e	c #0000E79DFFFF",
"r	c #30C2FFFF0000",
"t	c #0000FFFF4103",
"y	c #0000FFFFEFBE",
"u	c #6185FFFF0000",
"i	c #38E3FFFF0000",
"p	c #0000FFFF69A6",
"a	c #8E38FFFF0000",
"s	c #1040FFFF0000",
"d	c #0000FFFF9658",
"f	c #BEFBFFFF0000",
"g	c #9658FFFF0000",
"h	c #0000FFFF1040",
"j	c #E79DFFFF0000",
"k	c #69A6FFFF0000",
"l	c #0000FFFF38E3",
"                        ",
"                        ",
"                        ",
"                        ",
"                        ",
"           .X           ",
"          oO+X          ",
"         @#o$+X         ",
"        %&@#*$+X        ",
"       =-;&@:*>+,       ",
"      <<<<<<<<<<<<      ",
"                        ",
"                        ",
"       123456789<       ",
"       0q234w6e8<       ",
"       r0qt34wye<       ",
"       ui0qtp4wy<       ",
"       auisqtpdw<       ",
"       fguishtpd<       ",
"       jfgkishlp<       ",
"       <<<<<<<<<<       ",
"                        ",
"                        ",
"                        "};
