/* XPM */
static char * ff_xpm[] = {
"26 12 121 2",
"  	c None",
". 	c #FFFFFFFF0000",
"X 	c #BEFBFFFF0000",
"o 	c #79E77DF779E7",
"O 	c #20810000FFFF",
"+ 	c #59650000FFFF",
"@ 	c #FFFFEBAD0000",
"# 	c #DF7DFFFF0000",
"$ 	c #9E79FFFF0000",
"% 	c #6185FFFF0000",
"& 	c #08200000FFFF",
"* 	c #38E30000FFFF",
"= 	c #71C60000FFFF",
"- 	c #AEBA0000FFFF",
"; 	c #FFFFCF3C0000",
": 	c #F7DEFFFF0000",
"> 	c #79E7FFFF0000",
", 	c #4103FFFF0000",
"< 	c #0820FFFF0000",
"1 	c #00000C30FFFF",
"2 	c #96580000FFFF",
"3 	c #C71B0000FFFF",
"4 	c #FFFF0000FFFF",
"5 	c #FFFFB6DA0000",
"6 	c #FFFFEFBE0000",
"7 	c #D75CFFFF0000",
"8 	c #5965FFFF0000",
"9 	c #2081FFFF0000",
"0 	c #0000FFFF1040",
"q 	c #0000FFFF5144",
"w 	c #00002492FFFF",
"e 	c #41030000FFFF",
"r 	c #79E70000FFFF",
"t 	c #E79D0000FFFF",
"y 	c #FFFF0000E79D",
"u 	c #FFFF0000AEBA",
"i 	c #FFFF9A690000",
"p 	c #FFFFD34C0000",
"a 	c #EFBEFFFF0000",
"s 	c #B6DAFFFF0000",
"d 	c #38E3FFFF0000",
"f 	c #0000FFFF0000",
"g 	c #0000FFFF30C2",
"h 	c #0000FFFF71C6",
"j 	c #0000FFFFAEBA",
"k 	c #00003CF3FFFF",
"l 	c #00000820FFFF",
"z 	c #28A20000FFFF",
"x 	c #61850000FFFF",
"c 	c #CF3C0000FFFF",
"v 	c #FFFF0000CF3C",
"b 	c #FFFF00009658",
"n 	c #FFFF00005965",
"m 	c #FFFF7DF70000",
"M 	c #FFFFBAEA0000",
"N 	c #FFFFF3CE0000",
"B 	c #9658FFFF0000",
"V 	c #0000FFFF1861",
"C 	c #0000FFFF8E38",
"Z 	c #0000FFFFCF3C",
"A 	c #0000FBEEFFFF",
"S 	c #00005965FFFF",
"D 	c #00002081FFFF",
"F 	c #10400000FFFF",
"G 	c #B6DA0000FFFF",
"H 	c #FFFF000071C6",
"J 	c #FFFF00004103",
"K 	c #FFFF00000820",
"L 	c #FFFF61850000",
"P 	c #FFFF9E790000",
"I 	c #FFFFDB6C0000",
"U 	c #71C6FFFF0000",
"Y 	c #0000FFFF38E3",
"T 	c #38E33CF338E3",
"R 	c #000071C6FFFF",
"E 	c #000038E3FFFF",
"W 	c #00000410FFFF",
"Q 	c #9E790000FFFF",
"! 	c #FFFF0000C71B",
"~ 	c #FFFF00008E38",
"^ 	c #FFFF45140000",
"/ 	c #FFFF82070000",
"( 	c #FFFFBEFB0000",
") 	c #FFFFF7DE0000",
"_ 	c #CF3CFFFF0000",
"` 	c #5144FFFF0000",
"' 	c #1861FFFF0000",
"] 	c #00008A28FFFF",
"[ 	c #00005555FFFF",
"{ 	c #00001C71FFFF",
"} 	c #49240000FFFF",
"| 	c #86170000FFFF",
" .	c #EFBE0000FFFF",
"..	c #FFFF0000DF7D",
"X.	c #FFFF2CB20000",
"o.	c #FFFF65950000",
"O.	c #FFFFA2890000",
"+.	c #FFFFDF7D0000",
"@.	c #E79DFFFF0000",
"#.	c #AEBAFFFF0000",
"$.	c #0000A289FFFF",
"%.	c #00006DB6FFFF",
"&.	c #000034D3FFFF",
"*.	c #00000000FFFF",
"=.	c #30C20000FFFF",
"-.	c #69A60000FFFF",
";.	c #FFFF1C710000",
":.	c #FFFF4D340000",
">.	c #FFFF86170000",
",.	c #FFFFC30B0000",
"<.	c #0000BAEAFFFF",
"1.	c #00008617FFFF",
"2.	c #00005144FFFF",
"3.	c #00001861FFFF",
"4.	c #18610000FFFF",
"5.	c #FFFF24920000",
"6.	c #FFFF30C20000",
"7.	c #FFFF69A60000",
"8.	c #0000D34CFFFF",
"9.	c #00009E79FFFF",
"0.	c #000069A6FFFF",
". X o                       O + o                   ",
"@ # $ % o                   & * = - o               ",
"; : X > , < o               1 O + 2 3 4 o           ",
"5 6 7 $ 8 9 0 q o           w & e r - t y u o       ",
"i p a s > d f g h j o       k l z x 2 c 4 v b n o   ",
"m M N 7 B 8 9 V q C Z A     S D F e r G t y u H J K ",
"L P I a s U d f Y h j T     R E W z x Q c 4 ! ~ n T ",
"^ / ( ) _ B ` ' V T T       ] [ { F } | G  ...T T   ",
"X.o.O.+.@.#.U T T           $.%.&.*.=.-.Q T T       ",
";.:.>.,.. T T               <.1.2.3.4.T T           ",
"5.6.7.T T                   8.9.0.T T               ",
"T T T                       T T T                   "};
