/* XPM */
static char * next_t_xpm[] = {
"19 24 114 2",
"  	c None",
". 	c #96580C304924",
"X 	c #96580C3030C2",
"o 	c #96580C302081",
"O 	c #38E33CF338E3",
"+ 	c #96580C306185",
"@ 	c #FFFF000071C6",
"# 	c #FFFF00005144",
"$ 	c #0000E38DFFFF",
"% 	c #0000BEFBFFFF",
"& 	c #79E77DF779E7",
"* 	c #96580C3079E7",
"= 	c #FFFF0000A699",
"- 	c #FFFF000079E7",
"; 	c #0000FFFFEFBE",
": 	c #0000EBADFFFF",
"> 	c #0000C71BFFFF",
", 	c #0000A289FFFF",
"< 	c #96580C308E38",
"1 	c #FFFF0000CF3C",
"2 	c #0000FFFFBEFB",
"3 	c #0000FFFFE79D",
"4 	c #0000F3CEFFFF",
"5 	c #0000CF3CFFFF",
"6 	c #0000AAAAFFFF",
"7 	c #00008617FFFF",
"8 	c #8E380C309658",
"9 	c #FFFF0000F7DE",
"0 	c #FFFF0000D75C",
"q 	c #0000FFFF8E38",
"w 	c #0000FFFFB6DA",
"e 	c #0000FFFFDF7D",
"r 	c #0000F7DEFFFF",
"t 	c #0000D34CFFFF",
"y 	c #0000AEBAFFFF",
"u 	c #00008A28FFFF",
"i 	c #000069A6FFFF",
"p 	c #71C60C309658",
"a 	c #DF7D0000FFFF",
"s 	c #FFFF0000FFFF",
"d 	c #0000FFFF5965",
"f 	c #0000FFFF8617",
"g 	c #0000FFFFAEBA",
"h 	c #0000FFFFD75C",
"j 	c #0000FFFFFFFF",
"k 	c #0000DB6CFFFF",
"l 	c #0000B6DAFFFF",
"z 	c #00009248FFFF",
"x 	c #00006DB6FFFF",
"c 	c #00004924FFFF",
"v 	c #59650C309658",
"b 	c #AEBA0000FFFF",
"n 	c #D75C0000FFFF",
"m 	c #0000FFFF28A2",
"M 	c #0000FFFF5144",
"N 	c #0000FFFF79E7",
"B 	c #0000FFFFA699",
"V 	c #0000FFFFCF3C",
"C 	c #0000FFFFF7DE",
"Z 	c #00009A69FFFF",
"A 	c #000075D6FFFF",
"S 	c #00005144FFFF",
"D 	c #00002CB2FFFF",
"F 	c #41030C309658",
"G 	c #86170000FFFF",
"H 	c #0000FFFF0000",
"J 	c #0000FFFF2081",
"K 	c #0000FFFF4924",
"L 	c #0000FFFF71C6",
"P 	c #0000FFFF9E79",
"I 	c #0000FFFFC71B",
"U 	c #00007DF7FFFF",
"Y 	c #28A20C309658",
"T 	c #59650000FFFF",
"R 	c #79E70000FFFF",
"E 	c #28A2FFFF0000",
"W 	c #0820FFFF0000",
"Q 	c #0000FFFF1861",
"! 	c #0000FFFF4103",
"~ 	c #0000FFFF69A6",
"^ 	c #0000FFFF9658",
"/ 	c #10400C309658",
"( 	c #28A20000FFFF",
") 	c #51440000FFFF",
"_ 	c #5965FFFF0000",
"` 	c #30C2FFFF0000",
"' 	c #1040FFFF0000",
"] 	c #0000FFFF1040",
"[ 	c #0000FFFF38E3",
"{ 	c #0000FFFF6185",
"} 	c #082020819658",
"| 	c #00000000FFFF",
" .	c #20810000FFFF",
"..	c #8E38FFFF0000",
"X.	c #6185FFFF0000",
"o.	c #4103FFFF0000",
"O.	c #1861FFFF0000",
"+.	c #0000FFFF0820",
"@.	c #082038E39658",
"#.	c #000028A2FFFF",
"$.	c #00000410FFFF",
"%.	c #BEFBFFFF0000",
"&.	c #9658FFFF0000",
"*.	c #71C6FFFF0000",
"=.	c #08204D349658",
"-.	c #00005555FFFF",
";.	c #000030C2FFFF",
":.	c #082065959658",
">.	c #00008207FFFF",
",.	c #00005D75FFFF",
"<.	c #08207DF79658",
"1.	c #082096589658",
"2.	c #082082079658",
"3.	c #08206DB69658",
"                                      ",
"                                      ",
"                                      ",
"                              . X o O ",
"                              + @ # O ",
"$ % &                         * = - O ",
"; : > , &                     < 1 = O ",
"2 3 4 5 6 7 &                 8 9 0 O ",
"q w e r t y u i &             p a s O ",
"d f g h j k l z x c &         v b n O ",
"m M N B V C $ % Z A S D       F G b O ",
"H J K L P I ; : > , U O       Y T R O ",
"E W Q ! ~ ^ 2 3 4 O O         / ( ) O ",
"_ ` ' ] [ { q O O             } |  .O ",
"..X.o.O.+.O O                 @.#.$.O ",
"%.&.*.O O                     =.-.;.O ",
"O O O                         :.>.,.O ",
"                              <.y u O ",
"                              1.2.3.O ",
"                                      ",
"                                      ",
"                                      ",
"                                      ",
"                                      "};
