/* XPM */
static char * pause_xpm[] = {
"24 24 76 1",
" 	c None",
".	c #00007DF7FFFF",
"X	c #00005D75FFFF",
"o	c #000038E3FFFF",
"O	c #00001451FFFF",
"+	c #38E33CF338E3",
"@	c #FFFF0000DF7D",
"#	c #FFFF0000B6DA",
"$	c #FFFF00009658",
"%	c #FFFF000071C6",
"&	c #0000A289FFFF",
"*	c #00005965FFFF",
"=	c #FFFF0000FFFF",
"-	c #0000C30BFFFF",
";	c #E79D0000FFFF",
":	c #FFFF0000D75C",
">	c #0000E79DFFFF",
",	c #00009E79FFFF",
"<	c #000079E7FFFF",
"1	c #BEFB0000FFFF",
"2	c #0000FFFFF7DE",
"3	c #0000E38DFFFF",
"4	c #9E790000FFFF",
"5	c #C71B0000FFFF",
"6	c #FFFF0000F7DE",
"7	c #0000FFFFD75C",
"8	c #0000BEFBFFFF",
"9	c #79E70000FFFF",
"0	c #0000FFFFAEBA",
"q	c #0000FFFFFFFF",
"w	c #59650000FFFF",
"e	c #A6990000FFFF",
"r	c #0000FFFF8617",
"t	c #38E30000FFFF",
"y	c #0000FFFF6185",
"u	c #0000FFFF8E38",
"i	c #10400000FFFF",
"p	c #86170000FFFF",
"a	c #0000FFFF38E3",
"s	c #0000FFFFB6DA",
"d	c #00000820FFFF",
"f	c #18610000FFFF",
"g	c #0000FFFF1861",
"h	c #000028A2FFFF",
"j	c #0820FFFF0000",
"k	c #0000FFFF4103",
"l	c #00004D34FFFF",
"z	c #00000410FFFF",
"x	c #30C2FFFF0000",
"c	c #00006DB6FFFF",
"v	c #5144FFFF0000",
"b	c #00009248FFFF",
"n	c #00004924FFFF",
"m	c #00002492FFFF",
"M	c #79E7FFFF0000",
"N	c #28A2FFFF0000",
"B	c #0000B2CAFFFF",
"V	c #00008E38FFFF",
"C	c #A699FFFF0000",
"Z	c #0000D34CFFFF",
"A	c #000069A6FFFF",
"S	c #C71BFFFF0000",
"D	c #9E79FFFF0000",
"F	c #0000F7DEFFFF",
"G	c #0000AEBAFFFF",
"H	c #EFBEFFFF0000",
"J	c #71C6FFFF0000",
"K	c #0000FFFFE79D",
"L	c #FFFFEFBE0000",
"P	c #0000FFFFBEFB",
"I	c #0000F3CEFFFF",
"U	c #0000CF3CFFFF",
"Y	c #FFFFCB2B0000",
"T	c #E79DFFFF0000",
"R	c #0000FFFF9E79",
"E	c #0000FFFFC71B",
"                        ",
"                        ",
"    .XoO+       @#$%+   ",
"    &.*o+       =@#$+   ",
"    -&.*+       ;=:#+   ",
"    >-,<+       1;=:+   ",
"    23-,+       45;6+   ",
"    7238+       945;+   ",
"    07q3+       w9e5+   ",
"    r07q+       tw9e+   ",
"    yu07+       itwp+   ",
"    ayus+       dftw+   ",
"    gayu+       hdft+   ",
"    jgky+       lhzf+   ",
"    xjgk+       clhz+   ",
"    vxjg+       bcnm+   ",
"    MvNj+       BVcn+   ",
"    CMvN+       ZBVA+   ",
"    SDMv+       FZGV+   ",
"    HSDJ+       KFZG+   ",
"    LHSD+       PKIU+   ",
"    YLTS+       REKI+   ",
"                        ",
"                        "};
