/* XPM */
static char * play_xpm[] = {
"24 24 33 1",
" 	c None",
".	c #0000A699FFFF",
"X	c #00008207FFFF",
"o	c #618565956185",
"O	c #0000CB2BFFFF",
"+	c #00005D75FFFF",
"@	c #0000EFBEFFFF",
"#	c #000038E3FFFF",
"$	c #0000FFFFE79D",
"%	c #00001451FFFF",
"&	c #0000FFFFBEFB",
"*	c #10400000FFFF",
"=	c #0000FFFF9658",
"-	c #30C20000FFFF",
";	c #0000FFFF69A6",
":	c #59650000FFFF",
">	c #0000FFFF4103",
",	c #79E70000FFFF",
"<	c #0000FFFF1861",
"1	c #A6990000FFFF",
"2	c #0820FFFF0000",
"3	c #C71B0000FFFF",
"4	c #30C2FFFF0000",
"5	c #5965FFFF0000",
"6	c #38E33CF338E3",
"7	c #8617FFFF0000",
"8	c #AEBAFFFF0000",
"9	c #D75CFFFF0000",
"0	c #FFFFFFFF0000",
"q	c #FFFFDB6C0000",
"w	c #FFFFB2CA0000",
"e	c #FFFF8A280000",
"r	c #FFFF61850000",
"                        ",
"                        ",
"  .Xo                   ",
"  O.X+o                 ",
"  @O.X+#o               ",
"  $@O.X+#%o             ",
"  &$@O.X+#%*o           ",
"  =&$@O.X+#%*-o         ",
"  ;=&$@O.X+#%*-:o       ",
"  >;=&$@O.X+#%*-:,o     ",
"  <>;=&$@O.X+#%*-:,1o   ",
"  2<>;=&$@O.X+#%*-:,13  ",
"  42<>;=&$@O.X+#%*-:,1  ",
"  542<>;=&$@O.X+#%*-66  ",
"  7542<>;=&$@O.X+#66    ",
"  87542<>;=&$@O.66      ",
"  987542<>;=&$66        ",
"  0987542<>;66          ",
"  q098754266            ",
"  wq098766              ",
"  ewq066                ",
"  re66                  ",
"  66                    ",
"                        "};
