/* XPM */
static char * power_xpm[] = {
"24 24 76 1",
" 	c None",
".	c #000071C6FFFF",
"X	c #00004D34FFFF",
"o	c #00002492FFFF",
"O	c #00000000FFFF",
"+	c #20810000FFFF",
"@	c #49240000FFFF",
"#	c #71C60000FFFF",
"$	c #96580000FFFF",
"%	c #BEFB0000FFFF",
"&	c #E79D0000FFFF",
"*	c #FFFF0000F7DE",
"=	c #38E33CF338E3",
"-	c #00009658FFFF",
";	c #00004924FFFF",
":	c #9E790000FFFF",
">	c #C71B0000FFFF",
",	c #0000BAEAFFFF",
"<	c #00009248FFFF",
"1	c #0000DF7DFFFF",
"2	c #0000B6DAFFFF",
"3	c #A6990000FFFF",
"4	c #0000FFFFFFFF",
"5	c #0000DB6CFFFF",
"6	c #79E70000FFFF",
"7	c #0000FFFFD75C",
"8	c #59650000FFFF",
"9	c #0000FFFFB6DA",
"0	c #0000FFFFDF7D",
"q	c #30C20000FFFF",
"w	c #0000FFFF8E38",
"e	c #10400000FFFF",
"r	c #0000FFFF6185",
"t	c #00000C30FFFF",
"y	c #0000FFFF38E3",
"u	c #0000FFFFBEFB",
"i	c #0000FFFFE79D",
"p	c #0000EFBEFFFF",
"a	c #0000CB2BFFFF",
"s	c #0000A289FFFF",
"d	c #00007DF7FFFF",
"f	c #000030C2FFFF",
"g	c #0000FFFF1040",
"h	c #0000FFFF4103",
"j	c #0000FFFF9658",
"k	c #0000FFFFEFBE",
"l	c #0000C71BFFFF",
"z	c #00005144FFFF",
"x	c #0820FFFF0000",
"c	c #0000FFFF1861",
"v	c #0000FFFF69A6",
"b	c #0000FFFF9E79",
"n	c #0000FFFFC71B",
"m	c #0000EBADFFFF",
"M	c #0000C30BFFFF",
"N	c #000075D6FFFF",
"B	c #30C2FFFF0000",
"V	c #0000FFFF4924",
"C	c #0000FFFF71C6",
"Z	c #0000E79DFFFF",
"A	c #00009A69FFFF",
"S	c #5965FFFF0000",
"D	c #0000FFFF2081",
"F	c #0000FFFFCF3C",
"G	c #0000FFFFF7DE",
"H	c #0000BEFBFFFF",
"J	c #8617FFFF0000",
"K	c #AEBAFFFF0000",
"L	c #79E7FFFF0000",
"P	c #5144FFFF0000",
"I	c #28A2FFFF0000",
"U	c #0000FFFF0000",
"Y	c #0000FFFF28A2",
"T	c #0000FFFF5144",
"R	c #0000FFFF79E7",
"E	c #0000FFFFA699",
"                        ",
"                        ",
"                        ",
"                        ",
"      .XoO+@#$%&*=      ",
"      -.;oO+@#:>&=      ",
"      ,<        >=      ",
"      12        3=      ",
"      45        6=      ",
"      74        8=      ",
"      90        q=      ",
"      w9        e=      ",
"      rw        t=      ",
"      yr uipasd f=      ",
"      gh jukpls z=      ",
"      xc vbnkmM N=      ",
"      Bx VCbnkZ A=      ",
"      SB DVCbFG H=      ",
"      JS        1=      ",
"      KLPIUYTRE74=      ",
"      ============      ",
"                        ",
"                        ",
"                        "};
