/* XPM */
static char * prev_t_xpm[] = {
"19 24 98 2",
"  	c None",
". 	c #618561856185",
"X 	c #38E33CF338E3",
"o 	c #00006185FFFF",
"O 	c #00003CF3FFFF",
"+ 	c #00009248FFFF",
"@ 	c #00006DB6FFFF",
"# 	c #79E77DF779E7",
"$ 	c #FFFF000030C2",
"% 	c #FFFF00001040",
"& 	c #0000BEFBFFFF",
"* 	c #00009A69FFFF",
"= 	c #FFFF0000B6DA",
"- 	c #FFFF00008E38",
"; 	c #FFFF00006185",
": 	c #FFFF00004103",
"> 	c #0000EFBEFFFF",
", 	c #0000C71BFFFF",
"< 	c #D75C0000FFFF",
"1 	c #FFFF0000FFFF",
"2 	c #FFFF0000DF7D",
"3 	c #FFFF0000BEFB",
"4 	c #FFFF00009658",
"5 	c #FFFF000069A6",
"6 	c #0000FFFFDF7D",
"7 	c #0000F7DEFFFF",
"8 	c #59650000FFFF",
"9 	c #86170000FFFF",
"0 	c #A6990000FFFF",
"q 	c #CF3C0000FFFF",
"w 	c #F7DE0000FFFF",
"e 	c #FFFF0000E79D",
"r 	c #FFFF0000C71B",
"t 	c #FFFF00009E79",
"y 	c #0000FFFFAEBA",
"u 	c #0000FFFFD75C",
"i 	c #00001C71FFFF",
"p 	c #08200000FFFF",
"a 	c #28A20000FFFF",
"s 	c #51440000FFFF",
"d 	c #79E70000FFFF",
"f 	c #9E790000FFFF",
"g 	c #C71B0000FFFF",
"h 	c #EFBE0000FFFF",
"j 	c #FFFF0000EFBE",
"k 	c #FFFF0000CF3C",
"l 	c #0000FFFF79E7",
"z 	c #0000FFFFA699",
"x 	c #00009658FFFF",
"c 	c #000071C6FFFF",
"v 	c #00004924FFFF",
"b 	c #00002492FFFF",
"n 	c #00000000FFFF",
"m 	c #20810000FFFF",
"M 	c #49240000FFFF",
"N 	c #71C60000FFFF",
"B 	c #96580000FFFF",
"V 	c #BEFB0000FFFF",
"C 	c #E79D0000FFFF",
"Z 	c #FFFF0000F7DE",
"A 	c #0000FFFF4924",
"S 	c #0000FFFF71C6",
"D 	c #00009E79FFFF",
"F 	c #000079E7FFFF",
"G 	c #00005144FFFF",
"H 	c #00002CB2FFFF",
"J 	c #00000820FFFF",
"K 	c #18610000FFFF",
"L 	c #41030000FFFF",
"P 	c #69A60000FFFF",
"I 	c #8E380000FFFF",
"U 	c #B6DA0000FFFF",
"Y 	c #DF7D0000FFFF",
"T 	c #0000FFFF1040",
"R 	c #0000FFFF38E3",
"E 	c #00008207FFFF",
"W 	c #00005965FFFF",
"Q 	c #000034D3FFFF",
"! 	c #00001040FFFF",
"~ 	c #10400000FFFF",
"^ 	c #38E30000FFFF",
"/ 	c #AEBA0000FFFF",
"( 	c #1861FFFF0000",
") 	c #0000FFFF0820",
"_ 	c #00001861FFFF",
"` 	c #30C20000FFFF",
"' 	c #4924FFFF0000",
"] 	c #2081FFFF0000",
"[ 	c #00004514FFFF",
"{ 	c #00002081FFFF",
"} 	c #8617FFFF0000",
"| 	c #5965FFFF0000",
" .	c #000028A2FFFF",
"..	c #B6DAFFFF0000",
"X.	c #8E38FFFF0000",
"o.	c #00000C30FFFF",
"O.	c #E79DFFFF0000",
"+.	c #BEFBFFFF0000",
"                                      ",
"                                      ",
"                                      ",
". . . X                               ",
". o O X                               ",
". + @ X                         # $ % ",
". & * X                     # = - ; : ",
". > , X                 # < 1 2 3 4 5 ",
". 6 7 X             # 8 9 0 q w e r t ",
". y u X         # i p a s d f g h j k ",
". l z X       x c v b n m M N B V C Z ",
". A S X       X D F G H J K L P I U Y ",
". T R X         X X E W Q ! ~ ^ 8 9 / ",
". ( ) X             X X o O _ p ` s d ",
". ' ] X                 X X [ { n a M ",
". } | X                     X X  .n m ",
". ..X.X                         X X o.",
". O.+.X                               ",
". . . X                               ",
"                                      ",
"                                      ",
"                                      ",
"                                      ",
"                                      "};
