/* XPM */
static char * rw_xpm[] = {
"26 12 131 2",
"  	c None",
". 	c #79E77DF779E7",
"X 	c #0000CB2BFFFF",
"o 	c #00009658FFFF",
"O 	c #FFFF00000820",
"+ 	c #0000FFFFA699",
"@ 	c #0000FFFFE79D",
"# 	c #0000E38DFFFF",
"$ 	c #0000AAAAFFFF",
"% 	c #FFFF00004924",
"& 	c #FFFF00001040",
"* 	c #0000FFFF1040",
"= 	c #0000FFFF4924",
"- 	c #0000FFFF8E38",
"; 	c #0000FFFFC71B",
": 	c #0000FBEEFFFF",
"> 	c #0000C30BFFFF",
", 	c #FFFF0000D75C",
"< 	c #FFFF00009E79",
"1 	c #FFFF00006185",
"2 	c #FFFF000028A2",
"3 	c #79E7FFFF0000",
"4 	c #4103FFFF0000",
"5 	c #0000FFFF0000",
"6 	c #0000FFFF30C2",
"7 	c #0000FFFF71C6",
"8 	c #0000FFFFAEBA",
"9 	c #0000FFFFEFBE",
"0 	c #0000DB6CFFFF",
"q 	c #A6990000FFFF",
"w 	c #DF7D0000FFFF",
"e 	c #FFFF0000EFBE",
"r 	c #FFFF0000B6DA",
"t 	c #FFFF000079E7",
"y 	c #FFFF00004103",
"u 	c #FFFFEBAD0000",
"i 	c #D75CFFFF0000",
"p 	c #9E79FFFF0000",
"a 	c #5965FFFF0000",
"s 	c #2081FFFF0000",
"d 	c #0000FFFF1861",
"f 	c #0000FFFF5965",
"g 	c #0000FFFF9658",
"h 	c #0000FFFFD75C",
"j 	c #0000F3CEFFFF",
"k 	c #20810000FFFF",
"l 	c #59650000FFFF",
"z 	c #8E380000FFFF",
"x 	c #C71B0000FFFF",
"c 	c #FFFF0000FFFF",
"v 	c #FFFF0000CF3C",
"b 	c #FFFF00009658",
"n 	c #FFFF00005965",
"m 	c #FFFF00002081",
"M 	c #FFFF59650000",
"N 	c #FFFF96580000",
"B 	c #FFFFD34C0000",
"V 	c #EFBEFFFF0000",
"C 	c #B6DAFFFF0000",
"Z 	c #71C6FFFF0000",
"A 	c #38E3FFFF0000",
"S 	c #0000FFFF38E3",
"D 	c #0000FFFF79E7",
"F 	c #0000FFFFB6DA",
"G 	c #0000FFFFF7DE",
"H 	c #00006185FFFF",
"J 	c #00002CB2FFFF",
"K 	c #08200000FFFF",
"L 	c #41030000FFFF",
"P 	c #71C60000FFFF",
"I 	c #AEBA0000FFFF",
"U 	c #E79D0000FFFF",
"Y 	c #FFFF0000E79D",
"T 	c #FFFF0000AEBA",
"R 	c #FFFF000071C6",
"E 	c #FFFF000038E3",
"W 	c #38E33CF338E3",
"Q 	c #FFFF7DF70000",
"! 	c #FFFFBAEA0000",
"~ 	c #FFFFF7DE0000",
"^ 	c #CF3CFFFF0000",
"/ 	c #9658FFFF0000",
"( 	c #5144FFFF0000",
") 	c #1040FFFF0000",
"_ 	c #0000FFFF2081",
"` 	c #0000FFFF6185",
"' 	c #0000FFFF9E79",
"] 	c #0000FFFFDF7D",
"[ 	c #00004514FFFF",
"{ 	c #00000C30FFFF",
"} 	c #28A20000FFFF",
"| 	c #61850000FFFF",
" .	c #96580000FFFF",
"..	c #CF3C0000FFFF",
"X.	c #FFFF0000C71B",
"o.	c #FFFF00008E38",
"O.	c #FFFF00005144",
"+.	c #FFFF00001861",
"@.	c #FFFFDB6C0000",
"#.	c #E79DFFFF0000",
"$.	c #AEBAFFFF0000",
"%.	c #69A6FFFF0000",
"&.	c #30C2FFFF0000",
"*.	c #0000FFFF0820",
"=.	c #0000FFFF4103",
"-.	c #0000FFFF8617",
";.	c #10400000FFFF",
":.	c #49240000FFFF",
">.	c #86170000FFFF",
",.	c #B6DA0000FFFF",
"<.	c #EFBE0000FFFF",
"1.	c #FFFF0000DF7D",
"2.	c #FFFF0000A699",
"3.	c #FFFF000069A6",
"4.	c #FFFF000030C2",
"5.	c #C71BFFFF0000",
"6.	c #8617FFFF0000",
"7.	c #4924FFFF0000",
"8.	c #0820FFFF0000",
"9.	c #0000FFFF28A2",
"0.	c #0000FFFF69A6",
"q.	c #69A60000FFFF",
"w.	c #9E790000FFFF",
"e.	c #D75C0000FFFF",
"r.	c #FFFF0000F7DE",
"t.	c #FFFF0000BEFB",
"y.	c #FFFF00008617",
"u.	c #6185FFFF0000",
"i.	c #0000FFFF5144",
"p.	c #BEFB0000FFFF",
"a.	c #F7DE0000FFFF",
"                  . X o                       . O O ",
"              . + @ # $                   . % & O O ",
"          . * = - ; : >               . , < 1 2 O O ",
"      . 3 4 5 6 7 8 9 0           . q w e r t y O O ",
"  . u i p a s d f g h j       . k l z x c v b n m O ",
"M N B V C Z A 5 S D F G     H J K L P I U Y T R E O ",
"W Q ! ~ ^ / ( ) _ ` ' ]     W [ { } |  ...c X.o.O.+.",
"  W W @.#.$.%.&.*.=.-.;       W W ;.:.>.,.<.1.2.3.4.",
"      W W 5.6.7.8.9.0.+           W W q.w.e.r.t.y.% ",
"          W W u.s * i.-               W W p.a., < 1 ",
"              W W 5 6 7                   W W Y r t ",
"                  W W f                       W W b "};
