/* XPM */
static char * stop_xpm[] = {
"24 24 25 1",
" 	c None",
".	c #00002CB2FFFF",
"X	c #08200000FFFF",
"o	c #49240000FFFF",
"O	c #86170000FFFF",
"+	c #C71B0000FFFF",
"@	c #FFFF0000FFFF",
"#	c #FFFF0000C71B",
"$	c #FFFF00008617",
"%	c #FFFF00004924",
"&	c #FFFF00000820",
"*	c #38E33CF338E3",
"=	c #0000A699FFFF",
"-	c #000069A6FFFF",
";	c #0000E38DFFFF",
":	c #0000FFFFDF7D",
">	c #0000FFFF9E79",
",	c #0000FFFF5144",
"<	c #0000FFFF1040",
"1	c #28A2FFFF0000",
"2	c #69A6FFFF0000",
"3	c #B6DAFFFF0000",
"4	c #F7DEFFFF0000",
"5	c #FFFFCB2B0000",
"6	c #FFFF86170000",
"                        ",
"                        ",
"                        ",
"                        ",
"                        ",
"     ..XoO+@#$%&&&*     ",
"     =-.XoO+@#$%&&*     ",
"     ;=-.XoO+@#$%&*     ",
"     :;=-.XoO+@#$%*     ",
"     >:;=-.XoO+@#$*     ",
"     ,>:;=-.XoO+@#*     ",
"     <,>:;=-.XoO+@*     ",
"     1<,>:;=-.XoO+*     ",
"     21<,>:;=-.XoO*     ",
"     321<,>:;=-.Xo*     ",
"     4321<,>:;=-.X*     ",
"     54321<,>:;=-.*     ",
"     654321<,>:;=-*     ",
"     6654321<,>:;=*     ",
"     **************     ",
"                        ",
"                        ",
"                        ",
"                        "};
