/* XPM */
static char * background_xpm[] = {
"96 96 19 1",
" 	c #000004100000",
".	c #000000000000",
"X	c #082008200820",
"o	c #08200C300820",
"O	c #104010401040",
"+	c #104014511040",
"@	c #186118611861",
"#	c #18611C711861",
"$	c #208120812081",
"%	c #208124922081",
"&	c #28A228A228A2",
"*	c #28A22CB228A2",
"=	c #30C230C230C2",
"-	c #30C234D330C2",
";	c #38E338E338E3",
":	c #38E33CF338E3",
">	c #410345144103",
",	c #410341034103",
"<	c #492449244924",
"  ......   XXXoooOOO+++@@###$$$%%%&&&***===---;::>,,,:::;;;---===***&&&%%%$$$###@@@+++OOOoooXXX ",
"  .......   XXXoooOOO++@@@@###$$%%%&&&***===--;::,>>,,,:::;;;;---===***&&&%%%$$$###@@@+++OOoooXX",
"X  .......   XXXooOOOO++@@@@###$$$%%&&&***==---;:,,,,,,,,:::;;;;---===***&&&%%%%$$###@@@@+++OOoX",
"XX  .......   XXooooOOO++@@@###$$$%%%&&&***==--;;:,,,,,,,,:::::;;;---====***&&%%%%$$$###@@@++OoX",
"XXX  .......  XXXXooOOO+++@@@###$$$%%%&&&**==--;;:,,,,,,,,,,,:::;;;;----===***&&&%%%$$$###@@++Oo",
"oXXX  .......  XXXoooOOO+++@@@###$$%%%%&&&*===--;::,,,,,,,,,,,:::;;;;;---====***&&&%%%$$$$#@@+Oo",
"ooXXX  ......    XXoooOOOO++@@@##$$$%%%%&&**===--;:,,,,,,,,,,,,,::::;;;;---===****&&&%%%%$$#@+Oo",
"oooXXX   .....   XXXoooOOO+++@@####$$%%%&&&**===-;::,,,,,,,,,,,,,:::::;;;----====***&&&&%%$#@@+O",
"OoooXXX   ......  XXXoooOOO+++@@@##$$$%%%&&&**===;;::,,,,>,,,,,,,,:::::;;;;----====***&&%%$$#@+O",
"OOOooXXX   ......   XXXooOOO+++@@@###$$%%%&&***==-;::,,,,,,,,,,,,,,::::::;;;;----===***&&%$$#@++",
"+OOoooXXX  .......   XXoooOOO+++@@####$$%%%&&&**=-;;::,,,,,,,,,,,,,,,:::::;;;;;----===**&%%$$#@+",
"++OOOoooXX   ......  XXXXooOOO+++@@###$$$%%%&&***=-;:::,,,,,,,,,,,,,,,::::::;;;;;---==**&&%%$#@+",
"++OOOoooXXX   ......  XXXoooOOO+++@@@###$$%%%&&**=-;;:::,,,,,,,,,,,,,,,::::::;;;;----==**&&%$##@",
"@+++OOoooXXX   ......   XXoooOOO+++@@@##$$$%%%&&*=--;;::,,,,,,,,,,,,,,,,,:::::;;;;;---==**&%$$#@",
"@@++OOOOooXXX   .....    XXXooOOO+++@@@##$$$%%&&&*=-;;::,,,,,,,,,,,,,,,,,,::::::;;;;--==**&%%$#@",
"@@@+++OOoooXXX   .....   XXXoooOOO+++@@@##$$$%%&&*=-;;;::,,,,,,,,,,,,,,,,,,::::::;;;---==**&%%$#",
"#@@+++OOOoooXXX   .....   XXXoooOOO++@@@###$$$%%&*=--;;::::,,,,,,,,,,,,,,,,,,:::::;;;--==**&%%$#",
"##@@@+++OOoooXX    .....   XXXoooOO+++@@@###$$$%%&*=--;;:::,,,,,,,,,,,,,,,,,,::::::;;;--==**&%$#",
"###@@+++OOOoooXXX   .....   XXXoooOO+++@@@###$$%%&*==-;;::::,,,,,,,,,,,,,,,,,,,::::;;;--==**&%%$",
"$###@@@++OOOoooXXX   ......  XXXoooOOO++@@@###$$%&**=--;;::::,,,,,,,,,,,,,,,,,,,:::;;;;--==**&%$",
"$$###@@@+++OOoooXXX   ......  XXXoooOOO++@@@###$$%&*==-;;;::::,,,,,,,,,,,,,,,,,,:::::;;---=**&%$",
"%$$###@@@++OOOOooXXX   .....   XXXoooOOO++@@@###$%&**=--;;::::,,,,,,,,,,,,,,,,,,,:::::;;--==**&%",
"%%$$###@@@+++OOoooXXX   .....   XXXoooOOO++@@@###%&&*==--;;::::,,,,,,,,,,,,,,,,,,,::::;;;--=**&%",
"%%%$$###@@@++OOOoooXXX   ......   XXoooOOO++@@@##$%&*===-;;;::::,,,,,,,,,,,,,,,,,,:::::;;;-==*&&",
"&%%$$$###@@++++OOoooXXX   ......   XXoooOOO++@@@#$%&**==--;;;::::,,,,,,,,,,,,,,,,,,,:::;;;--==*&",
"&&%%$$$###@@@++OOOoooXXX   .....   XXXoooOO+++@@@#$%&**=---;;;::::,,,,,,,,,,,,,,,,,,,:::;;---=*&",
"&&&%%%$$###@@@++OOOoooXXX   .....   XXXoooOOO++@@#$%&&*==--;;;:::::,,,,,,,,,,,,,,,,,,,:::;;--=**",
"*&&%%%$$$##@@@+++OOOoooXXX   .....   XXXoooOO+++@#$%%&**==--;;;::::,,,,,,,,,,,,,,,,,,,::::;;-==*",
"**&&&%%$$$##@@@+++OOOoooXXX   .....   XXXoooOO+++@#$%&**==--;;;;::::,,,,,,,,,,,,,,,,,,,:::;;;-=*",
"***&&%%%$$$###@@+++OOOoooXXX   .....   XXXooOOO++@#$%%&**=---;;;:::::,,,,,,,,,,,,,,,,,,::::;;--=",
"=***&&%%%$$$###@@+++OOOoooXXX   .....   XXooooOO+@@#$%&&*==---;;;:::::::,,,,,,,,,,,,,,,,:::;;;-=",
"==***&&%%%$$$###@@@++OOOoooXX    .....   XXXooOOO+@#$%%&**==---;;;;:::::,,,,,,,,,,,,,,,,,:::;;-=",
"===***&&%%%$$$##@@@+++OOOoooXXX   .....   XXXoooO+@#$$%&***==--;;;;;:::::,,,,,,,,,,,,,,,,,:::;--",
"-===***&&%%%$$$###@@+++OOOoooXXX   .....   XXXooo++@#$%%&**==----;;;;:::::,,,,,,,,,,,,,,,,:::;;-",
"---==***&&%%%$$$###@@+++OOOoooXXX   .....   XXXooO+@#$$%&&**==----;;;;;::::::,,,,,,,,,,,,,,:::;;",
";--===**&&&%%%$$$##@@@@+++OOoooXXX   .....   XXXoO+@##$%%&**===-----;;;;:::::,,,,,,,,,,,,,,,::;;",
";;--==***&&&%%%$$$##@@@+++OOOoooXXX   .....   XXXo++@#$$%&&***====----;;;::::::,,,,,,,,,,,,,,::;",
";;---==***&&&%%%$$$##@@@+++OOOoooXXX   .....   XXoO+@#$$%%&&****====---;;;;;:::::,,,,,,,,,,,,,::",
":;;---==***&&&%%$$$###@@@+++OOOoooXXX   .....   XoO+@@#$$%%&&&****===----;;;;::::,,,,,,,,,,,,,,:",
"::;;---==***&&&%%%$$###@@@+++OOOoooXX    .....   XoO+@##$$%%%&&&****===---;;;;;::::,,,,,,,>,,,,:",
"::;;;--===***&&%%%$$$###@@@+++OOOoooXX    .....  XoO+@@##$$$%%%&&&****==----;;;;::::,,,,,,,,,,,,",
",::;;;---==**&&&%%%$$$###@@@+++OOOoooXXX  ...... XoO++@@###$$$%%%&&&***====---;;;;::::,,,,,,>,,,",
",,::;;---===***&&&%%$$$###@@@+++OOOooXXXX  ...... XoO++@@@###$$$%%%%&&&***===---;;;:::::,,,,>>>,",
",,,::;;---===**&&&%%%%$$###@@@+++OOOoooXXX  ..... XoOO++++@@@###$$$%%%&&&***===---;;;:::,,,,,>>>",
">,,:::;;---===***&&%%%$$$###@@@+++OOOoooXXX   .... oooOOO+++@@@###$$$%%%&&&***===---;;;:::,,,>>>",
">,,,::;;;---===**&&&%%%%$$###@@@+++OOOoooXXX   ...  XXXooOOO++++@@###$$$%%%&&&***===--;;;;::,,>>",
"<>,,::;;;----===**&&&%%%$$$###@@@+++OOOoooXXX   ....  XXXoooOOO+++@@@###$$$%%&&&&***==---;;::,,<",
"<,,,:::;;;---===***&&&%%%$$$###@@@+++OOOoooXXX   ......   XXXoooOO+++@@@###$$$%%%&&&***===---;;<",
":>,,,:::;;;---===***&&&%%%$$$###@@@+++OOOoooXXX   ......   XXXoooOOO+++@@###$$$%%%&&&***===---;:",
":,>>,,,:::;;;;---===***&&&%%%$$$###@@@+++OOoooXX  .......   XXXoooOOO++@@@@###$$%%%&&&***===--;:",
":,,,,,,,,:::;;;;---===***&&&%%%%$$###@@@@+++OOoXX  .......   XXXooOOOO++@@@@###$$$%%&&&***==---;",
";:,,,,,,,,:::::;;;---====***&&%%%%$$$###@@@++OoXXX  .......   XXooooOOO++@@@###$$$%%%&&&***==--;",
";:,,,,,,,,,,,:::;;;;----===***&&&%%%$$$###@@++OoXXX  .......  XXXXooOOO+++@@@###$$$%%%&&&**==--;",
";::,,,,,,,,,,,:::;;;;;---====***&&&%%%$$$$#@@+OooXXX  .......  XXXoooOOO+++@@@###$$%%%%&&&*===--",
"-;:,,,,,,,,,,,,,::::;;;;---===****&&&%%%%$$#@+OoooXXX  ......    XXoooOOOO++@@@##$$$%%%%&&**===-",
"-;::,,,,,,,,,,,,,:::::;;;----====***&&&&%%$#@@+OoooXXX   .....   XXXoooOOO+++@@####$$%%%&&&**===",
"=;;::,,,,>,,,,,,,,:::::;;;;----====***&&%%$$#@+OOoooXXX   ......  XXXoooOOO+++@@@##$$$%%%&&&**==",
"=-;::,,,,,,,,,,,,,,::::::;;;;----===***&&%$$#@++OOOooXXX   ......   XXXooOOO+++@@@###$$%%%&&***=",
"=-;;::,,,,,,,,,,,,,,,:::::;;;;;----===**&%%$$#@++OOoooXXX  .......   XXoooOOO+++@@####$$%%%&&&**",
"*=-;:::,,,,,,,,,,,,,,,::::::;;;;;---==**&&%%$#@+++OOOoooXX   ......  XXXXooOOO+++@@###$$$%%%&&**",
"*=-;;:::,,,,,,,,,,,,,,,::::::;;;;----==**&&%$##@++OOOoooXXX   ......  XXXoooOOO+++@@@###$$%%%&&*",
"*=--;;::,,,,,,,,,,,,,,,,,:::::;;;;;---==**&%$$#@@+++OOoooXXX   ......   XXoooOOO+++@@@##$$$%%%&&",
"&*=-;;::,,,,,,,,,,,,,,,,,,::::::;;;;--==**&%%$#@@@++OOOOooXXX   .....    XXXooOOO+++@@@##$$$%%&&",
"&*=-;;;::,,,,,,,,,,,,,,,,,,::::::;;;---==**&%%$#@@@+++OOoooXXX   .....   XXXoooOOO+++@@@##$$$%%&",
"&*=--;;::::,,,,,,,,,,,,,,,,,,:::::;;;--==**&%%$##@@+++OOOoooXXX   .....   XXXoooOOO++@@@###$$$%%",
"%&*=--;;:::,,,,,,,,,,,,,,,,,,::::::;;;--==**&%$###@@@+++OOoooXX    .....   XXXoooOO+++@@@###$$$%",
"%&*==-;;::::,,,,,,,,,,,,,,,,,,,::::;;;--==**&%%$###@@+++OOOoooXXX   .....   XXXoooOO+++@@@###$$%",
"%&**=--;;::::,,,,,,,,,,,,,,,,,,,:::;;;;--==**&%$$###@@@++OOOoooXXX   ......  XXXoooOOO++@@@###$$",
"$%&*==-;;;::::,,,,,,,,,,,,,,,,,,:::::;;---=**&%$$$###@@@+++OOoooXXX   ......  XXXoooOOO++@@@###$",
"$%&**=--;;::::,,,,,,,,,,,,,,,,,,,:::::;;--==**&%%$$###@@@++OOOOooXXX   .....   XXXoooOOO++@@@###",
"#%&&*==--;;::::,,,,,,,,,,,,,,,,,,,::::;;;--=**&%%%$$###@@@+++OOoooXXX   .....   XXXoooOOO++@@@##",
"#$%&*===-;;;::::,,,,,,,,,,,,,,,,,,:::::;;;-==*&&%%%$$###@@@++OOOoooXXX   ......   XXoooOOO++@@@#",
"#$%&**==--;;;::::,,,,,,,,,,,,,,,,,,,:::;;;--==*&&%%$$$###@@++++OOoooXXX   ......   XXoooOOO++@@@",
"@#$%&**=---;;;::::,,,,,,,,,,,,,,,,,,,:::;;---=*&&&%%$$$###@@@++OOOoooXXX   .....   XXXoooOO+++@@",
"@#$%&&*==--;;;:::::,,,,,,,,,,,,,,,,,,,:::;;--=**&&&%%%$$###@@@++OOOoooXXX   .....   XXXoooOOO++@",
"@#$%%&**==--;;;::::,,,,,,,,,,,,,,,,,,,::::;;-==**&&%%%$$$##@@@+++OOOoooXXX   .....   XXXoooOO+++",
"+@#$%&**==--;;;;::::,,,,,,,,,,,,,,,,,,,:::;;;-=***&&&%%$$$##@@@+++OOOoooXXX   .....   XXXoooOO++",
"+@#$%%&**=---;;;:::::,,,,,,,,,,,,,,,,,,::::;;--=***&&%%%$$$###@@+++OOOoooXXX   .....   XXXooOOO+",
"+@@#$%&&*==---;;;:::::::,,,,,,,,,,,,,,,,:::;;;-==***&&%%%$$$###@@+++OOOoooXXX   .....   XXooooOO",
"O+@#$%%&**==---;;;;:::::,,,,,,,,,,,,,,,,,:::;;-===***&&%%%$$$###@@@++OOOoooXX    .....   XXXooOO",
"O+@#$$%&***==--;;;;;:::::,,,,,,,,,,,,,,,,,:::;--===***&&%%%$$$##@@@+++OOOoooXXX   .....   XXXooo",
"o++@#$%%&**==----;;;;:::::,,,,,,,,,,,,,,,,:::;;--===***&&%%%$$$###@@+++OOOoooXXX   .....   XXXoo",
"oO+@#$$%&&**==----;;;;;::::::,,,,,,,,,,,,,,:::;;---==***&&%%%$$$###@@+++OOOoooXXX   .....   XXXo",
"oO+@##$%%&**===-----;;;;:::::,,,,,,,,,,,,,,,::;;;--===**&&&%%%$$$##@@@@+++OOoooXXX   .....   XXX",
"Xo++@#$$%&&***====----;;;::::::,,,,,,,,,,,,,,::;;;--==***&&&%%%$$$##@@@+++OOOoooXXX   .....   XX",
"XoO+@#$$%%&&****====---;;;;;:::::,,,,,,,,,,,,,::;;---==***&&&%%%$$$##@@@+++OOOoooXXX   .....   X",
"XoO+@@#$$%%&&&****===----;;;;::::,,,,,,,,,,,,,,::;;---==***&&&%%$$$###@@@+++OOOoooXXX   .....   ",
" XoO+@##$$%%%&&&****===---;;;;;::::,,,,,,,>,,,,:::;;---==***&&&%%%$$###@@@+++OOOoooXX    .....  ",
" XoO+@@##$$$%%%&&&****==----;;;;::::,,,,,,,,,,,,::;;;--===***&&%%%$$$###@@@+++OOOoooXX    ..... ",
" XoO++@@###$$$%%%&&&***====---;;;;::::,,,,,,>,,,,::;;;---==**&&&%%%$$$###@@@+++OOOoooXXX  ......",
". XoO++@@@###$$$%%%%&&&***===---;;;:::::,,,,>>>,,,::;;---===***&&&%%$$$###@@@+++OOOooXXXX  .....",
". XoOO++++@@@###$$$%%%&&&***===---;;;:::,,,,,>>>,,,::;;---===**&&&%%%%$$###@@@+++OOOoooXXX  ....",
".. oooOOO+++@@@###$$$%%%&&&***===---;;;:::,,,>>>>,,:::;;---===***&&%%%$$$###@@@+++OOOoooXXX   ..",
"..  XXXooOOO++++@@###$$$%%%&&&***===--;;;;::,,>>>,,,::;;;---===**&&&%%%%$$###@@@+++OOOoooXXX   .",
"....  XXXoooOOO+++@@@###$$$%%&&&&***==---;;::,,<<>,,::;;;----===**&&&%%%$$$###@@@+++OOOoooXXX   ",
" ......   XXXoooOO+++@@@###$$$%%%&&&***===---;;<<,,,:::;;;---===***&&&%%%$$$###@@@+++OOOoooXXX  "};
