/* XPM */
static char * mytile_xpm[] = {
"58 52 26 1",
" 	c #000000000000",
".	c #000004100000",
"X	c #082008200820",
"o	c #08200C300820",
"O	c #104010401040",
"+	c #104014511040",
"@	c #186118611861",
"#	c #18611C711861",
"$	c #208120812081",
"%	c #208124922081",
"&	c #28A228A228A2",
"*	c #28A22CB228A2",
"=	c #30C230C230C2",
"-	c #30C234D330C2",
";	c #38E338E338E3",
":	c #38E33CF338E3",
">	c #410341034103",
",	c #410345144103",
"<	c #492449244924",
"1	c #49244D344924",
"2	c #514451445144",
"3	c #514455555144",
"4	c #596559655965",
"5	c #59655D755965",
"6	c #618561856185",
"7	c #618565956185",
"                                                          ",
"                                                          ",
"..........................................................",
"XXXXXXXXXXXXXXXXXXXXXXXXXXXXXXXXXXXXXXXXXXXXXXXXXXXXXXXXXX",
"oooooooooooooooooooooooooooooooooooooooooooooooooooooooooo",
"OOOOOOOOOOOOOOOOOOOOOOOOOOOOOOOOOOOOOOOOOOOOOOOOOOOOOOOOOO",
"++++++++++++++++++++++++++++++++++++++++++++++++++++++++++",
"@@@@@@@@@@@@@@@@@@@@@@@@@@@@@@@@@@@@@@@@@@@@@@@@@@@@@@@@@@",
"##########################################################",
"$$$$$$$$$$$$$$$$$$$$$$$$$$$$$$$$$$$$$$$$$$$$$$$$$$$$$$$$$$",
"$$$$$$$$$$$$$$$$$$$$$$$$$$$$$$$$$$$$$$$$$$$$$$$$$$$$$$$$$$",
"%%%%%%%%%%%%%%%%%%%%%%%%%%%%%%%%%%%%%%%%%%%%%%%%%%%%%%%%%%",
"&&&&&&&&&&&&&&&&&&&&&&&&&&&&&&&&&&&&&&&&&&&&&&&&&&&&&&&&&&",
"**********************************************************",
"==========================================================",
"----------------------------------------------------------",
";;;;;;;;;;;;;;;;;;;;;;;;;;;;;;;;;;;;;;;;;;;;;;;;;;;;;;;;;;",
"::::::::::::::::::::::::::::::::::::::::::::::::::::::::::",
">>>>>>>>>>>>>>>>>>>>>>>>>>>>>>>>>>>>>>>>>>>>>>>>>>>>>>>>>>",
",,,,,,,,,,,,,,,,,,,,,,,,,,,,,,,,,,,,,,,,,,,,,,,,,,,,,,,,,,",
",,,,,,,,,,,,,,,,,,,,,,,,,,,,,,,,,,,,,,,,,,,,,,,,,,,,,,,,,,",
"<<<<<<<<<<<<<<<<<<<<<<<<<<<<<<<<<<<<<<<<<<<<<<<<<<<<<<<<<<",
"1111111111111111111111111111111111111111111111111111111111",
"2222222222222222222222222222222222222222222222222222222222",
"3333333333333333333333333333333333333333333333333333333333",
"4444444444444444444444444444444444444444444444444444444444",
"5555555555555555555555555555555555555555555555555555555555",
"6666666666666666666666666666666666666666666666666666666666",
"7777777777777777777777777777777777777777777777777777777777",
"7777777777777777777777777777777777777777777777777777777777",
"7777777777777777777777777777777777777777777777777777777777",
"7777777777777777777777777777777777777777777777777777777777",
"7777777777777777777777777777777777777777777777777777777777",
"7777777777777777777777777777777777777777777777777777777777",
"7777777777777777777777777777777777777777777777777777777777",
"7777777777777777777777777777777777777777777777777777777777",
"7777777777777777777777777777777777777777777777777777777777",
"7777777777777777777777777777777777777777777777777777777777",
"7777777777777777777777777777777777777777777777777777777777",
"7777777777777777777777777777777777777777777777777777777777",
"7777777777777777777777777777777777777777777777777777777777",
"7777777777777777777777777777777777777777777777777777777777",
"7777777777777777777777777777777777777777777777777777777777",
"7777777777777777777777777777777777777777777777777777777777",
"7777777777777777777777777777777777777777777777777777777777",
"7777777777777777777777777777777777777777777777777777777777",
"7777777777777777777777777777777777777777777777777777777777",
"7777777777777777777777777777777777777777777777777777777777",
"7777777777777777777777777777777777777777777777777777777777",
"7777777777777777777777777777777777777777777777777777777777",
"7777777777777777777777777777777777777777777777777777777777",
"7777777777777777777777777777777777777777777777777777777777"};
