/* XPM */
static char * aboutbox_xpm[] = {
"96 96 65 1",
" 	c None",
".	c #E3E3E3",
"+	c #DDDDDD",
"@	c #DBDBDB",
"#	c #D5D5D5",
"$	c #D3D3D3",
"%	c #CDCDCD",
"&	c #CBCBCB",
"*	c #C7C7C7",
"=	c #C5C5C5",
"-	c #BEBEBE",
";	c #000000",
">	c #BCBCBC",
",	c #B6B6B6",
"'	c #C2C2C2",
")	c #B2B2B2",
"!	c #C6C6C6",
"~	c #ACACAC",
"{	c #B0B0B0",
"]	c #A0A0A0",
"^	c #A6A6A6",
"/	c #A8A8A8",
"(	c #9C9C9C",
"_	c #AAAAAA",
":	c #BABABA",
"<	c #969696",
"[	c #9A9A9A",
"}	c #B4B4B4",
"|	c #CECECE",
"1	c #8A8A8A",
"2	c #909090",
"3	c #929292",
"4	c #989898",
"5	c #E5E5E5",
"6	c #949494",
"7	c #7F7F7F",
"8	c #858585",
"9	c #8C8C8C",
"0	c #C0C0C0",
"a	c #6F6F6F",
"b	c #777777",
"c	c #7D7D7D",
"d	c #838383",
"e	c #8B8B8B",
"f	c #717171",
"g	c #737373",
"h	c #797979",
"i	c #818181",
"j	c #898989",
"k	c #D7D7D7",
"l	c #757575",
"m	c #7B7B7B",
"n	c #888888",
"o	c #8E8E8E",
"p	c #6B6B6B",
"q	c #D2D2D2",
"r	c #303030",
"s	c #9E9E9E",
"t	c #A2A2A2",
"u	c #A4A4A4",
"v	c #AEAEAE",
"w	c #B8B8B8",
"x	c #C8C8C8",
"y	c #878787",
"z	c #CACACA",
"                                                                                                ",
"                                                                                                ",
"                                                                                                ",
"                                                                                                ",
"                                                                                                ",
"                                                                                                ",
"                                                                                                ",
"                                                                                                ",
"                                        .+@@@###@@@@++..                                        ",
"                                    .@#$########@@@@@@@@+...                                    ",
"                                 .@$$$$$########@@@@@@@++.....                                  ",
"                               +#$$$$$$$########@@@@@@@++.....++.                               ",
"                             @$%$$$$$$$$########@@@@@@@++.....+@##+                             ",
"                           +%&%%$$$$$$$$$#######@@@@@@@+.....++@#$$$+                           ",
"                          $&&&%%%$$$$$$$$#######@@@@@@@+.....+@##$$%&#                          ",
"                        @***&&&%%$$$$$$$$#######@@@@@@++.....+@#$$%%&*&+                        ",
"                       $==***&&%%%$$$$$$$#######@@@@@@++....+@@#$$%&&**=$                       ",
"                      %===***&&&%%$$$$$$$#######@@@@@@+.....+@#$$%%&**==-&                      ",
"                    .*--===***&&%%%$$$$;;;##;;;#;@@;@;;;..;++@;;;%;;;==-->*                     ",
"                   .*----===**&&&;;;$$$;$$#;##;#;;;;@;+;;.;;@#;$%&&;*==->>&%                    ",
"                   =>>---===***&&;;;$$$;$$#;##;#;@@;@;;;..;;;#;%%&*;==-->&**%                   ",
"                  -,>>>---===**&&;;;$$$;;;#;;;;#;@@;@;...;+@;$;;;&*;=-->&****%                  ",
"                 ')),>>>---===**&;;;$$$$$$######@@@@@+....+@#$%%&**=-->&******$                 ",
"                !~{)),>>>---==***;;;%$$$$$######@@@@@+....@#$$%&**==->&********#                ",
"               $]^~{)),>>>--===**;;;%$$$$$$#####@@@@@+...+@#$%&&*==->&**********+               ",
"               /(]^_{)),>>>;;;;;;;;;%$$;;;$###;;;;;;;;;..+#;;;;;;;;>&***********&               ",
"              :<[(]^_~}),>;;;;;;;;;;%%$;;;$##;;;;;;;;;;.+@;;;;;;;;;;************=$              ",
"             |123<4]^_~}),;;;--==;;;&%$;;;$##;;;@@@@+.5.+@;;;&*=-;;;***********===+             ",
"             67893<4(]_~{);;;---=;;;&%%;;;$##;;;@@@@+.5.@#;;;*==-;;;*********=====&             ",
"            0abcd12<[(]^~{;;;>--=;;;&&%;;;$$#;;;@@@@.55+@$;;;*=->;;;********=======@            ",
"            effgh7893<4]^~;;;>>--;;;*&%;;;$$#;;;@@@+.5.@#$;;;=->&*********=========&            ",
"           !i7bffbc716<4(^;;;,>>-;;;*&&;;;$$#;;;;;;;;;+@$%;;;->&*********===========@           ",
"           {2ji7bffb7893[(;;;),>>;;;**&;;;$$##;;;;;;;;;#$%;;;-&********=============&           ",
"          k<[42ji7lfgh713<;;;{),>;;;=*&;;;$$####@@@.;;;$%&;;;&********===============+          ",
"          )d93[42jimlfbci9;;;^~),;;;==*;;;$$$###@@@.;;;$&*;;;****;;;*==============--$          ",
"          hlh7n3[(2jdmffh7;;;(^~);;;-=*;;;$$$###@@+.;;;%&=;;;****;;;============-----=          ",
"         |gaafh7do<(6jdbfg;;;<(^~;;;--=;;;$$$###@@+5;;;&*=;;;****;;;==========--------+         ",
"         {bgggaplhd9<(6jdb;;;;;;;;;;>-=;;;$$$;;;;;;;;;;*=>;;;;;;;;;;========----------$         ",
"         6mbbbgggafh7n3]6jd;;;;;;;;;,>-;;;%$$;;;;;;;;;&=-&*;;;;;;;;======-------------*         ",
"         dd77mbmbggapfhdo[6j7lac1<(^{,>-=*&$$$##@@5+$&*-&*****=========----------------         ",
"        qi77ddd7mmmbggapl79<4j7fb764^{,>-=&%$$##@+5@%*-&****=========------------------+        ",
"        'j888877ddd7mbbggafhn<4j7fh1<]{,>=*&mmmmmmm$&=&****=======-------------------->#        ",
"        >22eejj88877dd7mbbggpl73(jmf73(~,-mmrrrrrrrmm>***=======----------------->>>>>>%        ",
"        }<<<<2222ejj8877dd7mbggph9(jbb14_mmrr,,,,,rrmm**======-------------->>>>>>>>>>>*        ",
"        ~(s[[[[<<<6222ej8877d7mmgafd[jlc<mrr,55555,rrm*====------------>>>>>>>>>>>>>>>>=        ",
"        _tsss]]((([[[<<<222ej887d7bgah<jmrr,5555555,rrm==---------->>>>>>>>>>>>>>>>>>>>-        ",
"        ^tuuuuu]]ttsss]((s[[<<22ej87dmgpmr,555555555,rm------->>>>>>>>>>>>>>>>>>>>>>>>>>        ",
"        _______^^^^^^tuuuu]tts](([<<2e87mr,555555555,rm-->>>>>>>>>>>>>>>>>>>>>>>>:::::::        ",
"        {{{{{{{~~~~~~~~~vv_____^^^tuuts(mr,555555555,rm>>>>>>>>>::::::,,,,,,,,,,w}}}}}}}        ",
"        ,,,,,,,,,,,,,,,,,,,,,,,,,,,,,,,,mr,555555555,rm,,,,,,,,,,,,,,,,,,,,,,,,,,,,,,,,,        ",
"        w}}}}}w,,,,,,,,,,::::::>>>>>>>>>mr,555555555,rm(stuut^^^_____vv~~~~~~~~~{{{{{{{{        ",
"        0:::::>>>>>>>>>>>>>>>>>>>>>>>>--mrr,5555555,rrm78e2<<[((]stt]uuuut^^^^^^_______)        ",
"        =>>>>>>>>>>>>>>>>>>>>>>>>-------=mrr,55555,rrm9pgmd78je22<<[[s((]ssstt]]uuuuutt)        ",
"        *>>>>>>>>>>>>>>>>>>>----------===mmrr,,,,,rrmmfj<hagb7d788je222<<<[[[(((]]sssttw        ",
"        %>>>>>>>>>>>>>>>------------====**mmrrrrrrrmm^<clj[dfagmm7d7788je2226<<<[[[[s((-        ",
"        #>>>>>>>>>>--------------======***>*mmmmmmm=-,_41bbj(9hpggbm7dd7788jje2222<<<<<x        ",
"        +>>>>>-----------------=======***>=%@.@##$%&=-,~(37fmj(37lpggbbm7dd77888jjee222k        ",
"         --------------------=======****&=&$..@##$$&*=>,{]<1hf7j4<nhfaggbbm7ddd778888jj         ",
"         *----------------=========****&-*%@5+@##$$%&=->,{^467bf7j4<97lpaggbmmm7ddd77i(         ",
"         $--------------=========*****&-*&$+5@@##$$$&*=->,{^(<1cal7j6[odhfpaggbmbm77dd,         ",
"         +------------==========*****&-=&$@..@@###$$%&*=->,}_]<2dhfldj6]3n7hfagggbbbmmq         ",
"          =--------============******>=*%$+5.@@###$$$&*==->,)_]4317bfbdj6(<9dhlpagggby          ",
"          $------============*******>=*&$#.5+@@###$$$%&*=-->,)~^(<2icgfbdj6(<od7hfaag/          ",
"          +----=============*******>-=&%$@..+@@###$$$%&&*=-->,)~^([317hffmdj2([3n7hlfq          ",
"           &==============********>-=*&$#+5.@@@###$$$$%&*==-->,)~^]4<9icbflmij24[39d[           ",
"           @=============********&-=*&%$@.5.@@@####$$$%&&*==->>,){_](<317hgfl7ij24[<z           ",
"            *===========********&-=**%$#+..+@@@####$$$$%&**=-->>,){_^([3987bffb7ij2_            ",
"            @=========*********&>-=*&%$@+..+@@@####$$$$%&&*==-->>,){_^(4<617cbffb7i!            ",
"             &=======*********&>-=*&%$#@...+@@@####$$$$%%&**==-->>,){~^]4<3987hgff3             ",
"             +=====**********&>-=**&%$@+...@@@@####$$$$$%&&**==-->>,){~^]([<21dcbaz             ",
"              $===**********&>-==*&%$#@...+@@@@#####$$$$%%&&*==--->>,){~_](4<3987/              ",
"               &***********&>--=*&%$$@+...+@@@@#####$$$$$%&&**==--->>,)}~_^]4<32<               ",
"               +***********>--=**&%$#@+...+@@@@#####$$$$$%%&&**==--->>,)}~_^]([<|               ",
"                #*********&>-==*&%$$#+....+@@@@#####$$$$$$%&&**===-->>>,)){_^]('                ",
"                 $*******&>-==*&&%$#@+...+@@@@@#####$$$$$$%%&&**===-->>>,)){~^:                 ",
"                  %*****&>-==**&%$$#@....+@@@@@######$$$$$%%&&***==--->>>,)){:                  ",
"                   %***&>--=**&%%$#@+....+@@@@@######$$$$$$%%&&**===--->>>,):                   ",
"                    %*&>--==*&&%$$#@+....+@@@@@######$$$$$$%%&&&**===--->>>'.                   ",
"                     %>--==**&%%$#@+....++@@@@@######$$$$$$$%%&&***===--->*.                    ",
"                      &-==**&&%$$#@+....+@@@@@@######$$$$$$$%%&&&**===---&                      ",
"                       $==*&&%%$#@++....+@@@@@@#######$$$$$$%%%&&***===-$                       ",
"                        @&*&%%$$#@+.....+@@@@@@#######$$$$$$$%%&&&***=*@                        ",
"                          $&%$$#@@+....++@@@@@@#######$$$$$$$%%%&&***$                          ",
"                           +$$$#@+.....++@@@@@@#######$$$$$$$$%%&&&%+                           ",
"                             +##@+.....+@@@@@@@#######$$$$$$$$%%%%@                             ",
"                               .++.....+@@@@@@@#######$$$$$$$$$$+                               ",
"                                  ....++@@@@@@@########$$$$$$@.                                 ",
"                                    ..++@@@@@@@########$$#@.                                    ",
"                                        ..++@@@#####@@+.                                        ",
"                                                                                                ",
"                                                                                                ",
"                                                                                                ",
"                                                                                                ",
"                                                                                                ",
"                                                                                                ",
"                                                                                                "};
