/* XPM */
static char * cddb_xpm[] = {
"33 20 2 1",
" 	c None",
".	c #000000",
"                                 ",
"                                 ",
"                                 ",
"  ....   .....    .....    ..... ",
" .    .  .    .   .    .   .    .",
".        .     .  .     .  .    .",
".        .     .  .     .  .    .",
".        .     .  .     .  ..... ",
".        .     .  .     .  .    .",
".        .     .  .     .  .    .",
" .    .  .    .   .    .   .    .",
"  ....   .....    .....    ..... ",
"                                 ",
"                                 ",
"                                 ",
"                                 ",
"                                 ",
"                                 ",
"                                 ",
"                                 "};
