/* XPM */
static char * eject_xpm[] = {
"24 24 25 1",
" 	c None",
".	c #71C618610820",
"X	c #79E718610820",
"o	c #410308200000",
"O	c #41030C300000",
"+	c #51440C300000",
"@	c #49240C300000",
"#	c #618510400820",
"$	c #618510400000",
"%	c #861720811040",
"&	c #69A614510820",
"*	c #71C618611040",
"=	c #69A618610820",
"-	c #51440C300820",
";	c #38E308200000",
":	c #49240C300820",
">	c #514410400820",
",	c #30C230C230C2",
"<	c #492408200000",
"1	c #69A618611040",
"2	c #596510400000",
"3	c #596510400820",
"4	c #30C208200000",
"5	c #596514510820",
"6	c #71C614510820",
"                        ",
"                        ",
"                        ",
"                        ",
"                        ",
"           .X           ",
"          ooO+          ",
"         +@+#$O         ",
"        %&&*=X&+        ",
"       o-;;@o;:>#       ",
"      ,,,,,,,,,,,,      ",
"                        ",
"                        ",
"       @+-<;;@;:,       ",
"       -1.2o++;;,       ",
"       -@o+3&#++,       ",
"       +@;4+-o@=,       ",
"       @>;;@oo4;,       ",
"       @+53o+@O;,       ",
"       ;;@O;;#62,       ",
"       ,,,,,,,,,,       ",
"                        ",
"                        ",
"                        "};
