/* XPM */
static char * ff_xpm[] = {
"26 12 39 1",
" 	c None",
".	c #38E308200000",
"X	c #410308200000",
"o	c #79E77DF779E7",
"O	c #71C61C711040",
"+	c #861720811040",
"@	c #596510400820",
"#	c #49240C300000",
"$	c #51440C300000",
"%	c #41030C300000",
"&	c #71C618610820",
"*	c #8E3820811040",
"=	c #596510400000",
"-	c #69A614510820",
";	c #618514510820",
":	c #69A610400820",
">	c #514410400820",
",	c #596514510820",
"<	c #69A618611040",
"1	c #965824921040",
"2	c #8E3824921040",
"3	c #79E71C710820",
"4	c #79E718610820",
"5	c #618518610820",
"6	c #86171C711040",
"7	c #492408200000",
"8	c #41030C300820",
"9	c #49240C300820",
"0	c #79E71C711040",
"q	c #79E720811040",
"w	c #71C614510820",
"e	c #51440C300820",
"r	c #59650C300000",
"t	c #30C230C230C2",
"y	c #618510400000",
"u	c #618510400820",
"i	c #30C208200000",
"p	c #71C618611040",
"a	c #69A618610820",
".Xo           .Xo         ",
"O+@#o         @X.Xo       ",
"@$X%&+o       *&@$#=o     ",
"%@-;:@$.o     >,<1234=o   ",
"-&>>5&&-64o   #.#7..89;0o ",
">#XX#XX>;<q-  -&wX..X#$Xe%",
".$r#@XX$#.Xt  >5;yur#=X.it",
"&u@63;-;$tt   %XX,+p;aytt ",
"#..%>>>tt     -$$#XX.tt   ",
"&##e@tt       9>u7.tt     ",
">;;tt         #&+tt       ",
"ttt           ttt         "};
