/* XPM */
static char * menu_xpm[] = {
"7 4 11 1",
" 	c None",
".	c #38E308200000",
"X	c #410308200000",
"o	c #49240C300820",
"O	c #49240C300000",
"+	c #618514510820",
"@	c #86171C711040",
"#	c #861720811040",
"$	c #596510400820",
"%	c #41030C300000",
"&	c #71C618610820",
".XXoO+@",
" #$OOO ",
"  X%&  ",
"   +   "};
