/* XPM */
static char * next_t_xpm[] = {
"19 24 30 1",
" 	c None",
".	c #208120812081",
"X	c #30C230C230C2",
"o	c #49240C300000",
"O	c #492408200000",
"+	c #514410400820",
"@	c #79E77DF779E7",
"#	c #71C614510820",
"$	c #410308200000",
"%	c #38E308200000",
"&	c #51440C300000",
"*	c #59650C300000",
"=	c #618514510820",
"-	c #618510400000",
";	c #71C618610820",
":	c #618510400820",
">	c #596510400820",
",	c #86171C711040",
"<	c #79E71C710820",
"1	c #596514510820",
"2	c #41030C300000",
"3	c #69A618610820",
"4	c #51440C300820",
"5	c #30C208200000",
"6	c #861720811040",
"7	c #69A614510820",
"8	c #79E71C711040",
"9	c #514410400000",
"0	c #596510400000",
"q	c #71C61C710820",
"                   ",
"                   ",
"                   ",
"               ...X",
"               .oOX",
"+o@            .#$X",
"%&*o@          .=-X",
";:>,<=@        .$1X",
"o%%2+++3@      .&oX",
";oo4>%5$4%@    .:OX",
"+==>+o&o&o:%   .6=X",
"%$7>4689>;#X   .>1X",
"%$&1==O%$XX    .o%X",
"7=o%%4oXX      .>0X",
"13=+&XX        .oqX",
"$$>XX          .:$X",
"XXX            .+$X",
"               .2&X",
"               ...X",
"                   ",
"                   ",
"                   ",
"                   ",
"                   "};
