/* XPM */
static char * pause_xpm[] = {
"24 24 36 1",
" 	c None",
".	c #71C618610820",
"X	c #861720811040",
"o	c #69A614510820",
"O	c #514410400000",
"+	c #30C230C230C2",
"@	c #596510400820",
"#	c #51440C300000",
"$	c #49240C300000",
"%	c #596510400000",
"&	c #69A610400820",
"*	c #38E308200000",
"=	c #69A618611040",
"-	c #965824921040",
";	c #8E3824921040",
":	c #79E71C710820",
">	c #618518610820",
",	c #492408200000",
"<	c #410308200000",
"1	c #514410400820",
"2	c #71C614510820",
"3	c #618514510820",
"4	c #618510400000",
"5	c #618510400820",
"6	c #59650C300000",
"7	c #596514510820",
"8	c #71C618611040",
"9	c #69A618610820",
"0	c #30C208200000",
"q	c #51440C300820",
"w	c #79E71C711040",
"e	c #71C61C711040",
"r	c #71C61C710820",
"t	c #79E718610820",
"y	c #41030C300000",
"u	c #49240C300820",
"                        ",
"                        ",
"    .XoO+       @#$%+   ",
"    &@#*+       =-;:+   ",
"    >..o+       $,**+   ",
"    $<<1+       2<**+   ",
"    @<<#+       3456+   ",
"    :3o3+       <7X8+   ",
"    1119+       #$<<+   ",
"    @*0<+       5,*#+   ",
"    1$#$+       X315+   ",
"    qXwO+       @7eo+   ",
"    33,*+       $**<+   ",
"    *q$$+       @%,<+   ",
"    #@<q+       $rt.+   ",
"    wt.q+       5<y#+   ",
"    <*%#+       1<*y+   ",
"    y00$+       y#$*+   ",
"    @1$$+       *@t3+   ",
"    <$u*+       @y<<+   ",
"    to<$+       *y#<+   ",
"    $u@o+       o3q$+   ",
"                        ",
"                        "};
