/* XPM */
static char * play_xpm[] = {
"24 24 36 1",
" 	c None",
".	c #410308200000",
"X	c #41030C300000",
"o	c #618565956185",
"O	c #69A614510820",
"+	c #618514510820",
"@	c #69A610400820",
"#	c #596510400820",
"$	c #514410400820",
"%	c #618518610820",
"&	c #71C618610820",
"*	c #49240C300000",
"=	c #69A618611040",
"-	c #59650C300000",
";	c #51440C300000",
":	c #38E308200000",
">	c #86171C711040",
",	c #79E71C710820",
"<	c #618510400820",
"1	c #618510400000",
"2	c #69A618610820",
"3	c #861720811040",
"4	c #71C618611040",
"5	c #79E718610820",
"6	c #51440C300820",
"7	c #30C208200000",
"8	c #49240C300820",
"9	c #492408200000",
"0	c #79E71C711040",
"q	c #514410400000",
"w	c #71C614510820",
"e	c #596514510820",
"r	c #71C61C711040",
"t	c #492410400820",
"y	c #596510400000",
"u	c #71C61C710820",
"                        ",
"                        ",
"  .Xo                   ",
"  O+@#o                 ",
"  $$%&&Oo               ",
"  ..*..$+=o             ",
"  -*#..;*:..o           ",
"  #>,+O+;;*;<1o         ",
"  :X$$$23OO425O;o       ",
"  *6#:7.6::*.:8$<9o     ",
"  +#$*;*;*<...*&3+$<o   ",
"  O#630q#&w+#<<X#erO..  ",
"  ;e++9:...te&5+*::..:  ",
"  *::6**;69::*:8#y9.o   ",
"  +$;#.6=&y.;;::*uo     ",
"  #505&6*.;#O<;;o       ",
"  X#.:y;*:7;6.o         ",
"  OyX77*$::*o           ",
"  *;#$**;eo             ",
"  .:.*8:o               ",
"  ;#5Oo                 ",
"  :*o                   ",
"                        ",
"                        "};
