/* XPM */
static char * power_xpm[] = {
"24 24 27 1",
" 	c None",
".	c #71C618610820",
"X	c #69A614510820",
"o	c #86171C711040",
"O	c #79E718610820",
"+	c #49240C300000",
"@	c #596510400820",
"#	c #38E308200000",
"$	c #492408200000",
"%	c #410308200000",
"&	c #514410400820",
"*	c #618514510820",
"=	c #69A618611040",
"-	c #79E720811040",
";	c #71C614510820",
":	c #51440C300000",
">	c #30C230C230C2",
",	c #69A618610820",
"<	c #30C208200000",
"1	c #618510400820",
"2	c #861720811040",
"3	c #79E71C711040",
"4	c #514410400000",
"5	c #51440C300820",
"6	c #596510400000",
"7	c #41030C300000",
"8	c #49240C300820",
"                        ",
"                        ",
"                        ",
"                        ",
"      .XoOX++@+#+$      ",
"      %&*=-.O-X.;%      ",
"      %:        *>      ",
"      X*        %>      ",
"      &,        :>      ",
"      <%        1>      ",
"      :+        2>      ",
"      34        @>      ",
"      $#        +>      ",
"      ++ 5$##+# @>      ",
"      %5 .6%::# +>      ",
"      .5 %:@X1: 1>      ",
"      6: #<:5%+ &>      ",
"      <+ ##+%%< 7>      ",
"      ++        #>      ",
"      8##+7##1;6@>      ",
"      %>>>>>>>>>>>      ",
"                        ",
"                        ",
"                        "};
