/* XPM */
static char * prev_t_xpm[] = {
"19 24 34 1",
" 	c None",
".	c #618561856185",
"X	c #30C230C230C2",
"o	c #71C618610820",
"O	c #514410400820",
"+	c #49240C300000",
"@	c #410308200000",
"#	c #38E33CF338E3",
"$	c #79E77DF779E7",
"%	c #38E308200000",
"&	c #51440C300000",
"*	c #59650C300000",
"=	c #38E338E338E3",
"-	c #618518610820",
";	c #618514510820",
":	c #618510400000",
">	c #618510400820",
",	c #596510400820",
"<	c #41030C300000",
"1	c #596514510820",
"2	c #861720811040",
"3	c #30C234D330C2",
"4	c #71C618611040",
"5	c #69A618610820",
"6	c #79E718610820",
"7	c #69A614510820",
"8	c #49240C300820",
"9	c #492408200000",
"0	c #41030C300820",
"q	c #71C614510820",
"w	c #71C61C711040",
"e	c #492410400820",
"r	c #596510400000",
"t	c #71C61C710820",
"                   ",
"                   ",
"                   ",
"...X               ",
".oOX               ",
".+@#            $@%",
".&*=          $-;:>",
".>,=        $:<@@12",
".%%3      $4567&&+@",
".++3    $%%+@%8O>9%",
".;;=   0&+>@@@+o2;O",
".@73   X,oq;,>><,1w",
".@&X    XX@e1o6;+%%",
".;+X      XX%+%8,r9",
".5;X        XX%%+t6",
".@,X          XX>@<",
".%<X            XX%",
".77X               ",
"...X               ",
"                   ",
"                   ",
"                   ",
"                   ",
"                   "};
