/* XPM */
static char * rw_xpm[] = {
"26 12 39 1",
" 	c None",
".	c #79E77DF779E7",
"X	c #49240C300000",
"o	c #69A618610820",
"O	c #79E720811040",
"+	c #618514510820",
"@	c #618510400820",
"#	c #618518611040",
"$	c #514410400820",
"%	c #410308200000",
"&	c #69A614510820",
"*	c #514410400000",
"=	c #596510400820",
"-	c #79E71C711040",
";	c #861720811040",
":	c #38E308200000",
">	c #41030C300000",
",	c #69A610400820",
"<	c #51440C300000",
"1	c #8E3824921040",
"2	c #79E71C710820",
"3	c #79E718610820",
"4	c #596510400000",
"5	c #59650C300000",
"6	c #618518610820",
"7	c #71C618610820",
"8	c #86171C711040",
"9	c #492408200000",
"0	c #41030C300820",
"q	c #49240C300820",
"w	c #410310400820",
"e	c #69A618611040",
"r	c #596514510820",
"t	c #71C614510820",
"y	c #51440C300820",
"u	c #30C230C230C2",
"i	c #618510400000",
"p	c #30C208200000",
"a	c #71C618611040",
"         .XX           .oO",
"       .o+@@         .#$X%",
"     .&*=-;;       .%:%::>",
"   .,=<:%=%%     .12345X<&",
" .$$677&83&X   .X9::0q+-o$",
"wX%%X%%$+eO7  r7t%::%X<%yX",
"u<5X=%%<X:%%  u6+i@5X4%:p:",
" uu82+&+<<X<   uur;a+oiX:%",
"   uu$$o;&&a     uu%::@o7&",
"     uu%y::X       uu<X%:%",
"       uuX@%         uu%%%",
"         uu+           uuX"};
