/* XPM */
static char * stop_xpm[] = {
"24 24 32 1",
" 	c None",
".	c #30C230C230C2",
"X	c #410308200000",
"o	c #514410400820",
"O	c #618514510820",
"+	c #69A618611040",
"@	c #79E720811040",
"#	c #71C618610820",
"$	c #79E718610820",
"%	c #69A614510820",
"&	c #71C614510820",
"*	c #51440C300000",
"=	c #49240C300000",
"-	c #38E308200000",
";	c #41030C300000",
":	c #618518610820",
">	c #618510400000",
",	c #618510400820",
"<	c #596514510820",
"1	c #69A618610820",
"2	c #861720811040",
"3	c #71C618611040",
"4	c #30C208200000",
"5	c #51440C300820",
"6	c #49240C300820",
"7	c #492408200000",
"8	c #79E71C711040",
"9	c #514410400000",
"0	c #596510400820",
"q	c #492410400820",
"w	c #596510400000",
"e	c #71C61C710820",
"                        ",
"                        ",
"                        ",
"                        ",
"                        ",
"     .XoO+@#$@%#&X.     ",
"     XX*=-XX;*o:O>.     ",
"     O%O**=*,>;XX<.     ",
"     oo12%%31$%**=.     ",
"     -4X5--=X-6o,7.     ",
"     =*=*=,XXX=#2O.     ",
"     2890#&O0,,;0<.     ",
"     O7-XXXq<#$O=-.     ",
"     5==*57--=-60w.     ",
"     0X5+#wX**--=e.     ",
"     $#5=X*0%,**,X.     ",
"     -w*=-4*5X=1oX.     ",
"     44=o--=XX4-;*.     ",
"     .==*<0X*=;--0.     ",
"     ..............     ",
"                        ",
"                        ",
"                        ",
"                        "};
