/* XPM */
static char * play_xpm[] = {
"24 24 3 1",
" 	c #AAAAAAAAAAAA",
"A      c #000000000000",
"B      c #333333333333",
"                        ",
"                        ",
"                        ",
"                        ",
"                        ",
"     BAAAAAAAAAAAAB     ",
"     AAAAAAAAAAAAAB     ",
"     AAAAAAAAAAAAAB     ",
"     AAAAAAAAAAAAAB     ",
"     AAAAAAAAAAAAAB     ",
"     AAAAAAAAAAAAAB     ",
"     AAAAAAAAAAAAAB     ",
"     AAAAAAAAAAAAAB     ",
"     AAAAAAAAAAAAAB     ",
"     AAAAAAAAAAAAAB     ",
"     AAAAAAAAAAAAAB     ",
"     AAAAAAAAAAAAAB     ",
"     AAAAAAAAAAAAAB     ",
"     BAAAAAAAAAAAAB     ",
"     BBBBBBBBBBBBBB     ",
"                        ",
"                        ",
"                        ",
"                        "};
