/* XPM */
static char * eject_xpm[] = {
"24 24 3 1",
" 	c None",
"A      c #000000000000",
"B      c #333333333333",
"                        ",
"                        ",
"                        ",
"                        ",
"                        ",
"           AA           ",
"          AAAA          ",
"         AAAAAA         ",
"        AAAAAAAA        ",
"       AAAAAAAAAA       ",
"      BBBBBBBBBBBB      ",
"                        ",
"                        ",
"       AAAAAAAAAB       ",
"       AAAAAAAAAB       ",
"       AAAAAAAAAB       ",
"       AAAAAAAAAB       ",
"       AAAAAAAAAB       ",
"       AAAAAAAAAB       ",
"       AAAAAAAAAB       ",
"       BBBBBBBBBB       ",
"                        ",
"                        ",
"                        "};
