/* XPM */
static char * ff_xpm[] = {
"26 12 6 1",
" 	c None",
".	c #000000000000",
"X	c #79E77DF779E7",
"o	c #082008200820",
"O	c #104010401040",
"+	c #38E33CF338E3",
"..            ..          ",
"....          ....        ",
"......        ......      ",
"........      ........    ",
"..........    ..........  ",
"...........O  ...........O",
"...........+  ...........+",
".........++   .........++ ",
".......++     .......++   ",
".....++       .....++     ",
"...++         ...++       ",
"+++           +++         "};
