/* XPM */
static char * goto_xpm[] = {
"26 20 2 1",
" 	c None",
".	c #000000",
"                          ",
"                          ",
"                          ",
"                          ",
"                          ",
"                          ",
"   ....          .        ",
"  .    .         .        ",
" .         ...  ...  ...  ",
" .        .   .  .  .   . ",
" .   ...  .   .  .  .   . ",
" .     .  .   .  .  .   . ",
" .     .  .   .  .  .   . ",
"  .   ..  .   .  .  .   . ",
"   ... .   ...   ..  ...  ",
"                          ",
"                          ",
"           .....          ",
"            ...           ",
"             .            "};
