/* XPM */
static char * next_t_xpm[] = {
"19 24 7 1",
" 	c None",
".	c #208120812081",
"X	c #38E33CF338E3",
"o	c #000000000000",
"O	c #79E77DF779E7",
"+	c #104010401040",
"@	c #082008200820",
"                   ",
"                   ",
"                   ",
"               ...X",
"               .ooX",
"oo             .ooX",
"oooo           .ooX",
"oooooo         .ooX",
"oooooooo       .ooX",
"oooooooooo     .ooX",
"ooooooooooo+   .ooX",
"oooooooooooX   .ooX",
"oooooooooXX    .ooX",
"oooooooXX      .ooX",
"@ooooXX        .ooX",
"oooXX          .ooX",
"XXX            .ooX",
"               .ooX",
"               ...X",
"                   ",
"                   ",
"                   ",
"                   ",
"                   "};
