/* XPM */
static char * play_xpm[] = {
"24 24 3 1",
" 	c None",
".	c #618565956185",
"X	c #000000000000",
"                        ",
"                        ",
"  XX                    ",
"  XXXX                  ",
"  XXXXXX                ",
"  XXXXXXXX              ",
"  XXXXXXXXXX            ",
"  XXXXXXXXXXXX          ",
"  XXXXXXXXXXXXXX        ",
"  XXXXXXXXXXXXXXXX      ",
"  XXXXXXXXXXXXXXXXXX    ",
"  XXXXXXXXXXXXXXXXXXXX  ",
"  XXXXXXXXXXXXXXXXXXXX  ",
"  XXXXXXXXXXXXXXXXXX    ",
"  XXXXXXXXXXXXXXXX      ",
"  XXXXXXXXXXXXXX        ",
"  XXXXXXXXXXXX          ",
"  XXXXXXXXXX            ",
"  XXXXXXXX              ",
"  XXXXXX                ",
"  XXXX                  ",
"  XX                    ",
"                        ",
"                        "};
