/* XPM */
static char * power_xpm[] = {
"24 24 3 1",
" 	c None",
"A      c #000000000000",
"B      c #333333333333",
"                        ",
"                        ",
"                        ",
"                        ",
"      AAAAAAAAAAAA      ",
"      AAAAAAAAAAAA      ",
"      AA        AB      ",
"      AA        AB      ",
"      AA        AB      ",
"      AA        AB      ",
"      AA        AB      ",
"      AA        AB      ",
"      AA        AB      ",
"      AA AAAAAA AB      ",
"      AA AAAAAA AB      ",
"      AA AAAAAA AB      ",
"      AA AAAAAA AB      ",
"      AA AAAAAA AB      ",
"      AA        AB      ",
"      AAAAAAAAAAAB      ",
"      ABBBBBBBBBBB      ",
"                        ",
"                        ",
"                        "};
