/* XPM */
static char * prev_t_xpm[] = {
"19 24 6 1",
" 	c None",
".	c #383C38",
"+	c #202020",
"@	c #000000",
"#	c #101010",
"$	c #080808",
"                   ",
"                   ",
"                   ",
"...+               ",
".@@+               ",
".@@+             @@",
".@@+           @@@@",
".@@+         @@@@@@",
".@@+       @@@@@@@@",
".@@+     @@@@@@@@@@",
".@@+   #@@@@@@@@@@@",
".@@+   .@@@@@@@@@@@",
".@@+    ..@@@@@@@@@",
".@@+      ..@@@@@@@",
".@@+        ..@@@@$",
".@@+          ..@@@",
".@@+            ..@",
".@@+               ",
"++++               ",
"                   ",
"                   ",
"                   ",
"                   ",
"                   "};
