/* XPM */
static char * rw_xpm[] = {
"26 12 6 1",
" 	c None",
".	c #79E77DF779E7",
"X	c #000000000000",
"o	c #082008200820",
"O	c #104010401040",
"+	c #38E33CF338E3",
"          XX            XX",
"        XoXX          XXXX",
"      XXXXXX        XXXXXX",
"    XXXXXXXX      XXXXXXXX",
"  XXXXXXXXXX    XXXXXXXXXX",
"OXXXXXXXXXXX  OXXXXXXXXXXX",
"+XXXXXXXXXXX  +XXXXXXXXXXX",
" ++XXXXXXXXX   ++XXXXXXXXX",
"   ++XXXXXXX     ++XXXXXXX",
"     ++XXXXX       ++XXXXo",
"       ++XXX         ++XXX",
"         ++X           ++X"};
