/* XPM */
static char * stop_xpm[] = {
"24 24 3 1",
" 	c None",
"A      c #000000000000",
"B      c #333333333333",
"                        ",
"                        ",
"                        ",
"                        ",
"                        ",
"     AAAAAAAAAAAAAB     ",
"     AAAAAAAAAAAAAB     ",
"     AAAAAAAAAAAAAB     ",
"     AAAAAAAAAAAAAB     ",
"     AAAAAAAAAAAAAB     ",
"     AAAAAAAAAAAAAB     ",
"     AAAAAAAAAAAAAB     ",
"     AAAAAAAAAAAAAB     ",
"     AAAAAAAAAAAAAB     ",
"     AAAAAAAAAAAAAB     ",
"     AAAAAAAAAAAAAB     ",
"     AAAAAAAAAAAAAB     ",
"     AAAAAAAAAAAAAB     ",
"     AAAAAAAAAAAAAB     ",
"     BBBBBBBBBBBBBB     ",
"                        ",
"                        ",
"                        ",
"                        "};
